<svg height="512pt" viewBox="0 -30 512 512" width="512pt" xmlns="http://www.w3.org/2000/svg"><path d="m256 0c-88.546875 0-256 12.484375-256 59.734375v51.199219c0 8.875 5.886719 16.894531 17.367188 23.878906.621093 14.992188 3.855468 29.757812 9.550781 43.636719l32.644531 222.027343.257812 1.789063c.289063 2.058594 1.324219 3.9375 2.910157 5.285156 17.527343 30.664063 109.789062 44.714844 193.269531 44.714844s175.742188-14.050781 193.273438-44.714844c1.582031-1.34375 2.621093-3.222656 2.910156-5.28125l32.902344-223.828125c5.691406-13.878906 8.921874-28.640625 9.546874-43.625 11.5-7.015625 17.367188-15.027344 17.367188-23.882812v-51.199219c0-47.25-167.453125-59.734375-256-59.734375zm0 17.066406c154.601562 0 238.933594 28.183594 238.933594 42.667969 0 4.582031-8.464844 10.535156-24.898438 16.53125-45.765625-15.480469-127.171875-25.066406-214.035156-25.066406s-168.269531 9.585937-214.035156 25.066406c-16.433594-5.996094-24.898438-11.949219-24.898438-16.53125 0-14.484375 84.332032-42.667969 238.933594-42.667969zm182.933594 68.175782c-60.160156 12.433593-121.511719 18.191406-182.933594 17.15625-61.421875 1.035156-122.773438-4.722657-182.933594-17.15625 60.203125-12.121094 121.527344-17.808594 182.933594-16.976563 61.40625-.832031 122.730469 4.855469 182.933594 16.976563zm29.566406 88.683593c-22.800781 51.703125-83.003906 75.824219-114.304688 85.152344-4.714843-7.234375-12.761718-11.601563-21.394531-11.613281h-153.601562c-8.640625.011718-16.691407 4.386718-21.402344 11.628906-24.679687-7.011719-48.058594-17.984375-69.226563-32.484375-19.527343-13.132813-35.109374-31.339844-45.066406-52.660156l-4.308594-29.308594c45.097657 15.980469 127.125 26.027344 216.804688 26.027344 89.882812 0 172.074219-10.09375 216.800781-26zm-289.300781 90.609375h153.601562c4.710938 0 8.53125 3.820313 8.53125 8.53125 0 4.714844-3.820312 8.535156-8.53125 8.535156h-153.601562c-4.710938 0-8.53125-3.820312-8.53125-8.535156 0-4.710937 3.820312-8.53125 8.53125-8.53125zm256.691406 131.128906c-.332031.574219-.589844 1.1875-.773437 1.828126-3.195313 15.75-72.878907 37.707031-179.117188 37.707031s-175.921875-21.957031-179.113281-37.707031c-.1875-.652344-.453125-1.277344-.792969-1.867188l-26.664062-181.351562c8.691406 9.859374 18.511718 18.667968 29.257812 26.238281 22.964844 15.769531 48.363281 27.660156 75.179688 35.199219 1.324218 13.007812 12.257812 22.914062 25.332031 22.957031h153.601562c13.070313-.042969 24-9.945313 25.332031-22.945313 30.292969-8.851562 74.4375-26.929687 104.421876-61.375zm47.3125-273.945312c-.113281.042969-.199219.125-.308594.175781-.199219.105469-.359375.207031-.5625.3125-.847656.464844-1.71875.886719-2.609375 1.261719-38.164062 18.304688-125.976562 30.132812-223.722656 30.132812s-185.558594-11.828124-224.144531-30.328124c-.777344-.328126-1.535157-.699219-2.273438-1.117188h-.003906c-.28125-.183594-.574219-.347656-.878906-.492188-8.523438-4.664062-11.632813-8.671874-11.632813-10.730468v-27.535156c44.816406 27.933593 167.515625 36.066406 238.933594 36.066406s194.117188-8.132813 238.933594-36.066406v27.535156c0 2.058594-3.117188 6.074218-11.730469 10.785156zm0 0"/><path d="m93.320312 311.367188c-4.675781.585937-7.992187 4.847656-7.40625 9.523437l8.019532 64.171875c.535156 4.265625 4.15625 7.46875 8.453125 7.476562.359375-.003906.71875-.023437 1.074219-.066406 4.675781-.585937 7.992187-4.851562 7.40625-9.527344l-8.019532-64.167968c-.609375-4.664063-4.859375-7.96875-9.527344-7.410156zm0 0"/><path d="m90.863281 291.433594c2.242188-.289063 4.28125-1.460938 5.664063-3.253906 1.382812-1.789063 1.996094-4.058594 1.707031-6.304688l-1.28125-9.898438c-.648437-4.648437-4.894531-7.925781-9.558594-7.375-2.242187.289063-4.28125 1.460938-5.664062 3.25-1.382813 1.792969-1.996094 4.0625-1.707031 6.308594l1.28125 9.898438c.546874 4.25 4.164062 7.433594 8.449218 7.441406.371094 0 .738282-.023438 1.109375-.066406zm0 0"/></svg>