<svg height="512pt" viewBox="-165 0 512 512" width="512pt" xmlns="http://www.w3.org/2000/svg"><path d="m163.183594 171.746094c-5.898438-7.492188-12.796875-13.898438-20.429688-19.101563l23.8125-55.699219c10.566406-24.722656 11.492188-52.839843 2.359375-71.632812-5.40625-11.125-13.949219-18.53125-24.703125-21.414062-9.789062-2.625-20.015625-.960938-29.453125 4.554687-6.875-5.523437-14.84375-8.453125-23.359375-8.453125-8.527344 0-16.503906 2.929688-23.378906 8.453125-9.433594-5.511719-19.65625-7.175781-29.4375-4.554687-10.753906 2.882812-19.296875 10.289062-24.703125 21.414062-9.132813 18.792969-8.207031 46.910156 2.359375 71.632812l23.804688 55.6875c-7.835938 5.347657-14.890626 11.964844-20.894532 19.726563-17.453125 22.5625-23.347656 51.34375-16.175781 78.960937l61.953125 238.53125c3.449219 13.277344 14.925781 22.148438 28.605469 22.148438h.269531c13.800781-.117188 25.253906-9.214844 28.496094-22.632812l57.902344-239.550782c6.632812-27.4375.425781-55.894531-17.027344-78.070312zm-119.347656-86.59375c-5.96875-13.964844-8.90625-34.5-2.960938-46.726563 2.277344-4.691406 4.695312-5.339843 5.492188-5.550781 4.695312-1.261719 10.226562 4.015625 12.386718 6.339844 4.667969 5.027344 12.144532 6.234375 18.167969 2.949218 2.40625-1.308593 4.335937-3.210937 5.671875-5.441406 2.035156-3.136718 5.160156-6.722656 8.816406-6.722656 3.753906 0 6.964844 3.824219 8.996094 7.03125 3.597656 5.6875 10.542969 8.269531 16.988281 6.332031 2.734375-.820312 5.097657-2.378906 6.902344-4.410156 2.296875-2.425781 7.609375-7.300781 12.15625-6.078125.792969.210938 3.210937.859375 5.492187 5.550781 5.941407 12.222657 3.003907 32.761719-2.964843 46.726563l-23.488281 54.9375c-7.742188-2.101563-15.824219-3.199219-24.082032-3.199219-8.269531 0-16.351562 1.09375-24.09375 3.195313zm49.710937 395.515625-28.410156-109.386719h11.003906c8.285156 0 15-6.714844 15-15s-6.714844-15-15-15h-18.796875l-25.324219-97.503906c-.773437-2.980469-1.296875-5.988282-1.621093-8.988282h30.375c8.285156 0 15-6.71875 15-15 0-8.285156-6.714844-15-15-15h-26.054688c2.066406-4.960937 4.785156-9.695312 8.171875-14.078124 11.710937-15.136719 29.394531-23.820313 48.519531-23.820313 18.921875 0 36.488282 8.53125 48.199219 23.410156 11.730469 14.902344 15.898437 34.027344 11.441406 52.46875l-3.449219 14.277344h-30.507812c-8.28125 0-15 6.71875-15 15 0 8.285156 6.71875 15 15 15h23.253906zm0 0"/></svg>