<svg height="512pt" viewBox="-98 0 512 512" width="512pt" xmlns="http://www.w3.org/2000/svg"><path d="m152.550781 298.003906h10.246094c4.140625 0 7.5-3.359375 7.5-7.5 0-4.144531-3.359375-7.5-7.5-7.5h-10.246094c-4.144531 0-7.5 3.355469-7.5 7.5 0 4.140625 3.355469 7.5 7.5 7.5zm125.445313-74.914062-44.734375-18.503906c-7.996094-3.308594-13.160157-11.035157-13.160157-19.691407v-75.832031h.152344c17.902344 0 32.46875-14.566406 32.46875-32.46875v-21.304688c0-4.140624-3.355468-7.5-7.5-7.5-4.140625 0-7.5 3.359376-7.5 7.5v21.304688c0 9.632812-7.835937 17.46875-17.46875 17.46875h-10.488281v-39.53125c0-4.140625-3.359375-7.5-7.5-7.5-4.144531 0-7.5 3.359375-7.5 7.5v39.53125h-29.59375v-39.53125c0-4.140625-3.355469-7.5-7.5-7.5-4.140625 0-7.5 3.359375-7.5 7.5v39.53125h-29.589844v-39.53125c0-4.140625-3.359375-7.5-7.5-7.5-4.144531 0-7.5 3.359375-7.5 7.5v39.53125h-10.492187c-9.632813 0-17.46875-7.835938-17.46875-17.46875v-36.359375c0-13.914063 11.320312-25.234375 25.234375-25.234375h109.636719c8.214843 0 15.941406 4.023438 20.671874 10.761719 2.378907 3.390625 7.058594 4.207031 10.445313 1.828125 3.390625-2.378906 4.210937-7.058594 1.832031-10.445313-7.53125-10.738281-19.851562-17.144531-32.949218-17.144531h-109.636719c-22.183594 0-40.234375 18.050781-40.234375 40.234375v36.359375c0 17.902344 14.566406 32.46875 32.46875 32.46875h.15625v75.832031c0 8.652344-5.167969 16.382813-13.164063 19.691407l-44.734375 18.503906c-22.6875 9.382812-37.347656 31.3125-37.347656 55.863281v144.9375c0 4.144531 3.359375 7.5 7.5 7.5s7.5-3.355469 7.5-7.5v-144.9375c0-18.460937 11.023438-34.945313 28.082031-42.003906l44.734375-18.503907c13.625-5.636718 22.429688-18.804687 22.429688-33.550781v-9.34375c6.066406.261719 11.945312 1.445313 18.476562 2.773438 8.332032 1.691406 17.78125 3.613281 28.953125 3.613281 11.167969 0 20.617188-1.921875 28.949219-3.613281 6.53125-1.328125 12.410156-2.511719 18.476562-2.769531v9.339843c0 14.746094 8.804688 27.914063 22.429688 33.550781l44.734375 18.503907c17.058594 7.058593 28.082031 23.542969 28.082031 42.003906v163.015625c0 30.34375-24.6875 55.03125-55.035156 55.03125h-175.28125c-24.214844 0-45.917969-16.199219-52.78125-39.394531-1.175781-3.972657-5.34375-6.242188-9.316406-5.066407-3.972656 1.175782-6.242188 5.347657-5.066406 9.320313 8.730468 29.523437 36.351562 50.140625 67.164062 50.140625h175.28125c38.617188 0 70.035156-31.417969 70.035156-70.03125v-163.015625c0-24.550781-14.660156-46.480469-37.351562-55.863281zm-72.894532-62.550782c-7.582031.269532-14.613281 1.691407-21.464843 3.085938-8.015625 1.628906-16.300781 3.3125-25.964844 3.3125-9.660156 0-17.949219-1.683594-25.964844-3.3125-6.851562-1.394531-13.878906-2.816406-21.460937-3.085938v-51.476562h94.855468zm-155.886718 175.707032c0-4.015625-3.253906-7.269532-7.269532-7.269532-4.015624 0-7.269531 3.253907-7.269531 7.269532 0 4.011718 3.253907 7.269531 7.269531 7.269531 4.015626 0 7.269532-3.257813 7.269532-7.269531zm240.792968 95.355468c0-4.015624-3.253906-7.269531-7.269531-7.269531s-7.269531 3.253907-7.269531 7.269531c0 4.015626 3.253906 7.269532 7.269531 7.269532s7.269531-3.253906 7.269531-7.269532zm-179.167968-46.683593c-6.414063 4.300781-16.105469 10.800781-9.429688 22.589843 3.441406 6.074219 10.375 10.105469 19.527344 11.351563 1.917969.261719 4.003906.398437 6.230469.398437 15.765625 0 38.5625-6.996093 59.011719-27.445312 7.683593-7.683594 11.851562-18.265625 11.148437-28.304688-.390625-5.582031-2.289063-10.765624-5.46875-15.175781 4.097656-2.617187 8.996094-4.003906 16.71875-4.003906 4.140625 0 7.5-3.359375 7.5-7.5 0-4.144531-3.359375-7.5-7.5-7.5-12.085937 0-20.558594 2.632813-28.582031 9.117187-6.90625-3.386718-14.722656-4.210937-22.199219-2.203124-9.863281 2.648437-17.957031 9.933593-22.207031 19.980468-7.152344 16.894532-17.320313 23.714844-24.75 28.695313zm38.5625-22.851563c2.476562-5.847656 6.835937-9.875 12.289062-11.339844 5.003906-1.34375 10.355469-.25 14.671875 3 3.671875 2.769532 5.691407 6.410157 6.003907 10.832032.394531 5.679687-2.207032 12.058594-6.792969 16.644531-18.210938 18.207031-39.554688 24.566406-52.613281 22.792969-4.554688-.621094-7.164063-2.128906-8.21875-3.464844 1.105468-.910156 2.980468-2.167969 4.453124-3.152344 7.972657-5.347656 21.316407-14.292968 30.207032-35.3125zm103.089844-99.015625c0-4.015625-3.253907-7.269531-7.269532-7.269531-4.011718 0-7.269531 3.253906-7.269531 7.269531s3.257813 7.269531 7.269531 7.269531c4.015625 0 7.269532-3.253906 7.269532-7.269531zm-93.082032 212.277344c0 4.015625 3.253906 7.269531 7.269532 7.269531 4.015624 0 7.269531-3.253906 7.269531-7.269531 0-4.011719-3.253907-7.265625-7.269531-7.265625-4.015626 0-7.269532 3.253906-7.269532 7.265625zm-45.542968-195.601563c-.1875.902344-1.117188 1.585938-2.167969 1.585938h-18.511719c-17.144531 0-31.09375 13.949219-31.09375 31.097656v107.984375c0 17.144531 13.949219 31.097657 31.09375 31.097657h128.96875c17.148438 0 31.097656-13.949219 31.097656-31.097657v-107.984375c0-17.148437-13.949218-31.097656-31.097656-31.097656h-18.511719c-1.046875 0-1.980469-.683594-2.167969-1.585938-4.265624-20.65625-22.6875-35.644531-43.804687-35.644531s-39.539063 14.988281-43.804687 35.644531zm43.804687-20.644531c14.039063 0 26.28125 9.957031 29.117187 23.679688 1.621094 7.851562 8.710938 13.550781 16.855469 13.550781h18.511719c8.875 0 16.097656 7.222656 16.097656 16.097656v107.984375c0 8.875-7.222656 16.097657-16.097656 16.097657h-128.96875c-8.875 0-16.09375-7.222657-16.09375-16.097657v-107.984375c0-8.878906 7.21875-16.097656 16.09375-16.097656h18.511719c8.148437 0 15.238281-5.699219 16.859375-13.554688 2.832031-13.71875 15.078125-23.675781 29.113281-23.675781zm-9.621094-50.898437c0-4.011719-3.253906-7.269532-7.269531-7.269532s-7.269531 3.257813-7.269531 7.269532c0 4.015625 3.253906 7.269531 7.269531 7.269531s7.269531-3.253906 7.269531-7.269531zm0 0"/></svg>