<?xml version="1.0" encoding="iso-8859-1"?>
<!-- Generator: Adobe Illustrator 19.0.0, SVG Export Plug-In . SVG Version: 6.00 Build 0)  -->
<svg version="1.1" id="Capa_1" xmlns="http://www.w3.org/2000/svg" xmlns:xlink="http://www.w3.org/1999/xlink" x="0px" y="0px"
	 viewBox="0 0 512.115 512.115" style="enable-background:new 0 0 512.115 512.115;" xml:space="preserve">
<g transform="translate(-1)">
	<g>
		<g>
			<path d="M504.579,494.983h-25.6c-4.713,0-8.533,3.82-8.533,8.533s3.82,8.533,8.533,8.533h25.6c4.713,0,8.533-3.82,8.533-8.533
				S509.292,494.983,504.579,494.983z"/>
			<path d="M444.846,494.983h-64.947l60.954-327.612l56.431,93.107c1.582,2.607,4.435,4.171,7.483,4.104
				c3.048-0.067,5.83-1.755,7.296-4.429c1.466-2.674,1.395-5.926-0.187-8.533l-67.234-110.933c-1.548-2.549-4.314-4.105-7.296-4.105
				c-0.222,0-0.427,0.068-0.649,0.085c-0.222,0.017-0.247-0.085-0.384-0.085h-9.259c-6.161-38.34-53.205-68.267-110.208-68.267
				c-18.979-0.071-37.799,3.453-55.467,10.385c-17.66-6.957-36.486-10.482-55.467-10.385c-16.493-0.045-32.882,2.603-48.521,7.842
				L85.695,4.999c-6.682-6.579-17.407-6.579-24.09,0L49.522,16.997c-3.212,3.185-5.018,7.521-5.018,12.045s1.807,8.859,5.018,12.045
				l63.147,62.626c-8.804,9.021-14.711,20.468-16.964,32.87H77.913c-0.154,0-0.282,0.085-0.435,0.094s-0.486-0.094-0.742-0.094
				c-2.984,0.001-5.75,1.561-7.296,4.113L2.35,251.629c-1.674,2.61-1.8,5.922-0.33,8.652s4.305,4.448,7.406,4.487
				s5.978-1.607,7.516-4.299l56.405-93.252l60.979,327.765H9.646c-4.713,0-8.533,3.82-8.533,8.533s3.82,8.533,8.533,8.533h435.2
				c4.713,0,8.533-3.82,8.533-8.533S449.559,494.983,444.846,494.983z M316.846,85.383c47.198,0,86.255,22.298,92.8,51.2h-17.869
				c-7.287-17.493-36.002-34.133-74.931-34.133c-5.888,0.042-11.767,0.483-17.596,1.323c-4.982-5.321-10.579-10.031-16.674-14.029
				C293.773,86.868,305.286,85.403,316.846,85.383z M371.263,136.583h-55.142c-0.987-5.854-2.875-11.519-5.598-16.794
				c2.108-0.119,4.224-0.273,6.323-0.273C336.456,118.403,355.801,124.47,371.263,136.583z M157.597,93.984
				c0.434-0.125,0.857-0.288,1.263-0.486c15.083-5.457,31.013-8.204,47.053-8.115c17.73-0.143,35.313,3.234,51.729,9.933
				c0.374,0.2,0.765,0.365,1.169,0.495c11.539,4.737,21.828,12.076,30.063,21.444c0.085,0.137,0.196,0.239,0.29,0.375
				c4.618,5.486,7.889,11.976,9.549,18.953h-17.869c-7.287-17.493-36.002-34.133-74.931-34.133s-67.644,16.64-74.931,34.133h-17.869
				c4.096-18.082,20.907-33.527,44.51-42.598H157.597z M260.33,136.583H151.496c15.462-12.112,34.807-18.179,54.417-17.067
				C225.523,118.403,244.867,124.47,260.33,136.583z M61.554,29.106l12.092-11.989l66.688,66.185
				c-5.204,2.63-10.189,5.672-14.908,9.096L61.554,29.106z M422.207,153.65l-54.34,89.865c-1.46,2.474-4.116,3.995-6.989,4.002
				H153.194c-2.882,0.003-5.551-1.519-7.014-4.002L91.865,153.65H422.207z M95.398,192.468l36.215,59.878
				c4.575,7.555,12.748,12.19,21.581,12.237h207.684c8.835-0.047,17.01-4.681,21.589-12.237l36.42-60.228L387.946,358.45h-54.536
				c-4.461-38.763-37.278-68.021-76.297-68.021s-71.836,29.258-76.297,68.021H126.28L95.398,192.468z M316.846,366.983
				c0,32.99-26.744,59.733-59.733,59.733s-59.733-26.744-59.733-59.733s26.744-59.733,59.733-59.733
				C290.087,307.287,316.809,334.009,316.846,366.983z M151.684,494.983l-22.229-119.467h51.362
				c4.46,38.763,37.278,68.021,76.297,68.021s71.836-29.258,76.297-68.021h51.362l-22.229,119.467H151.684z"/>
		</g>
	</g>
</g>
<g>
</g>
<g>
</g>
<g>
</g>
<g>
</g>
<g>
</g>
<g>
</g>
<g>
</g>
<g>
</g>
<g>
</g>
<g>
</g>
<g>
</g>
<g>
</g>
<g>
</g>
<g>
</g>
<g>
</g>
</svg>
