<?xml version="1.0" encoding="iso-8859-1"?>
<!-- Generator: Adobe Illustrator 21.0.0, SVG Export Plug-In . SVG Version: 6.00 Build 0)  -->
<svg xmlns="http://www.w3.org/2000/svg" xmlns:xlink="http://www.w3.org/1999/xlink" version="1.1" id="Capa_1" x="0px" y="0px" viewBox="0 0 511.995 511.995" style="enable-background:new 0 0 511.995 511.995;" xml:space="preserve" width="512" height="512">
<g>
	<path d="M454.742,290.139l-5.829-2.416c0.52-21.267-5.866-39.495-18.574-52.807c-4.774-5.001-10.369-9.234-16.63-12.638   c8.238-9.361,13.242-21.243,13.288-33.955c0.044-12.04-5.372-48.341-69.474-60.338c2.989-5.809,5.243-12.281,6.71-19.344   c3.907-18.814,1.565-37.98-1.087-50.746c-1.907-9.176-12.609-55.085-36.144-57.777c-6.592-0.757-15.292,2.017-19.926,12.052   c-18.006,38.991-56.07,48.837-96.369,59.261c-38.913,10.065-79.151,20.474-98.521,59.157   c-10.383,20.737-11.186,54.227,3.925,85.524c-16.224,4.15-30.341,12.325-39.956,23.54c-11.373,13.265-16.025,29.93-13.533,48.262   l-5.369,2.226c-7.64,3.167-11.275,11.92-8.126,19.568l79.475,193c2.314,5.621,7.792,9.289,13.87,9.289h227.016   c6.077,0,11.554-3.667,13.869-9.287l79.51-192.999C466.017,302.061,462.382,293.306,454.742,290.139z M98.93,259.178   c8.544-9.964,24.673-16.154,42.094-16.154c25.36,0,41.086-14.692,54.961-27.655c15.368-14.358,28.641-26.761,55.781-24.979   c8.266,0.543,15.407-5.72,15.949-13.986s-5.72-15.407-13.986-15.949c-40.091-2.621-61.236,17.123-78.225,32.993   c-10.723,10.018-18.124,16.539-27.276,18.74c-16.693-26.21-15.82-54.98-9.215-68.169c13.261-26.486,43.821-34.391,79.207-43.544   c38.696-10.009,82.021-21.218,107.852-60.785c5.715,13.079,11.793,35,9.88,55.458c-1.433,15.319-6.995,25.879-16.533,31.386   c-5.748,3.318-8.632,10.021-7.089,16.477c1.542,6.456,7.145,11.13,13.772,11.491c52.407,2.858,70.945,19.947,70.896,33.713   c-0.038,10.564-10.456,22.793-25.461,23.979c-23.938-1.556-73.758,0.302-115.779,16.866c-7.707,3.038-11.492,11.749-8.454,19.456   c2.326,5.901,7.979,9.503,13.959,9.503c1.83,0,3.691-0.337,5.497-1.049c32.416-12.779,75.627-16.63,102.729-14.846   c0.596,0.072,1.198,0.121,1.813,0.121c15.836,0,29.097,4.754,37.338,13.387c4.849,5.079,7.991,11.547,9.423,19.303l-11.571-4.796   c-3.678-1.524-7.811-1.524-11.488,0l-42.506,17.619l-42.506-17.619c-3.678-1.524-7.811-1.524-11.488,0l-42.506,17.619   l-42.505-17.619c-3.677-1.524-7.81-1.524-11.488,0l-42.507,17.62l-42.506-17.62c-3.678-1.524-7.811-1.524-11.488,0l-13.455,5.577   C92.547,269.426,94.826,263.965,98.93,259.178z M270.998,481.995V314.015l33.25-13.783l31.312,12.979l-29.492,168.783H270.998z    M208.246,481.995l-31.663-168.844l31.165-12.918l33.249,13.782v167.98H208.246z M82.566,312.122l28.682-11.89l35.12,14.558   l31.355,167.205h-25.206L82.566,312.122z M359.444,481.995h-22.921l29.224-167.254l35-14.509l28.68,11.889L359.444,481.995z"/>
</g>















</svg>
