<?xml version="1.0" encoding="iso-8859-1"?>
<!-- Generator: Adobe Illustrator 19.0.0, SVG Export Plug-In . SVG Version: 6.00 Build 0)  -->
<svg version="1.1" id="Capa_1" xmlns="http://www.w3.org/2000/svg" xmlns:xlink="http://www.w3.org/1999/xlink" x="0px" y="0px"
	 viewBox="0 0 512 512" style="enable-background:new 0 0 512 512;" xml:space="preserve">
<g>
	<g>
		<path d="M411.564,113.563c-0.001,0-0.001,0-0.002,0l-15.161-2.933l6.057-25.638c1.086-4.582-1.749-9.177-6.331-10.263
			c-0.012-0.003-0.024-0.006-0.036-0.008l-29.158-6.805V19.029c0-4.713-3.82-8.533-8.533-8.533h-34.133
			c-4.713,0-8.533,3.821-8.533,8.533V76.8h-17.067v-8.533c0-4.713-3.82-8.533-8.533-8.533h-25.6v-51.2C264.533,3.82,260.712,0,256,0
			h-34.133c-4.713,0-8.533,3.82-8.533,8.533v101.465l-8.533,1.651V36.096c0-4.713-3.82-8.533-8.533-8.533h-34.133
			c-4.713,0-8.533,3.82-8.533,8.533V76.8H128c-4.713,0-8.533,3.82-8.533,8.533v24.549l-19.033,3.68
			c-4.626,0.899-7.649,5.377-6.754,10.004l22.491,116.08c-1.195,0.486-2.264,1.238-3.124,2.2c-1.621,1.851-2.364,4.311-2.037,6.75
			l34.133,256c0.567,4.238,4.182,7.403,8.458,7.404h5.542c4.183-0.05,8.296-1.085,12.004-3.021
			c17.204-8.663,49.717-14.046,84.854-14.046c35.138,0,67.65,5.383,84.854,14.046c3.708,1.936,7.821,2.971,12.004,3.021h5.542
			c4.276-0.001,7.891-3.166,8.458-7.404l34.133-256c0.542-3.815-1.588-7.508-5.161-8.95l22.491-116.08
			C419.217,118.939,416.193,114.46,411.564,113.563z M332.8,27.563h17.067v57.256L332.8,157.497V27.563z M332.8,232.159
			l34.442-146.646l16.642,3.883l-4.251,17.99l-1.607-0.311c-4.628-0.895-9.105,2.131-10,6.758l-24.177,125.1H332.8V232.159z
			 M298.666,166.804l8.379-43.241c0.896-4.626-2.129-9.102-6.755-9.998c-0.011-0.002-0.022-0.004-0.033-0.006l-1.592-0.308V93.867
			h17.067v143.104h-17.067V166.804z M264.533,76.8H281.6v33.149l-14.842-2.87c-0.739-0.097-1.487-0.094-2.225,0.008V76.8z
			 M256.017,207.704c0.029-0.158,0.054-0.325,0.075-0.492l15.792-81.75l16.779,3.267l-21.354,110.204h-17.344L256.017,207.704z
			 M230.4,17.067h17.067v143.289l-9.033-46.526c-0.431-2.229-1.732-4.193-3.617-5.458c-1.324-0.832-2.853-1.278-4.417-1.286V17.067z
			 M223.312,125.492l15.641,80.545l-6.377,32.896h-4.694l-21.358-110.221L223.312,125.492z M204.8,209.544l5.694,29.39H204.8
			V209.544z M323.301,256l-9.173,85.333h-18.663c-20.487-21.796-54.764-22.857-76.56-2.369c-0.814,0.765-1.604,1.555-2.369,2.369
			h-18.663L188.699,256H323.301z M290.133,371.2c-1.275,17.625-16.495,30.943-34.133,29.867
			c-17.638,1.076-32.859-12.241-34.133-29.867c1.275-17.625,16.495-30.943,34.133-29.867
			C273.638,340.257,288.858,353.575,290.133,371.2z M170.666,44.629h17.067v194.304h-17.067V44.629z M136.533,93.867H153.6v69.773
			l-9.625-49.807c-0.719-3.643-3.745-6.382-7.442-6.735V93.867z M112.058,128.696l16.779-3.258l21.966,113.496h-17.384
			L112.058,128.696z M129.212,256h42.323l9.173,85.333H140.59L129.212,256z M146.28,384l-3.413-25.6h63.918
			c-2.647,8.328-2.647,17.272,0,25.6H146.28z M163.471,493.737c-0.775,0.399-1.591,0.713-2.433,0.938l-12.482-93.608h38.508
			l8.838,82.378C184.697,485.48,173.798,488.939,163.471,493.737z M299.239,480.616c-28.71-3.666-57.769-3.666-86.479,0h0
			l-8.535-79.549h12.31c20.487,21.796,54.764,22.857,76.56,2.369c0.814-0.765,1.604-1.555,2.369-2.369h12.31L299.239,480.616z
			 M350.962,494.675c-0.842-0.225-1.658-0.539-2.433-0.938c-10.328-4.799-21.226-8.258-32.431-10.293l8.838-82.378h38.508
			L350.962,494.675z M365.72,384h-60.505c2.647-8.328,2.647-17.272,0-25.6h63.918L365.72,384z M371.409,341.333H331.29L340.464,256
			h42.324L371.409,341.333z M378.58,238.933h-17.347l21.929-113.479l0.908,0.176l0.017,0.008l0.028,0.001l15.826,3.061
			L378.58,238.933z"/>
	</g>
</g>
<g>
</g>
<g>
</g>
<g>
</g>
<g>
</g>
<g>
</g>
<g>
</g>
<g>
</g>
<g>
</g>
<g>
</g>
<g>
</g>
<g>
</g>
<g>
</g>
<g>
</g>
<g>
</g>
<g>
</g>
</svg>
