<?xml version="1.0" encoding="iso-8859-1"?>
<!-- Generator: Adobe Illustrator 19.0.0, SVG Export Plug-In . SVG Version: 6.00 Build 0)  -->
<svg xmlns="http://www.w3.org/2000/svg" xmlns:xlink="http://www.w3.org/1999/xlink" version="1.1" id="Layer_1" x="0px" y="0px" viewBox="0 0 512.002 512.002" style="enable-background:new 0 0 512.002 512.002;" xml:space="preserve" width="512" height="512">
<g>
	<path d="M284.642,326.002c-5.52,0-10,4.48-10,10s4.48,10,10,10s10-4.48,10-10S290.162,326.002,284.642,326.002z"/>
	<path d="M264.642,386.002c-5.52,0-10,4.48-10,10s4.48,10,10,10s10-4.48,10-10S270.162,386.002,264.642,386.002z"/>
	<path d="M184.642,306.002c5.52,0,10-4.48,10-10s-4.48-10-10-10s-10,4.48-10,10S179.122,306.002,184.642,306.002z"/>
	<path d="M187.096,20.308l-79-20c-5.346-1.354-10.792,1.885-12.148,7.24c-1.355,5.354,1.886,10.793,7.24,12.148l71.454,18.089   v62.216h-50c-5.522,0-10,4.477-10,10v372c0,16.542,13.458,30,30,30h160c16.542,0,30-13.458,30-30V130.715l41.209,41.209   c1.953,1.953,4.512,2.929,7.071,2.929c2.558,0,5.116-0.976,7.068-2.927c35.16-35.137,35.163-92.113,0.003-127.274   C354.857,9.513,297.9,9.449,262.719,44.654c-3.903,3.906-3.902,10.235,0.002,14.14l41.209,41.209H194.642v-70   C194.642,25.425,191.534,21.431,187.096,20.308z M174.642,120.002v40h-40v-40H174.642z M184.642,266.002c5.522,0,10-4.477,10-10   v-76h120v241.947c-20.788,18.877-54.05,30.053-90,30.053s-69.212-11.176-90-30.053V180.002h40v76   C174.642,261.525,179.12,266.002,184.642,266.002z M304.642,492.002h-160c-5.514,0-10-4.486-10-10v-34.864   c23.92,15.794,56.064,24.864,90,24.864s66.08-9.07,90-24.864v34.864C314.642,487.516,310.156,492.002,304.642,492.002z    M336.642,39.035c11.508,1.687,22.328,6.199,31.635,13.191L336.642,83.86V39.035z M395.61,98.002h-44.826l31.635-31.634   C389.411,75.675,393.923,86.495,395.61,98.002z M382.427,150.215l-32.213-32.223h45.469   C394.065,129.719,389.537,140.755,382.427,150.215z M316.642,38.96v45.47l-32.213-32.213   C293.889,45.107,304.915,40.579,316.642,38.96z M314.642,120.002v40h-120v-40H314.642z"/>
	<path d="M174.642,356.002v40c0,5.523,4.478,10,10,10h40c5.522,0,10-4.477,10-10v-40c0-5.523-4.478-10-10-10h-40   C179.12,346.002,174.642,350.479,174.642,356.002z M194.642,366.002h20v20h-20V366.002z"/>
	<path d="M257.571,291.353c1.953,1.953,4.512,2.929,7.071,2.929s5.118-0.976,7.071-2.929l28.28-28.28   c1.875-1.875,2.929-4.419,2.929-7.071s-1.054-5.196-2.929-7.071l-28.28-28.28c-3.906-3.905-10.236-3.905-14.143,0l-28.28,28.28   c-1.875,1.875-2.929,4.419-2.929,7.071s1.054,5.196,2.929,7.071L257.571,291.353z M264.642,241.864l14.138,14.138l-14.138,14.138   l-14.138-14.138L264.642,241.864z"/>
</g>















</svg>
