<?xml version="1.0" encoding="iso-8859-1"?>
<!-- Generator: Adobe Illustrator 18.0.0, SVG Export Plug-In . SVG Version: 6.00 Build 0)  -->
<!DOCTYPE svg PUBLIC "-//W3C//DTD SVG 1.1//EN" "http://www.w3.org/Graphics/SVG/1.1/DTD/svg11.dtd">
<svg version="1.1" id="Capa_1" xmlns="http://www.w3.org/2000/svg" xmlns:xlink="http://www.w3.org/1999/xlink" x="0px" y="0px"
	 viewBox="0 0 297 297" style="enable-background:new 0 0 297 297;" xml:space="preserve">
<g>
	<path d="M224.548,179.498l-33.26-42.581c-3.837-4.914-7.332-15.065-7.332-21.299V24.662C183.956,11.064,172.893,0,159.294,0
		h-21.588c-13.6,0-24.662,11.064-24.662,24.662v90.957c0,6.233-3.495,16.385-7.332,21.298l-33.26,42.581
		c-6.794,8.698-10.525,23.466-8.68,34.349l10.232,60.292C76.179,286.958,88.069,297,101.073,297h94.854
		c13.002,0,24.893-10.041,27.068-22.861l10.232-60.291C235.074,202.966,231.343,188.198,224.548,179.498z M132.014,50.272h32.971
		v27.982h-32.971V50.272z M137.706,18.971h21.588c3.085,0,5.691,2.606,5.691,5.691v6.64h-32.971v-6.64
		C132.014,21.577,134.621,18.971,137.706,18.971z M214.522,210.673l-10.231,60.291c-0.627,3.698-4.614,7.065-8.364,7.065h-94.854
		c-3.751,0-7.737-3.367-8.364-7.064l-10.232-60.292c-0.945-5.569,1.448-15.046,4.926-19.498l33.259-42.58
		c6.473-8.286,11.353-22.463,11.353-32.976V97.226h32.971v18.393c0,10.514,4.88,24.689,11.353,32.976l33.259,42.581
		C213.074,195.628,215.469,205.104,214.522,210.673z"/>
	<path d="M172.451,187.811h-47.902c-13.599,0-24.662,11.064-24.662,24.662v32.251c0,13.599,11.063,24.662,24.662,24.662h47.902
		c13.599,0,24.662-11.063,24.662-24.662v-32.251C197.113,198.875,186.05,187.811,172.451,187.811z M178.141,244.725
		c0,3.085-2.606,5.691-5.69,5.691h-47.902c-3.084,0-5.69-2.606-5.69-5.691v-32.251c0-3.084,2.606-5.691,5.69-5.691h47.902
		c3.084,0,5.69,2.607,5.69,5.691V244.725z"/>
</g>
<g>
</g>
<g>
</g>
<g>
</g>
<g>
</g>
<g>
</g>
<g>
</g>
<g>
</g>
<g>
</g>
<g>
</g>
<g>
</g>
<g>
</g>
<g>
</g>
<g>
</g>
<g>
</g>
<g>
</g>
</svg>
