<svg height="510pt" viewBox="-8 0 510 510.80946" width="510pt" xmlns="http://www.w3.org/2000/svg"><path d="m8.480469 289.113281c.570312 4.324219 3.351562 8.042969 7.339843 9.8125l56.148438 25.941407 21.078125 111.445312c.476563 2.597656 2.152344 4.8125 4.519531 5.972656l137.046875 68.523438c-2.5-1.5625-4.015625-4.304688-4.011719-7.253906v-234.75l8.535157-13.652344 8.53125 13.652344v234.75c.007812 2.949218-1.507813 5.691406-4.007813 7.253906l137.042969-68.523438c2.371094-1.160156 4.046875-3.375 4.523437-5.972656l21.078126-111.445312h.085937l58.195313-26.878907c2.640624-1.214843 4.476562-3.691406 4.863281-6.570312l8.277343-58.027344c.488282-3.242187-.308593-6.546875-2.21875-9.214844l-38.738281-54.1875 14.164063-28.246093c1.214844-2.546876 1.601562-5.410157 1.109375-8.191407l-7.765625-38.65625c-.324219-1.519531-.933594-2.96875-1.792969-4.265625l48.820313-32.25c2.695312-1.609375 4.285156-4.566406 4.144531-7.703125s-1.988281-5.941406-4.816407-7.304687c-2.828124-1.363282-6.171874-1.066406-8.714843.777344l-57.726563 38.144531-54.152344-13.511719c-1.351562-.246094-2.730468-.316406-4.097656-.210938l50.125-54.152343c2.121094-2.230469 2.878906-5.429688 1.980469-8.375-.898437-2.941407-3.308594-5.175781-6.316406-5.839844-3.003907-.667969-6.132813.335937-8.191407 2.625l-64.238281 69.402344-32.496093 4.660156c-1.335938.1875-2.632813.589844-3.839844 1.195313l-63.828125 31.914062-63.828125-31.914062c-1.234375-.617188-2.5625-1.019532-3.925782-1.195313l-58.285156-8.363281c-1.625-.171875-3.265625-.085938-4.863281.253906l-64.851563 16.214844c-4.773437 1.21875-8.425781 5.066406-9.386718 9.898437l-7.765625 38.65625c-.496094 2.78125-.105469 5.644531 1.109375 8.191407l14.164062 28.246093-38.742187 54.1875c-1.90625 2.667969-2.7031252 5.972657-2.21875 9.214844zm161.449219 141.484375c-1.414063 2.894532-4.371094 4.71875-7.59375 4.691406-1.339844.015626-2.660157-.308593-3.839844-.9375l-34.132813-17.066406c-3.832031-2.304687-5.234375-7.175781-3.214843-11.164062 2.015624-3.988282 6.769531-5.746094 10.894531-4.027344l34.132812 17.066406c2.023438 1.011719 3.554688 2.789063 4.261719 4.9375.703125 2.144532.523438 4.484375-.507812 6.5zm258.132812-329.644531 6.914062 34.476563-12.628906 25.257812-65.605468-17.921875 70.246093-42.09375zm-29.269531 70.914063-151.125 54.953124v-18.6875l88.824219-53.222656zm-134.269531 6.277343 31.65625-34.207031 17.488281 4.761719zm-16.855469-6.910156v-40.5l29.945312 8.148437zm212.90625 61.386719-7.335938 51.800781-57.429687 26.535156-1.28125.597657-44.289063 20.394531-62.460937-31.230469-35.839844-57.257812 171.773438-62.464844zm-93.863281-147.027344 36.871093 9.214844-69.640625 41.738281-24.679687-6.75 38.402343-41.5zm-56.75 8.105469 10.90625-1.5625-30.171876 32.609375-27.75-7.578125zm-259.753907 7.253906 61.355469-15.359375 56.746094 8.105469 47.019531 23.46875-159.402344 43.519531-12.628906-25.257812zm4.351563 80.042969 171.691406 62.464844-35.753906 57.257812-62.464844 31.230469-44.03125-20.308594-1.878906-.851563-57.085938-26.367187-7.339844-51.800781zm0 0"/></svg>