<?xml version="1.0" encoding="utf-8"?>
<!-- Generator: Adobe Illustrator 21.0.2, SVG Export Plug-In . SVG Version: 6.00 Build 0)  -->
<svg version="1.1" id="Layer_1" xmlns="http://www.w3.org/2000/svg" xmlns:xlink="http://www.w3.org/1999/xlink" x="0px" y="0px"
	 viewBox="0 0 210.9 57.7" style="enable-background:new 0 0 210.9 57.7;" xml:space="preserve">
<style type="text/css">
	.st0{fill:#ff2a00;}
</style>
<path class="st0" d="M189.4,21.4L189.4,21.4L189.4,21.4L189.4,21.4z M190.7,20.4L190.7,20.4C190.7,20.4,190.7,20.4,190.7,20.4
	L190.7,20.4z M194.6,13.3c0,0,0,0.1,0,0.2c0,0,0.1,0,0.1,0c0,0.1,0,0.2-0.1,0.2l0.1,0.1c0,0.1,0,0.4,0,0.8c0,0,0,0,0,0
	c0,0,0.1,0,0.1,0.1v0h0c0,0-0.1,0-0.1,0v0.8c0,0,0,0,0,0.1c0,0,0,0.1,0,0.1v0.4l0,0c0,0.3,0,0.7,0,1.2c0,0.2,0,0.4,0,0.6v0.4
	l0.2,0.3v0.1l0,0c-0.1,0-0.1-0.1-0.1-0.1l0,0c0,0,0,0,0,0c0,0.1,0,0.3,0,0.4h0c0,0,0,0,0,0c0,0,0,0,0,0c0,0,0,0,0,0v0c0,0,0,0,0,0
	c0,0,0,0,0,0v0c0,0,0,0,0,0.1c0,0,0,0,0,0l0,0l0.1,0.2c0,0,0,0,0,0l0,0.1l0,0.1l0.1,0.1c0,0,0,0.1,0.1,0.1l0,0.1c0,0,0,0,0,0
	c0,0,0,0,0,0l0.1,0.1c0,0,0,0.1,0.1,0.1l0.1,0.1h0v0l0,0v0c0,0,0,0,0,0v0l0,0c0,0,0,0,0,0l0,0c0,0,0.1,0.1,0.1,0.1l0.1,0.1
	c0,0,0,0,0,0l0,0l0.1,0.1c0,0,0.1,0,0.1,0.1l0,0c0,0,0,0,0,0l0.2,0.1h0c0,0,0,0,0,0c0,0,0,0,0,0l0.1,0l0.1,0.1l0.1,0l0.1,0
	c0,0,0.1,0,0.1,0c0.1,0,0.2,0,0.3,0c0,0,0.1,0,0.2,0c0,0,0.1,0,0.1,0l0,0c0,0,0.1,0,0.1,0c0,0,0.1,0,0.2,0l0.2,0c0.1,0,0.2,0,0.2,0
	l0.2,0h0.2v-0.1h0c0.1,0,0.1,0,0.1,0.1v0h0c0,0,0.1,0,0.1,0h0c0.1,0,0.1,0,0.2,0c0,0,0.1,0.1,0.2,0.1c0,0,0-0.1,0.1-0.1l0.1-0.1v0
	l0.2-0.1l0.1,0c0,0,0,0,0,0c0,0-0.1,0-0.1-0.1v0l0.2,0.1c0,0,0,0,0,0c0,0,0.1,0,0.1,0l0,0.1c0,0,0.1,0,0.1-0.1l0.1,0l0.2,0
	c0.1,0,0.3,0,0.4-0.1c0.2,0,0.3-0.1,0.5-0.2c0.1,0,0.2,0,0.3,0l0,0l0,0c0,0,0,0,0-0.1l0.3,0h0.1l0,0c0,0,0-0.1,0-0.1v0.1
	c0,0,0,0,0.1,0c0,0,0,0,0-0.1c0,0,0,0,0,0c0,0-0.1-0.1,0-0.1c0-0.1,0.1,0,0.1-0.1c0-0.3,0-0.5,0-0.9c0,0,0,0,0,0c0-0.1,0-0.2,0-0.3
	c0,0,0,0,0.1,0c0,0,0-0.5,0-0.5h-0.1c0-0.1,0.1,0,0.1-0.1c-0.1,0,0-0.1-0.1-0.2c0,0,0,0,0.1,0c-0.1,0,0,0,0-0.1c0,0,0,0,0,0l0-0.1
	c0,0,0.1,0,0.1,0c0-0.2,0.1-1,0.1-1.1c-0.1,0,0,0.1-0.1,0.1c-0.1,0,0-0.1,0-0.1c0.1,0,0-0.1,0.2-0.1l-0.1,0l0,0c-0.1-0.2,0,0,0-0.2
	c0-0.1-0.1-0.2-0.1-0.2c0,0,0,0-0.1,0c0,0,0-0.1,0-0.1c0,0,0-0.1-0.1-0.1c0,0,0.1-0.1,0.1,0c0,0,0,0,0-0.1l0,0c0-0.1,0.1-0.1,0-0.2
	l0,0c0-0.1,0-0.1,0.1-0.1l0,0c0-0.1,0-0.1,0-0.2v0c-0.1-0.1,0-0.6-0.1-0.7c0,0,0.1,0,0.1,0c0-0.2,0-1,0-1.1l-0.1-0.1v-0.1h0.1
	c0,0-0.2-0.1-0.1-0.2c0-0.1,0-0.3,0-0.4c0,0,0,0,0.1,0c0,0,0,0,0,0c0,0,0-0.1,0,0c-0.1-0.1,0-0.2-0.1-0.3c-0.1,0-2.2-0.2-2.4-0.2
	c0,0,0-0.1,0-0.1c0,0-0.1,0,0,0.1l0.1,0c0,0.1,0,0,0,0.1c-0.1,0-0.1,0-0.1-0.1c0,0-0.1,0.1,0,0.1c0,0-0.1,0-0.1,0c0,0,0.1,0.1,0,0.1
	c-0.1,0.1,0.1,0.2,0,0.2h0c0,0,0,0.1,0,0.1c0,0,0.1,0,0.1,0c0,0,0,0.1,0,0.1l0.1,0.1c0,0.2,0,1.1,0,1.4l0,0c0,0.3,0,1,0,1.4
	c0,0,0.1,0,0.1,0c0,0,0,0,0.1,0.1l0,0c0,0,0,0,0,0l0,0v0l0,0c0,0-0.1-0.1-0.2-0.1c0,0,0,0.1-0.1,0.2c0,0,0.1,0,0.1,0
	c0,0.2,0,0,0.1,0.2c0,0.2,0,1.1-0.1,1.2c0.1,0.1,0,0.2,0.1,0.3h0c0,0.1,0,0.3,0,0.5h0c0,0,0,0.1-0.1,0.1l-0.1,0c0,0-0.1,0-0.1,0
	c0,0,0,0-0.1,0c0,0-0.1,0-0.1,0c0,0,0,0-0.1,0h-0.1c0,0,0,0,0,0h-0.1c0,0,0,0,0,0h0c0,0-0.1,0-0.1,0c0,0-0.1,0-0.1,0
	c0,0,0-0.1,0-0.1c0,0,0,0,0,0H199c0,0,0,0-0.1,0h-0.1c0,0-0.1,0-0.1,0h-0.1c-0.1,0-0.1,0-0.1,0l0,0.1c-0.1,0-0.1,0-0.1-0.1
	c0,0,0,0-0.1,0c0,0,0,0,0,0c0,0,0,0-0.1,0c0,0-0.1,0-0.1,0c0,0,0,0,0-0.1c0,0,0,0,0,0c0,0,0,0,0,0c0,0,0,0,0,0h-0.1c0,0,0-0.1,0-0.1
	l-0.1,0c0,0,0,0-0.1,0c-0.1,0-0.1-0.1-0.2-0.1c0,0,0,0,0,0v0h0v0h0c0,0,0,0,0,0h0c0,0,0,0,0,0h0l0,0v0c0,0,0,0,0,0l0,0v0
	c0,0,0,0,0,0v0v-0.1h0v-0.1l0,0c0,0,0,0,0,0c0,0,0,0,0,0c0,0,0,0,0,0c0,0,0,0,0,0c0,0,0,0-0.1,0c0,0,0,0,0,0v0c0,0,0,0,0,0
	c0,0,0-0.2-0.1-0.1c0,0,0.1-0.1,0.1-0.1c0,0,0-0.1,0-0.1l0,0c0-0.1,0-0.2-0.1-0.3l0,0c0-0.1,0-0.1,0.1-0.2l0,0.1c0-0.1,0-0.2,0-0.3
	c0,0-0.1,0-0.1,0.1c0,0,0,0-0.1,0.1h0c-0.1,0-0.2-0.1-0.1-0.2c0,0,0,0,0.1,0h0.2c0-0.2,0-0.9-0.1-1h0v0l0-0.3l0,0c0-0.3,0-0.7,0.1-1
	c0,0,0,0-0.1-0.1v0h0.1c0-0.1,0-0.2,0-0.3l0-1.4c-0.1-0.2,0-0.3-0.1-0.5c-0.1,0-2.2,0-2.3,0v-0.1c0,0,0,0.1,0,0.1h0.1
	c0,0.1,0,0,0,0.1c-0.1,0-0.1-0.1-0.1-0.2c0,0.1-0.1,0.1,0,0.2c0,0.1-0.1,0-0.1,0.1c0,0.1,0.1,0.1,0,0.2h0
	C194.6,13.3,194.7,13.2,194.6,13.3L194.6,13.3z M210.8,25c-3.3-0.4-7.7-0.9-10.9-1.2c-1.4,0-2.7,0-3.2,0l0,0c-0.1,0-0.2,0-0.2,0v0
	c0,0,0,0,0,0l0,0c-0.2,0-0.4,0-0.7,0l0-0.1h0v0c-0.4,0-0.7,0-0.9,0l-0.2,0l0,0c-0.4,0-0.8,0-1.1,0c-0.4,0-0.7,0-0.9,0
	c-0.1,0-0.2,0-0.3,0c0,0-0.1,0-0.1,0l0,0c0,0,0,0-0.1,0c0,0,0,0,0,0l0,0c0,0,0,0,0,0c0,0,0,0,0,0c-0.1,0-0.2,0-0.4,0l0,0h0l0,0
	c-1.4,0-2.5,0-3.5,0c0.1,0.9,0.1,1.9,0.1,2.9c0.7,0,1.5,0,2.6,0l2.2,0c0.7,0,1.9,0,2.9,0c2.2,0-0.2,0,3.1-0.1c0.1,0,0.2,0,0.8,0
	c1.2-0.1,4.1-0.5,10.9-1.2c0.1-0.1,0.1-0.1,0.2-0.2C210.9,25.2,210.8,25.1,210.8,25z M187.8,14.1L187.8,14.1v0.3c0,0-0.1,0-0.1,0
	c0,0,0,0.5,0,0.5l0.1,0c0,0.1-0.1,0-0.1,0.1c0.1,0,0,0.2,0,0.2c0,0,0,0,0,0c0,0,0,0,0,0.1c0,0,0,0,0,0l0,0.1c0,0-0.1,0-0.1,0
	c0,0.2,0.1,1.1,0.1,1.2c0.1,0,0-0.1,0.1-0.1c0,0,0.1-0.1,0.1-0.1l0-0.1v0l0,0c0,0,0,0.1,0,0.1c0,0.1-0.1,0.2-0.2,0.2
	c0,0,0,0.1-0.1,0.1l0.1,0l0,0c0.1,0.2,0,0,0,0.3c0,0.1,0.1,0.2,0.1,0.2c0,0,0,0,0.1,0c-0.1,0,0,0.1,0,0.1c0,0,0,0.1,0.1,0.1
	c0,0-0.1,0.1-0.1,0c0,0,0,0,0,0.1l0,0c0,0.1-0.1,0.2,0,0.2l0,0c0,0,0,0.1-0.1,0.1c0,0.1-0.1,0.1-0.1,0.2v0c0.1,0.1,0,0.6,0.2,0.7
	H188c0,0.2,0,1.2,0,1.3c0,0,0,0.1,0.1,0.2H188c0,0,0,0,0.1,0c0,0,0.1,0,0,0.1c0,0,0,0,0,0c0,0.1,0.1,0,0.1,0.1c0,0,0,0,0,0
	c0,0,0-0.1,0-0.1v0.1c0,0,0,0,0,0.1c0,0,0,0.1,0,0.1l0,0.1l0,0c0,0,0,0,0,0l0.1,0.4c0.1,0,0.6,0,1.2,0v0l0,0c0,0,0,0,0,0l-0.1-0.1
	c0,0,0,0,0,0v0c0,0,0,0,0.1,0c0,0,0,0,0,0c0.1,0,0.1,0.1,0.1,0.1l0.1-0.1l0,0v0c0,0,0,0,0,0c0,0.1,0,0.1-0.1,0.2c0.5,0,1,0,1,0
	c0,0,0,0.1,0,0.1c0,0,0-0.1,0-0.1h-0.1c0-0.1,0,0,0-0.1c0.1,0,0.1,0.1,0.1,0.1c0,0,0-0.1,0-0.1c0,0,0.1,0,0.1,0c0,0-0.1-0.1,0-0.1h0
	c0.1-0.1-0.1-1,0-1.1h0c0,0,0,0,0,0V20c0,0,0-0.1,0-0.1c0,0,0,0,0,0c0-0.4,0-0.8-0.1-0.9h0c0-0.4,0-1.2-0.1-1.6
	c0.1-0.1,0-0.1,0.1-0.2c0,0-0.1,0-0.1,0c0-0.2,0,0-0.1-0.2c0-0.1,0-0.4,0-0.7c0,0,0.1,0,0.1-0.1l0.1-0.1l0,0v0c0,0,0,0,0,0l0.1,0
	v-0.1c0,0,0,0,0,0h0c0,0,0,0,0,0l-0.1-0.1c0,0,0.1,0.1,0.1,0c0,0,0-0.1,0,0c0,0,0,0,0,0c0,0,0,0,0,0c0,0,0,0,0,0l0,0v0l0,0h0
	c0,0,0,0,0.1,0c0,0,0,0,0,0h0c0,0,0,0,0,0c0,0,0,0,0,0c0,0,0,0-0.1-0.1c0,0,0,0,0,0c0,0,0,0,0,0c0,0,0,0,0,0.1l0-0.1l0,0
	c0-0.1,0,0,0.1,0c0,0,0-0.1,0-0.1c0,0,0,0,0,0c0,0,0-0.1,0,0c0,0,0,0,0-0.1c0,0,0,0,0,0.1c0,0,0,0,0,0l0,0c0,0,0,0,0,0c0,0,0,0,0,0
	l0,0c0,0,0,0,0,0.1l0,0c0,0,0,0,0,0c0,0,0,0,0,0v0l0,0h0c0,0,0.1-0.1,0.2-0.1c0.1,0,0.1-0.1,0.1-0.1l0,0l0-0.1c0,0,0,0.2,0,0.2
	c0,0,0.2,0,0.3,0c0,0,0.1,0,0.1,0h0.1c0,0,0.1,0,0.1,0c0,0,0,0.1,0,0.1c0,0,0-0.1,0-0.1c0,0,0,0,0,0.1c0,0,0,0,0,0v-0.2l0,0v0
	c0,0,0-0.1,0.1-0.1c0.1,0,0.1,0,0.2,0c0,0,0,0,0,0c0,0,0,0,0,0c0,0,0,0,0,0c0,0,0,0,0,0h0c0,0,0.6-0.2,0.6-0.2v-1
	c0.1-0.5,0-0.7,0-0.8h0c0,0,0,0,0,0h0c0,0,0,0,0,0s0,0,0,0h0l0,0c0,0,0,0,0,0l0,0.1h0l0,0c0,0,0,0,0,0c0,0,0,0,0,0c0,0,0,0,0,0h0
	c0,0,0,0,0,0c0,0,0,0,0,0c0,0,0-0.1,0-0.1c0,0-0.1,0-0.1,0v0c0,0-0.1,0-0.1,0c0,0-0.1,0-0.1,0l0,0c0,0,0,0,0,0c0,0,0,0-0.1,0
	c0,0,0,0,0,0c0,0,0,0-0.1,0c0,0,0,0,0,0l0,0h-0.2c-0.1,0-0.2,0-0.3,0c-0.1,0-0.2,0-0.3,0c-0.1,0-0.2,0-0.2,0v0c0,0-0.1,0-0.2,0
	l-0.3,0c0,0-0.1,0-0.2,0c0,0,0,0-0.1,0c0,0,0,0-0.1,0l-0.1,0l-0.1,0c0,0-0.1,0-0.2,0c0,0,0,0.1,0,0.1c-0.1,0,0,0-0.1,0.1l-0.1,0
	v-0.1c0-0.1,0.1-0.3,0-0.5l0-0.2l0,0c0,0-1.8-0.1-2.2,0.1h0v0c0,0,0,0.1,0,0.1v-0.1c0,0,0,0-0.1,0l0,0.1c0,0,0,0,0,0
	c0,0,0.1,0.1,0,0.1c0,0.1-0.1,0-0.1,0.1C187.8,13.4,187.7,13.7,187.8,14.1z M88.7,15.9L88.7,15.9c0.1,0,0.1,0,0.1,0h0c0,0,0,0,0,0
	s0,0,0-0.1h0H88.7C88.8,15.9,88.7,15.9,88.7,15.9l-0.1,0.1h0l0,0c0,0,0-0.1,0-0.1c0-0.1,0-0.1,0.1-0.1c0,0,0,0,0,0h0.1
	c0,0-0.1,0-0.1-0.1c0,0-0.1,0-0.1,0.1c-0.1-0.1,0-0.2,0-0.2c-0.1,0-0.2,0.1-0.3,0v0c-0.1-0.1-0.1,0-0.2,0c-0.1,0-0.2,0.1-0.2,0l0,0
	c0,0-0.1,0-0.1,0c0,0-0.1,0-0.2,0c0,0,0,0.1,0,0.1c0,0-0.1,0-0.2,0c0,0-0.1,0-0.1-0.1l-0.1,0.1h-0.5c-0.2,0-0.5,0-0.7,0
	c-0.3,0-0.5,0-0.7,0c-0.2,0-0.4,0.1-0.5,0.1v0c-0.1,0-0.3,0.1-0.5,0.1l-0.6,0.1c-0.1,0-0.2,0-0.4,0.1c0,0-0.1,0-0.2,0
	c-0.1,0-0.1,0-0.2,0l-0.3,0.1l-0.3,0.1c-0.1-0.1-0.3,0-0.4,0c0.1,0,0.1,0.2,0,0.2c-0.3,0.1,0,0.1-0.3,0.2l-0.2,0.1v-0.2
	c0.1-0.3,0.3-0.8,0.1-1.2l-0.1-0.4l0,0c0,0-4.1-0.3-5.1,0.3h-0.1v0.1c-0.1,0.1,0.1,0.2,0,0.2v-0.2c0,0.1-0.1,0-0.2,0l-0.1,0.2
	c0,0,0,0,0.1,0c0,0.1,0.2,0.2,0.1,0.2c0,0.2-0.2,0-0.2,0.2c-0.1,0.8-0.3,1.6-0.2,2.4h-0.1l0.1,0.6c0,0.1-0.2,0.1-0.2,0.1
	c0.1,0,0.1,1.2,0.1,1.2l0.3,0c0,0.2-0.3,0-0.2,0.3c0.3,0.1,0,0.4,0.1,0.5c0,0,0,0.1-0.1,0.1c0.1,0,0,0.1,0,0.2c0.1,0,0.1,0,0.1,0
	l0.1,0.2c0,0.1-0.1,0.1-0.2,0c-0.1,0.4,0.2,2.4,0.2,2.9c0.2,0,0.1-0.2,0.2-0.2c0.1-0.1,0.1-0.2,0.3-0.3l0.1-0.2v0l0,0
	c0,0.1,0,0.2,0,0.3c-0.1,0.2-0.3,0.4-0.5,0.5c0,0.1,0,0.2-0.2,0.3l0.2,0l-0.1,0c0.2,0.5,0.1,0.1,0,0.6c0,0.2,0.3,0.4,0.2,0.5
	c0,0,0.1-0.1,0.2,0c-0.2,0,0.1,0.2,0,0.2c0,0.1,0,0.3,0.2,0.3c-0.1,0-0.2,0.2-0.2,0.1c0,0.1,0,0.1,0,0.2l0.1-0.1
	c0,0.2-0.2,0.4,0.1,0.5l0.1-0.1c0,0.1-0.1,0.2-0.3,0.2c0,0.2-0.3,0.3-0.2,0.5v-0.1c0.2,0.2,0.1,1.5,0.4,1.7h-0.2
	c0,0.5,0.1,2.7,0,3.1c0,0.1,0,0.3,0.2,0.5h-0.2c0,0,0.1,0,0.2,0.1c0.1,0,0.2,0.1,0.1,0.2c0,0,0,0.1,0,0.1c0.1,0.2,0.2,0.1,0.2,0.2
	c0,0-0.1,0-0.1,0c0-0.1,0-0.2-0.1-0.3v0.3c0.1,0,0.1,0.1,0.1,0.2c0,0.1,0,0.2,0,0.3l0,0.2l0,0c0,0,0,0.1,0,0.1l0.2,0.9
	c0.1,0,1.5,0,2.8,0.1v0l0.1-0.1c0,0-0.1,0-0.1-0.1l-0.3-0.3c0,0,0,0,0,0v0c0-0.1,0.1-0.1,0.2-0.1c0,0,0.1,0,0.1,0
	c0.1,0.1,0.2,0.2,0.3,0.3l0.2-0.3l0,0v0c0,0,0.1,0.1,0.1,0.1c0,0.2-0.1,0.3-0.2,0.5c1.2,0,2.2,0,2.4,0c0,0.1,0,0.2,0,0.2
	c0.1,0,0.1-0.2,0.1-0.2h-0.2c-0.1-0.2,0.1,0,0.1-0.2c0.2,0,0.2,0.2,0.2,0.3c0-0.1,0.1-0.2,0-0.3c0.1-0.1,0.2,0,0.3-0.1
	c0-0.1-0.2-0.2-0.1-0.3h0c0.2-0.3-0.3-2.3-0.1-2.5h0c0,0,0,0.1,0,0.1v-0.2c0-0.1,0-0.2,0-0.3c0,0,0,0-0.1,0c0-0.8-0.1-1.8-0.1-2.1h0
	c-0.1-0.9-0.1-2.7-0.3-3.7c0.2-0.2,0.1-0.3,0.2-0.5c-0.1,0.1-0.2,0-0.2,0c0-0.5-0.1,0-0.1-0.5c-0.1-0.3-0.1-1,0-1.7
	c0.1-0.1,0.1-0.1,0.2-0.2l0.2-0.2l0,0v-0.1c0,0,0,0,0-0.1l0.1,0.1v-0.2c0,0,0,0,0,0h0c0,0,0,0,0,0l-0.2-0.2c0,0,0.2,0.2,0.2,0.1
	c-0.1-0.1-0.1-0.2,0-0.1c0,0,0.1,0,0,0c0,0,0,0,0,0c0,0,0,0,0,0L82.7,22v-0.1l0.1,0.1h0.1c0.1,0,0.1,0,0.2,0c0,0,0.1,0,0.1,0h0.1
	c0,0,0,0,0.1,0c0,0,0,0,0,0c-0.1-0.1-0.1,0-0.2-0.2c0-0.1,0,0,0,0c0.1,0.1,0.1,0.1,0.1,0.1c0,0,0,0,0.1,0.2l-0.1-0.2l0.1,0.1
	c0.1-0.2,0-0.1,0.2-0.1c0,0,0-0.3,0.1-0.2c0,0,0,0,0-0.1c0,0,0-0.2,0.1,0c0,0,0.1,0,0-0.2c0,0.1,0.1,0.1,0.1,0.2c0,0,0,0,0.1,0l0,0
	c0,0,0,0,0.1,0c0,0,0.1,0,0.1-0.1l0-0.1c0,0,0.1,0,0.1,0.2l0,0.1c0,0,0.1,0,0.1,0c0,0,0,0,0,0v0l0,0h0c0-0.1,0.2-0.2,0.4-0.3
	c0.2-0.1,0.3-0.2,0.3-0.3l0-0.1l0.1-0.2c0,0,0,0.4,0,0.5c0.1,0,0.4-0.1,0.6-0.1c0.1,0,0.2,0,0.2,0h0.1c0.1,0,0.2,0,0.3,0.1
	c0,0.1,0,0.2,0,0.3c0.1-0.1,0-0.2,0.1-0.2c0,0,0,0.1,0,0.2c0,0,0,0,0,0v-0.4l0.1,0v0.1c0,0,0.1-0.3,0.2-0.3c0.2,0.1,0.3,0,0.4,0.1
	c0,0,0,0.1-0.1,0.1c0,0,0.1,0,0.1,0c0-0.1,0.1,0,0-0.1c0-0.1,0.1-0.1,0.1-0.1h0.1c0,0,1.4-0.5,1.5-0.5v-2.2
	C89,16.7,88.7,16.1,88.7,15.9z M25.9,23.6c-0.1,0-0.1,0-0.3,0l-0.4,0.1l-1.9,0.6l-2.7-0.7l-0.5-0.1l-0.8,0l-0.6,0h-0.6l-1.4,0.1
	c0,0,0-0.1,0-0.1c0-0.1,0-0.1-0.4-0.8c-0.3-0.4-0.4-0.4-0.5-0.5c-0.4-0.3-1-0.5-1.5-0.5l-1.3,0c-0.2,0-0.4,0-0.6,0l0.1,0H12
	c-0.1,0-0.2,0-0.2,0l0.3,0c-0.5,0-0.9,0-1.4,0h0.2c-0.2,0,0.1,0,0.5,0c-0.7,0-1.1,0-1.5,0l-0.5-0.2v0.2c-0.2,0-0.3,0-0.2,0
	c-0.1,0-0.1,0-0.1,0c-0.2,0-0.4,0-0.3,0c-0.2,0-0.4,0-0.4,0c0.2,0-0.2,0-0.2,0c0.1,0-0.7,0-0.8,0l2,0v0c-1,0-4,0-4.9,0
	c-0.6,0-1.1,0-1.6,0c-0.2,0-0.5,0-0.7,0c-0.2,0-0.5,0-0.7,0.1c0,0-0.1,0-0.1,0C1.5,22,1.3,22.1,1,22.3c-0.4,0.3-0.7,0.6-0.8,1
	c0,0.1-0.1,0.2-0.1,0.3c0,0.1,0,0.2,0,0.3c0,0.1,0,0.2,0,0.3c0-0.1,0-0.3,0-0.5c-0.1,0.3,0,0.6,0,0.8c0,0.2,0,0.5,0,0.7
	c0,0,0.2,0.1,0.3,0.2v0.6c0,0,0,0,0,0c-0.1,0-0.1,0-0.2,0c-0.1,0.1-0.1,0.3,0,0.7l-0.1-0.1c0,0.1,0.1,0.2,0.1,0.3c0,0,0,0,0,0.1
	c0,0,0,0,0,0c0,0,0,0,0,0c0,0.1,0,0.1,0.1,0.2c0,0,0,0,0-0.1l0,0c0.1,0.2,0.2,0.3,0.3,0.4c0.1,0.1,0.1,0.1,0.2,0.2l0.1,0.1
	c0,0,0.1,0.1,0.1,0.1l0.1,0.1c0.1,0.1,0.2,0.1,0.1,0.1c0.1,0,0.2,0.1,0.2,0.1l0.1,0c-0.1,0-0.1,0-0.2-0.1c0,0,0.1,0.1,0.3,0.1
	c0.3,0.1,0.6,0.2,0.9,0.2l0.8,0c0.5,0,1,0,1.6,0c0.9,0,3.3,0,4.6,0c0,0-0.1,0-0.1,0l0.4,0c0.1,0,0.2,0,0.1,0l0,0c0,0,0,0,0,0
	c0,0,0,0,0,0c-0.5,0-2.1,0-2.5,0c0.1,0,0.2,0,0.2,0c0.2,0,1.5,0,2.5,0v0c0,0,0,0,0,0c0.2,0,0.4,0,0.7,0l0.2,0v0c0.2,0,0.3,0,0.5,0
	c0.1,0,0.1,0,0.3,0c0,0,0,0,0,0c0.4,0,0.9,0,1.4,0c-0.1,0-0.6,0-1.2,0c0.3,0,0.8,0,1,0c0,0,0.2,0,0.2,0c0.1,0,0.3,0,0.4,0
	c0.4,0,0.8,0,1.2,0c0.5,0,0.9-0.2,1.3-0.4c0.7-0.5,0.9-1.2,1-1.5c0,0,0.1,0,0.1,0l0,0h0l0,0c0.1,0,0.2,0,0.3,0c0.5,0,1.1,0,1.6,0
	c0.3,0,0.6,0,1,0l0.2,0c0.1,0,0.1,0,0.3,0l0.4-0.1l1.9-0.6l2.7,0.7l0.5,0.1l0.4,0c0-0.8-0.1-1.7-0.1-2.7L25.9,23.6z M163.6,33.6
	l-0.3-0.2c-0.1,0-0.1-0.1-0.2-0.1c0,0-0.1-0.1-0.1-0.1l-0.8-0.5c0,0-0.1-0.1-0.2-0.2c0,0-0.1-0.1-0.1-0.1l0.1-0.1
	c0.1-0.1,0.3-0.3,0.3-0.5l0-0.1c-0.1-0.2-0.2-0.3-0.4-0.4c-0.1-0.1-0.2-0.1-0.3-0.1c-0.1,0-0.2,0-0.3,0.1l-0.2,0l0,0.2l-0.5-0.5
	c-0.1-0.1-0.1-0.2-0.2-0.2l-0.1-0.1c0-0.1,0-0.2-0.1-0.3c0-0.1,0-0.2-0.1-0.3l-0.2-0.3l-0.1-0.1c0-0.1-0.1-0.3-0.3-0.4l0,0l-0.2-0.2
	c0-0.1-0.1-0.1-0.1-0.2c0,0,0,0,0-0.1c0-0.2-0.1-0.4-0.3-0.5c0,0,0,0,0,0L159,28l0-0.3l0,0c0-0.1,0-0.3-0.1-0.4l0,0
	c0-0.1,0-0.1,0-0.2c0,0,0-0.1,0-0.1l-0.2-0.6l0-0.1l0,0c0,0,0-0.1,0-0.1l-0.2-1.2c-0.1-0.7-0.2-1.6-0.2-2.5l0-1.3
	c0-0.2,0-0.4,0.1-0.6l0-0.5c0,0,0-0.1,0-0.1l0.1,0.5l0-1.9c0-0.3,0-0.5,0.1-0.8c0,0,0-0.1,0-0.2c0-0.1,0-0.1,0-0.2
	c0-0.1,0-0.2,0-0.2c0-0.1,0-0.2,0-0.2l0.2-0.9c0-0.1,0.1-0.2,0.1-0.4c0-0.1,0-0.2,0.1-0.3c0,0,0-0.1,0-0.1c0,0,0-0.1,0-0.1
	c0-0.1,0.1-0.1,0.1-0.2l0,0c0,0,0.1-0.1,0.2-0.1c0.1-0.1,0.3-0.2,0.4-0.4l0.6-0.6c0.1-0.1,0.3-0.3,0.2-0.7l-0.1-0.2l-0.2,0
	c0,0,0,0-0.1,0l0.3-0.4l0.2-0.2l0.1-0.2l0.7-0.8c0.5-0.6,1.1-1.1,1.6-1.5c0.2-0.1,0.3-0.2,0.4-0.3l0.1-0.1c0.1-0.1,0.1-0.1,0.2-0.2
	c0.1,0,0.1-0.1,0.2-0.1L164,9l0,0l0.1-0.1c1.4-1.6,3-3.1,4.9-4.2c0.7-0.5,1.5-0.8,2.3-1.2c0.2-0.1,0.6-0.2,0.9-0.3
	c0.3-0.1,0.6-0.1,0.9-0.2c0.4-0.1,1-0.3,1.3-0.3c0.6,0,0.9,0,1.3-0.1c0.2,0,0.4,0,0.6,0l0.7,0.1l-0.5,0.5c-0.3,0.3-0.5,0.5-0.7,0.6
	l-0.4,0.3c-0.2,0.2-0.3,0.4-0.5,0.6c-0.2,0.2-0.4,0.5-0.7,0.7c0.1,0,0.3,0,0.4,0c0.4,0,0.8,0,1.1,0c0.3,0,0.5,0,0.9-0.1
	c0.2,0,0.7-0.2,0.9-0.2c0.8-0.1,1.7-0.5,2.4-1c1.1-0.7,2-1.5,2.7-2.5c0.2-0.3,0.5-0.7,0.6-1.1l0.3-0.6l0.3,0.6
	c0.4,0.8,0.5,1.7,0.4,2.6c-0.1,0.8-0.3,1.4-0.5,2.1c-0.1,0.2-0.2,0.4-0.3,0.6c0.4-0.1,0.8-0.2,1.2-0.2c0.7,0,1.1,0.1,1.3,0.2
	c0.1,0.1,0.2,0.2,0.2,0.2c0.2,0,0.4,0.1,0.6,0.2c0,0,0.1,0,0.2,0c0.1,0,0.2,0,0.3,0c0,0,0,0,0.1,0l0,0c0.1,0,0.1,0,0.2,0l0.4,0.1
	l-0.4,0.3c-0.3,0.3-0.8,0.5-1.6,0.9c-0.2,0.1-0.4,0.2-0.5,0.4c-0.4,0.2-0.8,0.6-1.1,0.7c-0.2,0.1-0.4,0.1-0.4,0.1
	c-0.2,0.2-0.4,0.3-0.5,0.5c0.1,0.1,0,0.2-0.2,0.5c-0.2,0.3-0.5,0.6-0.7,1.2c-0.1,0.1,0,0.3-0.1,0.4c0,0.1,0.1,0.3,0.1,0.3
	c0,0.1,0.1,0.2,0.1,0.3c0,0.1,0,0.3,0,0.4c0,0.1-0.1,0.1-0.1,0.2l0.6,1c0,0,0,0.1,0,0.1l0.5,1.1c0,0,0,0.1,0,0.1l0.1,0.2
	c0,0,0,0.1,0,0.1l0,0.1c0.1,0.1,0.1,0.3,0.1,0.5c0.1,0.1,0.1,0.2,0.1,0.4l0.1,0.2c0,0.1,0,0.1,0,0.1l0,0.1c0.1,0.4,0.2,0.7,0.2,1
	c0,0,0.1-0.1,0.1-0.1l0,0c0,0.1,0.1,0.3,0.1,0.4c0,0-0.1,0-0.1,0c-0.1,0.1-0.1,0.1-0.1,0.1c0,0,0-0.1-0.1-0.1c0,0,0,0.1,0,0.1l0,0.1
	c0,0.1,0,0.4,0.1,0.5c0,0.1,0,0.2,0,0.2c0,0,0,0.1,0,0.1c0,0.1,0,0.2,0,0.2c0,0,0,0.1,0,0.2c0,0.2,0.1,0.5,0.1,0.8
	c0,0.1,0,0.2,0,0.3c0,0.1,0,0.1,0,0.2l0,0.2c0,0.1,0,0.2,0,0.3l0,1.9c0,0.2,0,0.3-0.1,0.6c0,0.2,0,0.3-0.1,0.6c0,0.2,0,0.5-0.1,0.7
	c0,0.1,0,0.2-0.1,0.4c0,0.1,0,0.1,0,0.1l0,0.1c0,0,0,0.1,0,0.1c0,0.1,0,0.1,0,0.3c0,0,0,0.1,0,0.2l-0.2,0.8l-0.2,0.6l-0.2,0.4
	c0.1,0.1,0.1,0.3,0.3,0.2c0.2,0.1-0.1,0.2,0,0.3l0.2-0.2c0,0,0.9,0.9,0.9,0.8c0,0.1-0.1,0.1-0.1,0.2l0.5,0.4l-0.1,0.1
	c0.6,0.6,1,1.2,1.5,1.8c0.1,0.1-0.1,0.2,0,0.3c0,0.1,0.2,0.1,0.2,0.1c0,0,0-0.1,0-0.1l0.1,0.2c-0.1,0-0.2,0-0.1,0.1l-0.1-0.1
	c-0.1,0.1,0.1,0,0.1,0.2l0.1,0.1l-0.1,0.1c-0.3,1-3.4,3.7-3.4,3.7l-0.1,0l-0.4-0.2c-0.4-0.2-0.6-0.7-0.8-0.9l-0.1-0.1l0,0.1
	c0,0-0.1-0.1-0.2-0.1c-0.7-0.5-1.4-1.1-2.1-1.7l-0.2,0.1l-0.6,0.4c-0.1,0-0.2,0.1-0.3,0.2l-0.2,0.1l-0.3,0l0,0.1l-0.1,0
	c-0.1,0.1-0.3,0.2-0.3,0.3l-0.6,0.3c-0.1,0.1-0.2,0.1-0.3,0.2l-0.2,0c-0.1,0-0.2,0-0.3,0c-0.1,0-0.3-0.1-0.5,0l-0.4,0.1
	c0,0-0.1,0-0.1,0l-0.9,0.3c-0.1,0-0.2,0.1-0.3,0.1l-0.1,0c-0.1,0-0.2,0-0.3,0l-0.2,0c-0.1,0-0.2,0-0.3,0c-0.1,0-0.2,0-0.3,0
	c0,0,0-0.1,0-0.1c0-0.1,0.1-0.2,0.1-0.3c0-0.1,0.1-0.2,0.1-0.3l0-0.2l-0.7-0.2l-0.2,0l-0.1,0.1l-0.1,0l-0.1,0.1c0,0-0.1,0-0.2,0
	c-0.1,0-0.5,0-0.6,0.5c0,0.1,0,0.1,0,0.2c-0.1,0-0.2,0-0.3,0c-0.1,0-0.2,0-0.2,0l-0.2,0l0,0l0,0c-0.1,0-0.2,0-0.4,0c0,0-0.1,0-0.1,0
	l-1-0.1c-0.4,0-1.5-0.2-1.9-0.3c-0.2-0.1-0.3-0.1-0.4-0.1c-0.1,0-0.1,0-0.3-0.1l-0.2-0.1l-0.1,0c-0.2,0-0.5-0.1-0.7-0.2l-0.1,0
	c-0.1-0.1-0.2-0.1-0.3-0.1l-0.2-0.1l-1.1-0.6c0,0,0-0.1,0-0.2l0-0.3l-0.3,0l-0.1,0C163.8,33.5,163.7,33.5,163.6,33.6z M163.9,20.7
	l0.2,0.1c0,0.1,0,0.2,0,0.4l0,0.3c0,0.1,0,0.1,0,0.2c0,0,0,0.1,0,0.1l0,0.8l0,0l0,0.2c0,0.1,0,0.2,0,0.2c0,0,0,0.1,0,0.2l0,0.1
	c0,0.1,0,0.3,0,0.4l0,0.3l0.1,0.1c0,0.1-0.1,0.1-0.1,0.2l0,0.1l0.1,0.5c0,0.1,0,0.2,0.1,0.3l0.2,0.7l0,0l0.1,0.2
	c0.1,0.1,0.1,0.3,0.1,0.5c0,0.3,0.1,0.6,0.2,0.9c0.2,0.3,0.4,0.6,0.7,0.9l0.1,0c0,0,0.1,0.1,0.1,0.1c0,0,0.1,0.1,0.1,0.1
	c0,0,0.1,0.1,0.2,0.1c0,0,0,0,0.1,0.1l0,0.1l0.2,0l0.2,0.2l0,0c0.1,0.1,0.2,0.1,0.3,0.2c0.3,0.2,0.6,0.4,0.9,0.6c0,0,0,0,0,0l0,0
	c0.1,0.2,0.2,0.3,0.3,0.3c0,0,0.1,0,0.1,0c0.1,0.1,0.2,0.2,0.3,0.2c0.1,0,0.2,0,0.4-0.2c0,0,0.1,0,0.1-0.1c0,0,0,0,0.1,0l0,0.2
	l0.2,0l0,0.1l0.3,0l0,0l0.1,0c0.8,0.3,1.3,0.2,1.8,0.1c0.2,0,0.5-0.1,0.8,0l0.1,0c0,0,0.1,0,0.1,0l0.1,0c0,0,0.1,0,0.1,0
	c0.1,0,0.1,0,0.2,0l0.4-0.1c0.4,0,0.7-0.1,1-0.3l0.3-0.1c0.4-0.1,0.7-0.3,1.2-0.6c0.3-0.2,0.7-0.5,1-0.8c0.1-0.1,0.2-0.2,0.2-0.3
	l0,0c0-0.1,0.1-0.1,0.1-0.2l0.7-1l-0.2,0l0-0.1c0,0,0.1-0.1,0.1-0.1c0.2-0.3,0.4-0.8,0.6-1.3l0-0.1c0,0,0-0.1,0-0.1c0,0,0-0.1,0-0.1
	c0.1-0.1,0-0.2,0-0.2c0,0,0.1-0.1,0.1-0.3c0-0.1,0-0.1,0-0.2c0,0,0.1-0.1,0.1-0.2l0-0.1c0-0.1,0-0.3,0.1-0.4l0-0.1v-0.2
	c0.1-0.3,0.1-0.5,0.1-0.7c0.1-0.3,0.1-0.5,0.1-0.7l0-0.7c0-0.1,0-0.3,0-0.4l0-0.1c0,0,0.1-0.1,0.1-0.1l0.4-0.4l-0.5-0.1
	c0-0.1,0-0.1,0-0.2l-0.1-0.5l0-0.6l0-0.1c0.1,0,0.1,0,0.2,0l0.5,0l-1.1-1.8l0,0.2l-0.2-0.4c0-0.1-0.1-0.1-0.1-0.2c0,0,0-0.1-0.1-0.1
	l-0.2-0.4c-0.1-0.1-0.2-0.3-0.3-0.5c-0.2-0.3-0.3-0.6-0.5-0.8l-0.2-0.2l-0.1-0.1l0-0.2l-0.1,0c0,0,0-0.1,0-0.1l0-0.1l-0.4-0.3
	c0,0-0.1-0.1-0.1-0.1c0-0.1,0-0.3-0.1-0.4c-0.1-0.1-0.1-0.1-0.2-0.2l-0.2-0.1l-0.1,0c0.1,0,0.1,0,0.1,0.1l-0.1,0.1c0,0-0.1,0-0.1,0
	l-0.5-0.3l-0.3-0.1c0,0,0,0,0,0l0-0.2l-0.2,0l-1.2-1.3c0,0,0,0,0,0l0.5,1l-0.4-0.2l0.2,0.2l-0.3,0c-0.1,0-0.2,0-0.3,0.1l-0.3,0
	c-0.1,0-0.1,0-0.2,0l-0.2,0l-0.1,0c0,0-0.1,0-0.1,0l-0.2,0c0,0-0.1,0-0.2,0l0,0l-0.9,0l0,0c0,0,0,0,0,0l-0.3,0c-0.1,0-0.1,0-0.2,0
	l-0.3,0l0,0l-0.5,0l-0.2-0.4c0,0-0.1,0-0.1,0l-0.2,0.3c-0.1,0-0.1,0-0.2,0c-0.1,0-0.1,0.1-0.2,0.1l-0.4,0.2l0.2,0.2l0,0c0,0,0,0,0,0
	c-0.1,0-0.2,0-0.2,0c-0.1,0-0.2,0.1-0.3,0.1c-0.2,0.1-0.3,0.2-0.5,0.4c-0.1,0.1-0.1,0.1-0.2,0.2l0-0.2l-0.5,0.4
	c-0.3,0.1-0.3,0.3-0.3,0.5l0,0.1l-0.4,0.4c0,0,0,0-0.1,0.1c0,0-0.1,0.1-0.1,0.1c0,0-0.1,0.1-0.1,0.1l-0.1,0.1
	c-0.1,0.1-0.2,0.2-0.1,0.4l-0.1,0.1c0,0,0,0.1-0.1,0.1c-0.1,0.1-0.2,0.2-0.2,0.3l-0.3,0.5c0,0,0,0,0,0l-0.1,0l0,0
	c-0.1,0-0.1,0.1-0.2,0.1l-0.1,0.1l-0.1,0.8l0,0l0,0l-0.4,0l0.3,0.5c0,0,0,0.2-0.1,0.3l-0.1,0.5c0,0.2,0,0.3,0.1,0.4c0,0,0,0,0,0l0,0
	c-0.2,0.2-0.3,0.4-0.3,0.7L163.9,20.7z M187.9,18c0,0,0.1,0,0.1,0v0L187.9,18z M188.1,20.5L188.1,20.5L188.1,20.5L188.1,20.5z
	 M154.8,34.4c-0.1,0-0.2,0-0.3,0.1c0.1-0.1,0.3-0.2,0.3-0.3l-0.7,0.1c-0.9,0.9-3.9,1.3-4.1,1.3l-0.7,0.1H149c-0.1,0-0.1,0-0.2,0
	h-0.4l-0.4,0.1l-0.3,0.1c-0.1,0.1-0.2,0.2-0.3,0.2v-0.1H147c-0.6-0.1-0.6,0.2-0.9,0.1c-0.3-0.1-0.9-0.1-1.7-0.2l-0.6-0.1
	c-0.1,0-0.1,0-0.2,0c0,0-0.1,0-0.1,0l-0.4-0.1c-0.3-0.1-0.7-0.2-1-0.4c0,0,0,0,0.1-0.1l0,0H142c-0.1,0-0.2,0-0.3,0l-0.2-0.1
	c-0.5-0.3-1-0.5-1.4-0.9l-0.3-0.2c0.1,0,0.1-0.1,0.2-0.1h0.1c0,0.1,0.1,0.1,0.2,0.1h0.1c0,0,0,0,0.1,0c0.1,0,0.1,0,0.1-0.1v-0.1
	c0-0.1-0.1-0.1-0.2-0.1h0l0,0c-0.1,0-0.1,0-0.2,0.1c-0.1,0-0.1,0.1-0.2,0.1c0,0-0.1,0-0.2-0.1c0,0-0.1,0-0.1,0c-0.1,0-0.1,0-0.1,0
	l-0.4-0.4c-0.1-0.1-0.2-0.2-0.3-0.3c-0.1-0.1-0.1-0.1-0.2-0.3l-0.1-0.1c0,0-0.1-0.1-0.1-0.1l-0.2-0.2c-0.2-0.3-0.3-0.5-0.4-0.7
	c0,0,0.1,0,0.3,0c0,0,0.1,0,0.2,0l-0.1-0.2l-0.2-0.3v0.4l-0.1-0.1l-0.1-0.2l-0.2-0.3l-0.1-0.2l-0.1-0.1l-0.1-0.2
	c0-0.1-0.1-0.1-0.1-0.2c-0.1-0.1-0.1-0.3-0.2-0.4c-0.1-0.3-0.2-0.6-0.3-0.9c-0.2-0.6-0.3-1.2-0.4-1.7c0,0,0,0,0,0c0,0,0.1,0,0.1,0
	c0,0,0.1,0,0.1,0v0c-0.1,0-0.1,0-0.2-0.1V27c0-0.1,0-0.2,0-0.3l-0.1-0.4v0.2l-0.1-0.4v-0.2c0-0.1,0-0.1,0-0.2v-0.4
	c0-0.1,0-0.1,0-0.3v0l0,0.3c0.1-0.1,0.1-0.2,0.2-0.4c0-0.1,0-0.2,0-0.3c0-0.1,0-0.2,0-0.3l-0.1,0.3c-0.1-0.3,0-0.5,0-0.7
	c0-0.1,0-0.1,0-0.2l0.1-0.2c0-0.1,0-0.1,0.1-0.3c0-0.1,0-0.1,0.1-0.3c-0.1,0.1-0.1,0.2-0.1,0.3c0-0.1,0-0.2,0-0.3l0.1-0.3
	c0,0.1,0,0.1,0,0.1c0,0,0-0.1,0.1-0.1c0.1-0.1,0.2-0.3,0.3-0.3c-0.1,0.1-0.1-0.1-0.1-0.3c0-0.2,0.1-0.4,0.2-0.6
	c0.1,0,0.1-0.2,0.2-0.4c0,0,0-0.1,0-0.1c0,0,0-0.1,0-0.1c0-0.1,0.1-0.1,0.1-0.1c0.1-0.3-0.1-0.1-0.1-0.1l0.2-0.3l0.2-0.4l0.1-0.3
	c0,0,0.1-0.1,0.1-0.1c0,0,0.1-0.1,0.1-0.1l0.1-0.1c0,0,0,0,0,0c0,0,0-0.1,0-0.1c0.1-0.1,0.1-0.2,0.3-0.3l0.4-0.4l0.3-0.2l0.1-0.1
	c0,0,0,0,0.1,0l0.4-0.4c0.1-0.1,0.3-0.3,0.5-0.4c0.1,0,0.1,0,0.3,0c0-0.1,0-0.1,0-0.2c0.1,0,0.2,0,0.4,0c0.1,0,0.1-0.1,0.2-0.1
	l0.2-0.1c0.3-0.1,0.5-0.2,0.6-0.1c0.1-0.1,0.2-0.1,0.3-0.1l0.2-0.1c0.1,0,0.2-0.1,0.3-0.1c0,0-0.1,0-0.2,0c0,0-0.1,0-0.1,0
	c-0.1,0-0.1,0-0.1,0c-0.1,0-0.2,0-0.3,0c-0.1,0-0.1,0-0.2,0c0,0,0.1,0,0.2-0.1c0,0,0.1-0.1,0.2-0.1l0.3-0.1c0.1,0,0.1,0,0.3-0.1
	c0.2-0.1,0.4-0.1,0.6-0.1c0.1,0,0.2-0.1,0.3-0.1c0.1,0,0.1,0,0.2,0c0.1,0,0.1,0,0.2,0c0.3,0,0.5-0.1,0.8-0.1c0.1,0,0.3,0,0.4,0h0.3
	c0.5,0,1,0,1.5,0.1c0.3,0,0.6,0,0.9,0.1c0,0,0.1,0,0.2,0c0.1,0,0.3,0,0.5,0.1c0.5,0.1,1,0.3,1.5,0.4c0,0,0.1,0,0.1,0
	c0,0,0.1,0,0.1,0l0.1,0.1l0.3,0.1l0.3,0.2l0.3,0.1l0.6,0.5c0,0,0,0.1,0.1,0.2l0.2,0.1c-0.1,0.1-0.1,0.2-0.1,0.4h0l0.2,0l0.1-0.1
	c0,0,0,0,0-0.1h0l0.1,0.1c0-0.1-0.1-0.1-0.1-0.2h0l0.2,0.1l0.1,0.1c0,0,0,0.1,0.1,0.1c0.1,0.1,0.2,0.2,0.3,0.2c0,0,0,0,0,0.1
	c0,0,0,0.1,0.1,0.2c0.1,0.1,0.1,0.2,0.1,0.2c0.1,0,0.2,0.2,0.3,0.3l0.3,0.6l0.2,0.6c0.1,0.2,0.2,0.3,0.3,0.4l0.1,0.3
	c0,0.1,0,0.1,0,0.2c0,0.1,0,0.1,0,0.2c0,0,0,0.1,0,0.2c0,0,0,0.1,0,0.2v0.2l-0.1,0.1l-0.3,0.1v0.2c0,0.1,0,0.1,0,0.1c0,0,0,0,0.1,0
	h0.1c0.1,0,0.1,0,0.1,0h0c0,0-0.1,0-0.1,0c0,0-0.1,0.1-0.1,0.1c0,0,0.1,0.1,0.1,0.1c0.1,0,0.2,0,0.3,0h0c0,0,0.1,0,0.1,0v0.5
	c0,0.4-0.1,0.9-0.2,1.5c0,0-0.1,0-0.1,0c0,0,0,0,0,0.1c0,0,0,0,0,0.1v0h0c0,0,0,0,0.1,0l-0.1,0.5c0,0,0,0,0,0c0,0,0,0,0,0.1
	c0,0,0,0.1,0,0.1c0,0,0,0,0,0l-0.1,0.3c-0.1,0.1-0.1,0.1-0.2,0.2c-0.2,0.3-0.4,0.6-0.6,0.7l-0.1,0.1c0,0,0,0-0.1,0c0,0,0,0.1,0,0.1
	l-0.1,0.1l-0.1,0.1c-0.1,0.1-0.2,0-0.2,0s0,0-0.1,0h-0.1v0l0.1-0.1v0c-0.1-0.1-0.1-0.1-0.2-0.1c-0.1,0-0.1,0-0.2,0.1
	c0,0-0.1,0-0.2,0c-0.2,0-0.2,0.1-0.2,0.3c0,0,0,0.1,0,0.1c-0.1,0-0.1,0.1,0,0.2c-0.4,0.2-0.8,0.3-1.2,0.5c-0.1,0-0.3,0.1-0.4,0.1
	c-0.1,0-0.1,0-0.2,0.1c-0.1,0-0.1,0-0.2,0c-0.1,0-0.2,0.1-0.3,0.1l-0.3,0.1c0.1,0,0.1-0.1,0.1-0.1c-0.7,0.1-1.3,0.3-1.9,0.4
	c-0.1,0-0.3,0-0.5,0h-0.4c0,0,0,0,0-0.1l0.1-0.3c0,0,0,0,0-0.1c0,0,0-0.1,0-0.1l0,0v0l-0.1,0.2c0,0,0,0,0-0.1c0,0,0,0-0.1,0
	c-0.1,0-0.1,0-0.1,0.1c0,0,0,0.1,0,0.2c0,0,0,0,0,0.1h-0.5l-0.3,0h-0.4c0,0-0.1,0-0.1,0c-0.1,0-0.3,0-0.5,0l-0.1,0h-0.1l-0.3-0.1
	l-0.3,0c-0.1,0-0.1,0-0.2-0.1c-0.2,0-0.6-0.2-1-0.3l-0.1-0.4h-0.3v0.3c-0.1,0-0.3-0.1-0.3-0.1c0,0,0,0.2,0.6,1c0,0,0,0,0,0
	c0,0,0.1,0.1,0.1,0.1c0,0,0,0,0,0.1v0l0,0c-0.1,0-0.1,0.1-0.3,0.2c0.1,0.1,0.1,0.1,0.1,0.1c0.1,0,0.1,0,0.2,0c0,0,0,0,0.1,0v0
	c0,0,0.1,0.1,0.1,0.1l0.4,0.4c0.1,0.1,0.5,0.2,0.7,0.3c0.3,0.1,0.5,0.2,0.8,0.3c0.1,0,0.3,0.1,0.5,0.1c0.1,0,0.1,0,0.2,0
	c0.1,0,0.2,0,0.3,0h0.1c0,0,0.1,0,0.1,0h0.3v0.1l0,0c0,0,0.1,0,0.1,0h0.7c0.1,0,0.1,0,0.2,0h0.2c0.1,0,0.3,0,0.4,0
	c0.1,0,0.2,0,0.3,0l0.3-0.1c0.1,0,0.1,0,0.2,0c0.1,0,0.1,0,0.2,0s0.2,0,0.3,0h0.3c0.2,0,0.1-0.1,0-0.1h0.2c0.1,0,0.2,0,0.3-0.1
	c0.1,0,0.3,0,0.4,0l-0.1,0.1c0.1,0,0.3,0,0.4-0.1l0.3-0.1l0.3-0.1c0.1-0.1,2.8-1,3-1h0.2l0.2-0.1c0.1,0,0.2-0.1,0.3-0.2
	c0.3,0,0.1,0.2,0.3,0.1c0.1-0.1,0.3-0.1,0.6-0.2c-0.3,0.1-0.5,0.2-0.5,0.3c0.2-0.1,0.2,0,0.3,0c0,0,0,0,0.2-0.1l0-0.1
	c0,0,0.1-0.1,0.1-0.1c0.1,0,0.1,0,0.1,0h0.1c0,0,0,0,0.1,0c0,0,0,0-0.1,0H156c0,0-0.1,0-0.1,0l0.4,1c0.4,1,1,2.1,1.2,3.1l-0.9,0.5
	l-0.6,0.1l-0.6,0.2c-0.1,0-0.1,0-0.3,0.1c-0.1,0.1-0.1,0.1-0.2,0.1C155.1,34.3,154.6,34.4,154.8,34.4z M141.7,23.4L141.7,23.4
	L141.7,23.4L141.7,23.4c0.1,0,0.2,0,0.2,0h0.1l-0.3,0.6c0.3,0.3,0.9,0.6,1.3,0.7c0.4,0.2,0.9,0.1,1.2,0.2h0.1c0,0,0.1,0,0.1,0
	c0.1,0,0.2-0.1,0.4,0c0.1,0,0.3,0,0.4,0h0.2c0,0,0.1,0,0.1,0v0.1c0.1,0,0.3,0,0.4-0.1c0.1,0,0.1,0,0.2,0l0.2-0.1l0.2-0.1
	c0.1,0,0.1,0,0.2,0l0.1-0.1h0c0,0,0.1,0.1,0.1,0l0.2-0.1l0.2-0.1c0,0,0.1-0.1,0.1-0.1c0,0,0.1,0,0,0c0.1,0,0.1-0.1,0.2-0.1
	c0,0,0.1,0,0.1,0h0.1c0,0,0,0,0.1,0c0,0,0,0,0.1,0l0,0c0,0,0.2-0.3,0.3-0.3v0l0.4,0.2l0.1-0.2l-0.2-0.1l-0.2-0.1
	c0.1-0.1,0.2-0.5,0.2-0.6c0-0.1,0-0.2,0-0.3v-0.1l0,0c0,0,0,0,0-0.1v0h0c-0.1-0.1-0.1-0.1-0.2-0.2c0-0.1-0.1-0.1-0.1-0.1
	c-0.1,0-0.1-0.1-0.2,0c0-0.1-0.1-0.1-0.2-0.2l-0.4-0.2l-0.8-0.2l-1-0.1h-1l-0.7,0.1c0,0,0,0-0.1,0h-0.1l-0.1,0.1c0,0-0.1,0-0.1,0
	l-0.1,0.1c0,0-0.1,0-0.1,0l-0.1,0.1l-0.1,0.1l-0.3,0.2v0.1c0,0,0,0,0,0.1l-0.2,0.2c-0.1,0.1,0,0.2,0,0.1l0,0c0,0,0,0-0.1,0
	c0,0,0,0,0,0.1c0,0-0.1,0-0.1,0.1l-0.3,0.2c0,0,0-0.1,0-0.1c0-0.1,0-0.1-0.1-0.1H142c-0.1,0.1-0.1,0.2-0.2,0.3
	C141.7,23.1,141.7,23.2,141.7,23.4z M142.2,23.2L142.2,23.2L142.2,23.2C142.2,23.2,142.2,23.2,142.2,23.2z M66.4,33.3
	c-0.1,0.1-0.1,0.1-0.1,0.2l-0.4,0.3l-0.2,0.1c0.1,0-0.3,0.1-0.3,0.2l-0.3,0.3c0,0-0.1,0-0.1,0c0,0-0.1,0-0.1,0l-0.3,0.1
	c-0.1,0-0.3,0.1-0.4,0.1c-0.1,0-0.1,0-0.2,0c-0.1,0-0.1,0.1-0.3,0.1c0,0-0.1,0-0.1,0c0,0-0.1,0-0.1,0c-0.1,0-0.2,0-0.3,0L62.9,35
	h-0.2c0,0-0.1,0-0.1,0h-0.4c0,0-0.1,0-0.1,0h-0.5c-0.3,0-0.7,0-1,0c-0.3,0-0.7-0.1-1-0.1c-0.1,0-0.1,0-0.2,0l-0.1,0l0.1-0.1
	l-0.2-0.1l-0.1,0.2c-0.1,0-0.2,0-0.3-0.1c-0.1,0-0.1,0-0.2,0h-0.1v0h-0.1v0l-0.2-0.1c0,0,0.1-0.1,0.2-0.1c0.1-0.1,0.2-0.2,0.2-0.2
	c-0.2,0-0.4,0-0.5,0l0.1,0.1l0.1,0.1h-0.1l-0.8-0.3c-0.1,0-0.2-0.1-0.4-0.1c0,0,0,0-0.1,0l-0.1-0.1l-0.2-0.1c-0.1,0-0.2-0.1-0.4-0.2
	l-0.1-0.1l-0.4-0.3c0,0-0.1-0.1-0.1-0.1l-0.2-0.2c0,0,0-0.1-0.1-0.1l-0.3-0.3l-0.3-0.4l-0.1-0.1l-0.1-0.2c0,0,0,0,0-0.1c0,0,0,0,0,0
	l-0.1-0.1h0c-0.1-0.1-0.1-0.2-0.2-0.3c-0.1-0.1-0.1-0.2-0.2-0.3l-0.1-0.1l-0.1-0.2L53.4,30l0.1,0.3c0.1-0.1,0.1-0.2,0.1-0.3
	c0-0.1,0-0.3-0.1-0.4l0,0.2c-0.1-0.1-0.1-0.1-0.1-0.3v0c0,0,0-0.1,0-0.1c0,0,0-0.1,0-0.1c0-0.1,0-0.2,0-0.3v-0.2c0-0.1,0-0.1,0-0.2
	v-0.3c0-0.1,0-0.1,0.1-0.2c0,0-0.1,0-0.1,0V28L53,28.1V28c0,0,0-0.1,0-0.2c0-0.1,0-0.1,0-0.2c0.1,0,0-0.1,0-0.3c0-0.1-0.1-0.2,0-0.2
	c0-0.1-0.1,0-0.1,0c0-0.1,0-0.3-0.1-0.5c0,0,0-0.1,0-0.1c0,0,0-0.1,0-0.1c0-0.1-0.1-0.3-0.1-0.4v-0.3c0-0.1,0-0.1,0-0.2s0-0.1,0-0.1
	s0-0.1,0-0.1c0-0.1,0-0.3,0-0.6l0.1-0.1l-0.2-0.1c0.2-0.1,0.2-0.3,0.3-0.4c0,0,0-0.1,0-0.1c0,0,0-0.1,0-0.1c0-0.1,0.1-0.1,0.2-0.1
	c-0.1-0.1,0-0.1,0-0.2c0,0,0-0.1,0-0.1V23c-0.1,0-0.1,0-0.1,0.1c0,0,0,0,0,0.1c0,0,0,0,0,0.1c0,0.1-0.1,0.2-0.1,0.3
	c0-0.1,0-0.1,0-0.3v-0.1c0-0.1,0-0.1,0-0.2l0.1-0.4l0.1-0.4c0,0,0-0.1,0-0.1v-0.1c0,0,0,0,0-0.1l0.1-0.5l0.1-0.3l0.2-0.6
	c0.1-0.1,0.1-0.2,0.1-0.3l0.1-0.3c0.1-0.3,0.3-0.4,0.5-0.6c0,0.1,0.1,0.2,0.2,0.2c0,0,0.1,0,0.1,0c0,0,0,0,0.1,0l-0.2-0.5l0.1-0.1
	l0.1-0.1c0.1-0.1,0.1-0.1,0.2-0.2l0.4-0.4l0.4-0.4l0.4-0.3l0.3-0.2c0.1-0.1,0.1-0.1,0.2-0.1c-0.1,0-0.1,0.1-0.1,0.1c0,0,0.1,0,0.2,0
	l0.2-0.1l0.1-0.2c-0.1,0-0.1,0.1-0.1,0l0.3-0.2c0.1,0,0.1-0.1,0.1-0.2c0,0.1,0.3-0.1,0.3,0c0-0.1,0.1-0.1,0.2-0.2l0.3-0.1
	c0,0,0.1,0,0.1,0c0,0,0,0,0.1,0l0.1-0.1c0.1,0,0.2-0.1,0.2-0.2c0.3-0.1,0.3-0.1,0.4-0.1c0.1,0,0.1,0.1,0.4,0l0-0.3h0
	c0,0,0.1,0,0.1,0l0.4-0.1l1.1-0.3l0.6-0.1c0.1,0,0.2,0,0.3,0c0,0,0,0,0,0c-0.1,0.1-0.1,0.1-0.1,0.3v0l0,0c0,0,0.1,0,0.1,0L62,15
	c0,0,0.1,0,0.1,0c0.1-0.1,0.3-0.1,0.4-0.2c0,0,0,0,0.1,0c0,0,0.1,0.1,0.2,0.1c0.5-0.1,1,0,1.5-0.1l0,0c0.9,0,1.8,0.1,2.7,0.3
	c0.9,0.1,1.7,0.4,2.5,0.7c0.3,0.1,0,0.2,0.3,0.3c0.1,0.1,0.4,0.1,0.5,0.1c0-0.1-0.1-0.1,0-0.1c0.1,0.1,0.2,0.1,0.3,0.1h-0.1l0,0
	l0.1,0c0,0,0,0,0-0.1c0.2,0.1,0.4,0.2,0.5,0.3l0.6,0.4c0.2,0.4-0.1,0.8-0.1,1.1v0.1l-0.1,0.3l0.1,0.1c0,0.1,0,0.2,0.1,0.2h-0.1
	c0,0.2,0.3,0.5,0.3,0.6h-0.1c0,0.1,0.1,0.3,0.4,0.3c-0.1,0.2-0.3,0.2-0.2,0.4l0-0.1c0.1,0.3-0.1,1.5,0,1.7l-0.1,0
	c0.1,0.2,0,0.5,0.2,0.8c-0.1,0.2-0.1,0.8-0.2,1.3c-0.1,0.1-0.1,0.3-0.2,0.5l0.1,0.1l0.1-0.1c0,0.5,0,0.9,0.1,1.1c0,0.4,0,0,0,0.5
	c0,0.1,0.1,0.1,0.1,0c0,0.1,0,0.3-0.1,0.5c0.2,0.9,0.1,2.6,0.1,3.5c0,0.6,0.1,2.5,0.1,3.1l0.1,0.1c-0.1,0.1-0.1,0.1-0.3,0.3
	c0,0.1,0.1,0.1,0.1,0c0,0.1,0.1,0.3,0,0.3h-0.1c-0.1,0.2,0.3,0.2,0.1,0.4c-0.1,0.1,0,0.2,0.1,0.3c0,0.1-0.2,0-0.2,0.1
	c0.1,0,0,0.1,0,0.3c0-0.1-0.1-0.3-0.2-0.3c0,0.1-0.1,0-0.1,0.2l0.2,0c0,0,0,0.2-0.1,0.2c0,0,0-0.1,0-0.1c-0.3,0-4-0.2-4.3-0.1
	c-0.3-0.1-0.1-0.5-0.4-0.6l0-0.1C67.1,33.5,67,33.3,67,33c0,0,0-0.1,0-0.1c0,0,0,0-0.1,0c0,0-0.1,0.1-0.1,0.1c0,0-0.1,0.1-0.1,0.1
	C66.5,33.2,66.5,33.2,66.4,33.3z M65.8,25.3c0.3-0.1,0.1-0.3,0.4-0.3c-0.1,0,0-0.1-0.1-0.2C65.9,24.8,66,25,65.9,25
	c-0.1-0.4,0-2.2,0.1-2.6c0,0,0.1,0,0.2-0.1l-0.1-0.1c0,0-0.1,0.1-0.1,0c0,0,0-0.1-0.2-0.1c0.1,0,0.1-0.1,0.1-0.1
	c-0.1-0.1,0.2-0.3-0.1-0.4c-0.1-0.2,0.2-0.1,0.2-0.3h-0.2c0,0,0-0.5,0-0.9c-0.1,0-0.1,0-0.2,0c-0.1,0-0.2,0-0.3,0l0,0
	c-0.1,0-0.1,0-0.2,0h-0.1c-0.1,0-0.2,0-0.2,0l0,0c0,0,0,0,0,0c-0.1,0-0.1,0-0.2,0c-0.1,0.1-0.2,0.1-0.1,0.3c-0.2,0-0.2-0.1-0.3-0.1
	c-0.1-0.1-0.1-0.1-0.4,0h0.1c-0.1,0-0.3,0-0.6,0.1c-0.3,0-0.6,0-0.9,0.1c-0.3,0-0.6,0.1-0.8,0.2c-0.1,0-0.2,0.1-0.3,0.1l-0.2,0.1
	l0-0.1c-0.1,0.1-0.3,0.2-0.4,0.3l-0.1,0.1c0,0-0.1,0-0.1,0.1c0,0-0.1,0.1-0.1,0.1l0,0v0l-0.1,0.1c0,0-0.1,0-0.1,0.1
	c-0.1,0-0.1,0-0.1,0.1l-0.1,0.1c-0.1,0-0.1,0.1-0.1,0.1c0,0-0.1,0-0.1,0.1c0,0,0,0.1-0.1,0.1l-0.1,0.1c0,0,0,0,0,0.1l0,0
	c0,0,0,0.1-0.1,0.1v0.1l0,0c-0.1,0.2-0.2,0.4-0.2,0.6h0c0-0.1,0-0.1,0-0.2v0h0c-0.1,0.1-0.1,0.1-0.1,0.2c0,0.1,0.1,0.3,0.1,0.5
	c0,0,0,0.1,0,0.1c-0.1,0.3-0.1,0.7-0.1,0.9c0,0.1,0,0.1,0,0.2v0.1c0,0,0,0.1,0.1,0.1l0,0v0.3c0,0.1,0.1,0.1,0.1,0c0,0.1,0,0.1,0,0.2
	V26c0,0.1,0,0.3-0.1,0.4c0,0.1,0,0.2,0,0.3l0.1,0.3c0,0.1,0,0.1,0,0.1v0.2c0,0,0,0.1,0,0.1c0,0,0,0.1,0,0.1c0,0,0,0.1,0,0.1
	c0,0.1,0,0.1,0,0.1l0.1,0.1c0,0,0,0.1,0,0.1v0.1c0,0,0,0,0,0c0,0.1,0,0.1,0,0.1l0,0l0,0.1v0c0,0,0,0,0,0v0c0,0,0,0,0,0.1l0.1,0.1
	c0,0,0,0,0,0.1c0,0,0,0,0,0c0,0.1,0.1,0.1,0.1,0.1c0,0,0.1,0,0.1,0l0,0h0.1v0c0.1,0,0.3,0.1,0.6,0.1c0.2,0,0.4,0.1,0.7,0.1h0.4
	c0,0,0.1,0,0.1,0h0.1c0.1,0,0.2,0,0.3,0c0,0,0.1,0,0.1,0l0,0h0c0.1,0,0.1,0,0.2-0.1c0.3-0.1,1-0.2,1.1-0.3c0,0,0-0.1,0-0.1l0.1-0.1
	c0,0,0.1,0,0.1-0.1c0,0,0.1,0,0.1-0.1l0.1-0.1c0,0,0-0.1,0-0.1c0.1-0.1,0.2-0.1,0.3-0.3c0.2-0.1,0.3-0.2,0.3-0.3h0
	c0,0,0.1,0.1,0.1,0.1c0,0,0.1,0.1,0.1,0.1l0.4-0.1c0,0,0.1,0,0.1-0.1c0-0.1,0.1-0.1,0.2-0.2c0,0,0,0,0,0h0c0-0.1-0.1-0.1-0.1-0.1
	c0,0,0,0-0.1,0h-0.1l0.2-0.2l0,0h-0.1c-0.1,0-0.2,0-0.3,0.1l0,0c0,0-0.1,0-0.1,0.1l0.4-0.3c0,0,0,0,0.1,0l0,0c0,0,0-0.1,0-0.1
	c0.1,0.1,0.1,0,0.2-0.1v0c-0.1,0-0.1-0.1-0.1-0.2c0.1,0-0.1-0.2,0-0.2c0,0-0.1,0-0.1,0c0.1-0.1,0-0.3,0-0.5
	C65.9,25.5,66.1,25.9,65.8,25.3l0.2,0L65.8,25.3z M109.2,33.2c0,0.1,0.1,0.1,0.1,0c0,0.1,0.1,0.3,0,0.3h-0.1
	c-0.1,0.2,0.3,0.2,0.1,0.4c-0.1,0.1,0,0.2,0.1,0.3c0,0.1-0.2,0-0.2,0.1c0.1,0,0,0.1,0,0.3c0-0.1-0.1-0.3-0.2-0.3
	c0,0.1-0.1,0-0.1,0.2l0.2,0c0,0,0,0.2-0.1,0.2c0,0,0-0.1,0-0.1c-0.3,0-4-0.2-4.3-0.1c-0.3-0.1-0.1-0.5-0.4-0.6l0-0.1
	c-0.1-0.3-0.2-0.5-0.2-0.8c0,0,0-0.1,0-0.1c0,0,0,0-0.1,0c0,0-0.1,0.1-0.1,0.1c0,0-0.1,0.1-0.1,0.1c-0.1,0.1-0.2,0.1-0.2,0.2
	c-0.1,0.1-0.1,0.1-0.1,0.2l-0.4,0.3l-0.2,0.1c0.1,0-0.3,0.1-0.3,0.2l-0.3,0.3c0,0-0.1,0-0.1,0c0,0-0.1,0-0.1,0l-0.3,0.1
	c-0.1,0-0.3,0.1-0.4,0.1c-0.1,0-0.1,0-0.2,0c-0.1,0-0.1,0.1-0.3,0.1c0,0-0.1,0-0.1,0c0,0-0.1,0-0.1,0c-0.1,0-0.2,0-0.3,0L100,35
	h-0.2c0,0-0.1,0-0.1,0h-0.4c0,0-0.1,0-0.1,0h-0.5c-0.3,0-0.7,0-1,0c-0.3,0-0.7-0.1-1-0.1c-0.1,0-0.1,0-0.2,0l-0.1,0l0.1-0.1L96,34.6
	l-0.1,0.2c-0.1,0-0.2,0-0.3-0.1c-0.1,0-0.1,0-0.2,0h-0.1v0h-0.1v0L95,34.5c0,0,0.1-0.1,0.2-0.1c0.1-0.1,0.2-0.2,0.2-0.2
	c-0.2,0-0.4,0-0.5,0l0.1,0.1l0.1,0.1H95l-0.8-0.3c-0.1,0-0.2-0.1-0.4-0.1c0,0,0,0-0.1,0l-0.1-0.1l-0.2-0.1c-0.1,0-0.2-0.1-0.4-0.2
	L93,33.4l-0.4-0.3c0,0-0.1-0.1-0.1-0.1l-0.2-0.2c0,0,0-0.1-0.1-0.1l-0.3-0.3l-0.3-0.4l-0.1-0.1l-0.1-0.2c0,0,0,0,0-0.1c0,0,0,0,0,0
	l-0.1-0.1h0c-0.1-0.1-0.1-0.2-0.2-0.3c-0.1-0.1-0.1-0.2-0.2-0.3l-0.1-0.1l-0.1-0.2L90.5,30l0.1,0.3c0.1-0.1,0.1-0.2,0.1-0.3
	c0-0.1,0-0.3-0.1-0.4l0,0.2c-0.1-0.1-0.1-0.1-0.1-0.3v0c0,0,0-0.1,0-0.1c0,0,0-0.1,0-0.1c0-0.1,0-0.2,0-0.3v-0.2c0-0.1,0-0.1,0-0.2
	v-0.3c0-0.1,0-0.1,0.1-0.2c0,0-0.1,0-0.1,0V28l-0.1,0.1V28c0,0,0-0.1,0-0.2c0-0.1,0-0.1,0-0.2c0.1,0,0-0.1,0-0.3
	c0-0.1-0.1-0.2,0-0.2c0-0.1-0.1,0-0.1,0c0-0.1,0-0.3-0.1-0.5c0,0,0-0.1,0-0.1c0,0,0-0.1,0-0.1c0-0.1-0.1-0.3-0.1-0.4v-0.3
	c0-0.1,0-0.1,0-0.2s0-0.1,0-0.1s0-0.1,0-0.1c0-0.1,0-0.3,0-0.6l0.1-0.1l-0.2-0.1c0.2-0.1,0.2-0.3,0.3-0.4c0,0,0-0.1,0-0.1
	c0,0,0-0.1,0-0.1c0-0.1,0.1-0.1,0.2-0.1c-0.1-0.1,0-0.1,0-0.2c0,0,0-0.1,0-0.1V23c-0.1,0-0.1,0-0.1,0.1c0,0,0,0,0,0.1c0,0,0,0,0,0.1
	c0,0.1-0.1,0.2-0.1,0.3c0-0.1,0-0.1,0-0.3v-0.1c0-0.1,0-0.1,0-0.2l0.1-0.4l0.1-0.4c0,0,0-0.1,0-0.1v-0.1c0,0,0,0,0-0.1l0.1-0.5
	l0.1-0.3l0.2-0.6c0.1-0.1,0.1-0.2,0.1-0.3l0.1-0.3c0.1-0.3,0.3-0.4,0.5-0.6c0,0.1,0.1,0.2,0.2,0.2c0,0,0.1,0,0.1,0c0,0,0,0,0.1,0
	l-0.2-0.5l0.1-0.1l0.1-0.1c0.1-0.1,0.1-0.1,0.2-0.2l0.4-0.4l0.4-0.4l0.4-0.3l0.3-0.2c0.1-0.1,0.1-0.1,0.2-0.1
	c-0.1,0-0.1,0.1-0.1,0.1c0,0,0.1,0,0.2,0l0.2-0.1l0.1-0.2c-0.1,0-0.1,0.1-0.1,0l0.3-0.2c0.1,0,0.1-0.1,0.1-0.2c0,0.1,0.3-0.1,0.3,0
	c0-0.1,0.1-0.1,0.2-0.2l0.3-0.1c0,0,0.1,0,0.1,0c0,0,0,0,0.1,0l0.1-0.1c0.1,0,0.2-0.1,0.2-0.2c0.3-0.1,0.3-0.1,0.4-0.1
	c0.1,0,0.1,0.1,0.4,0l0-0.3h0c0,0,0.1,0,0.1,0l0.4-0.1l1.1-0.3l0.6-0.1c0.1,0,0.2,0,0.3,0c0,0,0,0,0,0c-0.1,0.1-0.1,0.1-0.1,0.3v0
	l0,0c0,0,0.1,0,0.1,0l0.2-0.1c0,0,0.1,0,0.1,0c0.1-0.1,0.3-0.1,0.4-0.2c0,0,0,0,0.1,0c0,0,0.1,0.1,0.2,0.1c0.5-0.1,1,0,1.5-0.1l0,0
	c0.9,0,1.8,0.1,2.7,0.3c0.9,0.1,1.7,0.4,2.5,0.7c0.3,0.1,0,0.2,0.3,0.3c0.1,0.1,0.4,0.1,0.5,0.1c0-0.1-0.1-0.1,0-0.1
	c0.1,0.1,0.2,0.1,0.3,0.1h-0.1l0,0l0.1,0c0,0,0,0,0-0.1c0.2,0.1,0.4,0.2,0.5,0.3l0.6,0.4c0.2,0.4-0.1,0.8-0.1,1.1v0.1l-0.1,0.3
	l0.1,0.1c0,0.1,0,0.2,0.1,0.2h-0.1c0,0.2,0.3,0.5,0.3,0.6h-0.1c0,0.1,0.1,0.3,0.4,0.3c-0.1,0.2-0.3,0.2-0.2,0.4l0-0.1
	c0.1,0.3-0.1,1.5,0,1.7l-0.1,0c0.1,0.2,0,0.5,0.2,0.8c-0.1,0.2-0.1,0.8-0.2,1.3c-0.1,0.1-0.1,0.3-0.2,0.5l0.1,0.1l0.1-0.1
	c0,0.5,0,0.9,0.1,1.1c0,0.4,0,0,0,0.5c0,0.1,0.1,0.1,0.1,0c0,0.1,0,0.3-0.1,0.5c0.2,0.9,0.1,2.6,0.1,3.5c0,0.6,0.1,2.5,0.1,3.1
	l0.1,0.1C109.3,33,109.3,33,109.2,33.2z M102.9,25.3c0.3-0.1,0.1-0.3,0.4-0.3c-0.1,0,0-0.1-0.1-0.2c-0.2,0.1-0.1,0.2-0.3,0.2
	c-0.1-0.4,0-2.2,0.1-2.6c0,0,0.1,0,0.2-0.1l-0.1-0.1c0,0-0.1,0.1-0.1,0c0,0,0-0.1-0.2-0.1c0.1,0,0.1-0.1,0.1-0.1
	c-0.1-0.1,0.2-0.3-0.1-0.4c-0.1-0.2,0.2-0.1,0.2-0.3h-0.2c0,0,0-0.5,0-0.9c-0.1,0-0.1,0-0.2,0c-0.1,0-0.2,0-0.3,0l0,0
	c-0.1,0-0.1,0-0.2,0h-0.1c-0.1,0-0.2,0-0.2,0l0,0c0,0,0,0,0,0c-0.1,0-0.1,0-0.2,0c-0.1,0.1-0.2,0.1-0.1,0.3c-0.2,0-0.2-0.1-0.3-0.1
	c-0.1-0.1-0.1-0.1-0.4,0h0.1c-0.1,0-0.3,0-0.6,0.1c-0.3,0-0.6,0-0.9,0.1c-0.3,0-0.6,0.1-0.8,0.2c-0.1,0-0.2,0.1-0.3,0.1L98,21.2
	l0-0.1c-0.1,0.1-0.3,0.2-0.4,0.3l-0.1,0.1c0,0-0.1,0-0.1,0.1c0,0-0.1,0.1-0.1,0.1l0,0v0l-0.1,0.1c0,0-0.1,0-0.1,0.1
	c-0.1,0-0.1,0-0.1,0.1l-0.1,0.1c-0.1,0-0.1,0.1-0.1,0.1c0,0-0.1,0-0.1,0.1c0,0,0,0.1-0.1,0.1l-0.1,0.1c0,0,0,0,0,0.1l0,0
	c0,0,0,0.1-0.1,0.1v0.1l0,0c-0.1,0.2-0.2,0.4-0.2,0.6h0c0-0.1,0-0.1,0-0.2v0h0c-0.1,0.1-0.1,0.1-0.1,0.2c0,0.1,0.1,0.3,0.1,0.5
	c0,0,0,0.1,0,0.1c-0.1,0.3-0.1,0.7-0.1,0.9c0,0.1,0,0.1,0,0.2v0.1c0,0,0,0.1,0.1,0.1l0,0v0.3c0,0.1,0.1,0.1,0.1,0c0,0.1,0,0.1,0,0.2
	V26c0,0.1,0,0.3-0.1,0.4c0,0.1,0,0.2,0,0.3l0.1,0.3c0,0.1,0,0.1,0,0.1v0.2c0,0,0,0.1,0,0.1c0,0,0,0.1,0,0.1c0,0,0,0.1,0,0.1
	c0,0.1,0,0.1,0,0.1l0.1,0.1c0,0,0,0.1,0,0.1v0.1c0,0,0,0,0,0c0,0.1,0,0.1,0,0.1l0,0l0,0.1v0c0,0,0,0,0,0v0c0,0,0,0,0,0.1l0.1,0.1
	c0,0,0,0,0,0.1c0,0,0,0,0,0c0,0.1,0.1,0.1,0.1,0.1c0,0,0.1,0,0.1,0l0,0h0.1v0c0.1,0,0.3,0.1,0.6,0.1c0.2,0,0.4,0.1,0.7,0.1H99
	c0,0,0.1,0,0.1,0h0.1c0.1,0,0.2,0,0.3,0c0,0,0.1,0,0.1,0l0,0h0c0.1,0,0.1,0,0.2-0.1c0.3-0.1,1-0.2,1.1-0.3c0,0,0-0.1,0-0.1l0.1-0.1
	c0,0,0.1,0,0.1-0.1c0,0,0.1,0,0.1-0.1l0.1-0.1c0,0,0-0.1,0-0.1c0.1-0.1,0.2-0.1,0.3-0.3c0.2-0.1,0.3-0.2,0.3-0.3h0
	c0,0,0.1,0.1,0.1,0.1c0,0,0.1,0.1,0.1,0.1l0.4-0.1c0,0,0.1,0,0.1-0.1c0-0.1,0.1-0.1,0.2-0.2c0,0,0,0,0,0h0c0-0.1-0.1-0.1-0.1-0.1
	c0,0,0,0-0.1,0H103l0.2-0.2l0,0h-0.1c-0.1,0-0.2,0-0.3,0.1l0,0c0,0-0.1,0-0.1,0.1l0.4-0.3c0,0,0,0,0.1,0l0,0c0,0,0-0.1,0-0.1
	c0.1,0.1,0.1,0,0.2-0.1v0c-0.1,0-0.1-0.1-0.1-0.2c0.1,0-0.1-0.2,0-0.2c0,0-0.1,0-0.1,0c0.1-0.1,0-0.3,0-0.5
	C103.1,25.5,103.2,25.9,102.9,25.3l0.2,0L102.9,25.3z M72.2,33.2C72.2,33.2,72.2,33.2,72.2,33.2C72.2,33.2,72.2,33.2,72.2,33.2z
	 M135.4,37.4c0.5-0.6,0.9-1.4,1-2.2c0.2-0.6,0.2-1-0.1-1.1c-0.2,0-0.6,0.3-0.9,0.4c-0.6,1.3-1.8,1.8-2.9,2.5
	c-0.2,0.2-0.4,0.4-0.6,0.5c-0.8,0.6-1.8,0.9-2.7,1.3c-0.7,0.3-1.4,0.4-2.2,0.4c-2.4,0.3-4.8,0.2-7,0.1c-0.4,0-0.8-0.2-1.1-0.2
	c-0.2,0-0.3,0.1-0.4,0.1c-0.5,0-1-0.2-1.5-0.3c-0.6-0.1-1.3,0-1.8-0.2c-0.3-0.1-0.4-0.4-0.7-0.1c-0.1,0.1-0.1,0.2,0,0.3
	c0.2,0.1,0.5,0.1,0.8,0.2c1.3,0.5,2.9,0.9,4.4,1.1c0.6,0.1,1.2,0.3,1.7,0.4c2,0.2,4.2,0.3,6.4,0.2c2.2-0.2,4.4-0.8,6.1-1.9
	C134.4,38.6,135,38.1,135.4,37.4z M31.1,36.3c-0.7-0.1-1.2-0.2-1.3-0.2c0,0,0-0.1,0-0.1h0.1l0.2-0.3c0,0,0,0,0.1-0.1h0l0,0
	c-0.2-0.1-0.2-0.2-0.3-0.2c0,0-0.1,0-0.2,0.1c0-0.2,0-0.3-0.2-0.4c0,0.1,0-0.2-0.1-0.1c0-0.1,0-0.2,0-0.2c0.1,0.1,0.1,0.2,0.2,0.2
	c0-0.3,0-0.6,0-0.8l0.1-0.2h-0.1c0-0.1,0-0.2,0-0.2c0.1-0.3-0.3-0.3-0.3-0.4h0.2v-0.2c-0.1,0-0.3,0-0.4,0.1c-0.1,0,0-0.1-0.1-0.2
	c0,0,0.2,0.1,0.2,0c0-0.2-0.1-0.1-0.2-0.3c0,0,0.2,0.2,0.3,0c0.1-0.5,0-3,0-3.5c0.1,0,0.5,0,0.5,0.1l-0.1-0.2l-0.2,0.1
	c-0.2-0.2-0.4-1.1-0.5-1.7c0.1,0,0.1,0,0.1-0.1c0,0,0-0.1,0-0.2v0c0,0,0-0.1,0-0.1c0,0,0.1,0,0.1,0s0.1,0,0.1,0h0
	c0-0.3-0.1-0.4-0.2-0.6h0v0.1c0,0-0.1,0-0.1-0.1c0.1-0.1,0.1-0.2,0-0.3l-0.1,0.1c-0.2-0.2,0-0.3-0.1-0.6l0,0.1c-0.1-0.1,0-0.2,0-0.2
	c0.1,0.2,0.2,0,0.2-0.1c-0.2,0-0.2-0.2-0.2-0.3c0.2,0-0.1-0.3,0-0.3c0-0.1-0.1,0-0.2,0c0.1-0.2-0.2-0.3-0.2-0.6c0-0.6,0.2-0.1,0-0.7
	l0.1-0.1l-0.2,0c0.3-0.1,0.1-0.4,0.4-0.4c-0.2-0.1,0-0.2-0.1-0.3c-0.2,0.1-0.1,0.2-0.3,0.3c-0.1-0.5,0.1-2.7,0.2-3.4l0,0
	c0,0.1,0.2,0.1,0.2,0.1c0.1,0,0.2,0,0.2-0.1c-0.1-0.1-0.2-0.2-0.2-0.2h-0.1l0-0.2c-0.1,0-0.1,0.1-0.1,0c-0.1-0.1,0.1-0.2-0.1-0.2
	c0.1,0,0.1-0.1,0.2-0.1c-0.2-0.1,0.2-0.5-0.2-0.6c0-0.3,0.2,0,0.2-0.3l-0.2,0c0,0,0-1.1-0.1-1.5v-0.1c0.1,0,0.1,0,0.2-0.1l0-0.4
	l0.2-0.5v-0.2h-0.1c0,0,0,0,0,0c0,0,0,0,0,0.1c0,0,0,0.1,0,0.1c0-0.9,0.1-1.6,0.2-2.5c0-0.1,0.1-0.1,0.2-0.1c0,0,0-0.1,0.1-0.1
	c0-0.1,0-0.2-0.1-0.2c0-0.1,0-0.2,0-0.2c0,0.1,0.1,0.2,0.2,0.1v0.2c0.2,0,0-0.1,0-0.2v-0.1h0.1c0,0,0.1,0,0.1-0.1
	c-0.1-0.1-0.2-0.2-0.3-0.2l0.1,0c0,0,0,0,0,0l0,0c0,0,0,0,0,0l0.1-0.1l0.1,0L29,12.2c0,0,0-0.1,0-0.1c0,0,0,0.1,0,0.1l-0.1,0
	l0.1-0.1c0-0.1,0-0.2,0.1-0.4c0,0.2,0.1,0.2,0.2,0.1c-0.1,0-0.1-0.2,0-0.3c0.2,0.6,0.5-0.4,0.7,0c-0.1-0.1,0.3-0.9,0-0.8l-0.1,0.2
	c-0.1-0.1,0.1-0.2,0.1-0.3c0,0.1-0.1,0.2,0,0.2c0.4-0.8,1.1-1.3,1.7-2.1c0,0.1-0.2,0.4,0,0.3c0.7-0.6,0.3-0.5,1-1.1
	c0.2,0.2-0.1,0,0.1,0.2c0.7-0.7,1.5-1.3,2.4-2c0.3,0.1,0.5,0,0.8-0.2c0.4-0.3,1-0.5,1.5-0.5c0-0.2,0.5-0.4,1.1-0.6
	c-0.3,0.2,0.3,0,0,0.2c0.3-0.2,0.9-0.4,1.3-0.5c0.2-0.1,0.4-0.1,0.4-0.1c0.1,0,0,0.1-0.2,0.2c0.2-0.2,0.4-0.2,0.5-0.2
	c-0.2,0.3-0.7,0.9-0.6,1c-0.3,0.4-0.5,0.7-0.7,1.1c-0.2,0.4-0.5,0.8-0.7,1.2c0.2-0.1,0.1,0.1,0,0.4c-0.1,0.2-0.1,0.3-0.1,0.4
	c0,0,0-0.1,0-0.1c-0.2,0.2,0.1,0.2,0,0.2c-0.1,0-0.2,0.1-0.2,0.1c0.1,0,0.2,0,0.2,0c0,0,0,0,0,0.1c0,0-0.1,0.1-0.2,0.1
	c0.4-0.1,0.2,0,0.9-0.3c0.6-0.2,1.2-0.5,1.7-0.9l-0.1,0.3c0.8-0.1,0.3-0.6,0.7-0.8c0.4-0.3,1-0.7,1.4-1.2l0.1-0.1
	c0,0,0.1-0.1,0.1-0.2c0.1-0.1,0.2-0.3,0.3-0.4c0.2-0.3,0.3-0.6,0.4-1c0.3-0.7,0.5-1.4,0.7-2l0.2,0.2c0.1,0.1,0.1,0.1,0.2,0.2
	l0.5,0.8c0.1,0.1,0.1,0.1,0.1-0.1c0.1,0.3,0,0.3,0.2,0.4l0-0.2c0.1,0.4,0.3,0.7,0.5,1.1c0.2,0.4,0.3,0.8,0.4,1.3
	c0.1,0.2,0.1,0.5,0.1,0.7c0,0.2,0,0.3,0,0.5c0,0.1,0,0.3-0.1,0.4c0,0.1-0.1,0.1-0.2,0.1c0.1,0.1,0,0.1,0,0.2l-0.1,0.1
	c0,0,0.1,0,0.1,0c0.1,0,0.2,0,0.3-0.1c0.1,0.1-0.2,0.2,0,0.2c0.2-0.1,0.6-0.1,1.1-0.1l-0.1,0c0.5,0,1,0.1,1.5,0.3
	c0.2,0.1,0.5,0.2,0.7,0.3L50,8.8c0.1,0,0.2,0.1,0.2,0.1c-0.8,0.6-1.4,1.1-1.8,1.6l0-0.1c-0.1-0.1-0.4,0.1-0.5,0.3
	c0,0.1,0.1,0,0.3-0.1c-0.1,0.1-0.1,0.1-0.2,0.2c0,0-0.1,0.1-0.1,0.1c0,0.1-0.1,0.1-0.1,0.2c-0.1,0.1-0.1,0.2-0.2,0.3
	c-0.1,0.2-0.2,0.4-0.4,0.7c0-0.3-0.2,0.2-0.4,0.1c0,0.2,0.2,0,0.1,0.4c0,0,0,0.1,0,0.1c-0.3,0.1-0.7,0.2-1,0.4
	c0.4,0.1,0.7,0.2,1.1,0.3C47,14.1,47,14.5,47,14.8c0,0.1,0,0.2,0,0.3c0,0,0,0.1,0,0.1c0.1,0.2,0.1,0.3,0.1,0.5c0,0,0,0.1,0.1,0.2
	c0,0,0,0.1,0,0.2c0,0.1,0,0.2,0,0.3c0,0,0,0,0,0.1v0.1c0,0.1,0,0.1,0,0.2c0,0.1,0,0.1,0,0.2l0.1,0.1c0,0,0.1,0,0.1,0.5
	c0,0.1,0.1,0.2,0.2,0v0.3c0,0.1,0,0.1,0,0.2V18c0,0.1,0,0.2,0,0.3l-0.1,0.3c0,0.1-0.1,0.2-0.1,0.3c0,0.2,0,0.3,0,0.5v0
	c-0.1,0-0.1,0-0.2,0h-0.3c-0.2,0-0.2,0-0.3-0.2c0,0,0,0,0,0h0l-0.1,0.2h0c0.2,0.2,0.5,0.3,0.7,0.3v0.1c0,0.1,0,0.1,0.1,0.2V20
	c0,0.1,0,0.2-0.1,0.3c0,0,0,0.1,0,0.1c-0.6,1.4-1.6,2.1-1.9,2.2h0.1c0.1,0,0.4,0.1,0.8,0.3v0c0,0-0.1,0.1-0.1,0.2
	c0,0,0.1,0.1,0.2,0.1c0.1,0,0.2,0,0.3,0c0,0,0,0,0,0c0.4,0.2,0.8,0.5,1.1,0.8c0.3,0.2,0.5,0.5,0.7,0.7L48.4,25c0,0.1,0,0.2,0,0.2v0
	h0c0.2,0,0.2-0.1,0.2-0.2v0c0,0,0-0.1,0-0.2c0,0,0-0.1,0-0.1c0.2,0.3,0.4,0.5,0.5,0.8l0.1,0.2c0,0,0,0,0,0.1l0.2,0.6l0.2,0.5
	l0.1,0.5l0.2,0.7c0,0.2,0,0.3,0,0.4c0,0.1,0,0.2,0,0.2l0.1,0.1c0,0,0,0,0,0.1v0.5c0,0.2,0.1,0.2,0.2,0v0.2c0,0,0,0.1,0,0.2
	c0,0.1,0,0.2,0,0.3c0,0.1,0,0.3-0.1,0.3L50,30.5c0,0,0,0,0,0.1c0,0,0,0,0,0.1c0,0.1,0,0.2,0,0.2V31c0,0,0,0,0,0.1v0.1l-0.1,0.3
	c0,0.1,0,0.1,0,0.2c0,0.1,0,0.1,0,0.2l-0.1,0.3v0.1c0,0,0,0,0,0.1l-0.1,0.2l-0.1,0.2l-0.1,0.2l-0.2,0.3c0,0,0,0-0.1,0.1
	c0,0,0,0,0,0.1L49,33.4l-0.2,0.3c-0.1,0.1-0.2,0.2-0.3,0.3l-0.3,0.3c-0.3,0.4-0.8,0.8-1.2,1.1L46.1,36l0,0H46
	c-0.1,0-0.2,0.1-0.3,0.2c0,0,0,0,0,0l-0.3,0.2c0,0-0.1,0.1-0.2,0.1l-0.2,0.1l-0.3,0.1c-0.1,0-0.2,0.1-0.3,0.1l-0.3,0.1L44,36.9
	L43.7,37L43.5,37c-0.3,0.1-0.6,0.1-0.9,0.2c-0.3,0-1,0.2-1.6,0.2c-0.7,0.1-1.5,0.1-2.2,0.1c-0.8,0-1.6,0-2.2-0.1
	c-0.6,0-1.2-0.1-1.4-0.2l-0.3,0.1c-0.2-0.1-0.4-0.2-0.6-0.2c0,0,0,0,0-0.1l-0.1-0.4l0-0.1c-0.1,0-0.2,0-0.3,0.2l0,0l0.3-0.1l0,0.3
	c-0.2,0-0.1,0.1,0,0.2c-0.3-0.2-0.6-0.1-0.8-0.2l0,0c-0.2-0.1-0.4-0.1-0.6-0.1c-0.2,0-0.4,0-0.6-0.1v0c-0.2-0.2-0.5,0-0.6,0
	c-0.2-0.1,0-0.2-0.1-0.3h-0.1C31.2,36.4,31.1,36.4,31.1,36.3z M41.8,26.7c-0.1,0-0.1,0-0.2,0c0,0-0.1,0-0.2,0.1h-0.1c0,0,0,0,0,0
	c0,0,0,0,0-0.1c0-0.1,0-0.2-0.2-0.2l0,0.2h-0.1c0,0,0,0-0.1,0h-0.1c-0.1,0-0.2,0-0.3,0h-0.2c0,0-0.1,0-0.2,0c-0.1,0-0.1,0-0.2,0
	c0,0,0,0-0.1,0c-0.1,0.1-0.1,0.1-0.2,0.1c-0.1,0.1-0.1,0.1-0.1,0.1c0-0.1-0.1-0.1-0.1-0.2c-0.1,0-0.2,0-0.2,0.1c0-0.1,0-0.2-0.1-0.2
	c-0.4,0-0.7,0-1.1,0.1c0,0,0.1,0,0-0.1l-1.9,0.1c-0.4,0-0.7,0-1.1,0.1c0,0.3,0,0.6,0,0.9c0,0,0.1,0.1,0.1,0.1v0.1h-0.1c0,0,0,0,0,0
	c0,0.6,0.1,1.3,0.1,1.9l0,0l0.1,1.7l1,0.2c0.3,0.1,0.5-0.2,0.5-0.2l0,0.2l0.3,0.1c0-0.2,0-0.4-0.1-0.5c0-0.1,0.1,0,0.2,0
	c0,0-0.1,0.1,0,0.2c0.2,0,0.1-0.1,0.4-0.1c0,0-0.2,0.2,0,0.3c0.1,0,0.5,0.1,0.9,0.1c0.4,0,0.9,0.1,1.4,0c0,0.1,0,0.2,0,0.2
	c0,0.2,0,0.3,0.2,0.5h0l0,0c0-0.3-0.1-0.5-0.1-0.6c0.4,0,0.8-0.1,1.2-0.1h0.1c0,0,0.1,0,0.2,0c0.1,0,0.2,0,0.2,0c0.2,0,0.2,0,0.3,0
	v0.2c0,0.1,0,0.3,0,0.3c0.1,0,0.2-0.1,0.2-0.2c0,0-0.1-0.1-0.2-0.2c0-0.1,0.2-0.2,0.4-0.3c0,0,0.1,0,0.1-0.1l0.2-0.1c0,0,0,0,0.1,0
	c0,0,0,0,0.1,0l0.1-0.1c0.2-0.1,0.3-0.2,0.4-0.3l0.1-0.1c0,0,0,0,0-0.1c0,0,0-0.1,0-0.1l0,0v-0.1c0,0,0-0.1,0-0.1c0,0,0,0,0-0.1h0v0
	c0.2,0.2,0.2,0.1,0.3,0c0,0-0.1,0-0.1,0c0,0,0-0.1,0-0.1c0,0,0,0,0,0l0,0h0v0h-0.1c0,0,0-0.1,0-0.1c0,0,0.1,0,0.1,0h0c0,0,0,0,0-0.1
	c0,0,0-0.1,0-0.1c0,0,0,0,0,0v0c0,0,0-0.1,0,0c0-0.1-0.2-0.1-0.2-0.1c0,0,0,0,0,0c0,0,0-0.1,0-0.1c0,0,0,0,0-0.1c0,0,0,0,0,0v-0.1
	c0,0,0,0,0-0.1c0,0,0-0.1,0-0.1c0,0,0,0,0-0.1v-0.1c0,0,0,0,0-0.1l0,0v0l0,0c0,0,0.1,0,0.1-0.1h-0.1c0,0,0.1,0,0.1-0.1
	c0,0,0,0,0-0.1c0,0,0,0,0-0.1l0.2-0.1c-0.1,0-0.1,0-0.1,0c0,0,0,0,0-0.1l-0.1,0.1l0,0c0,0,0,0.1-0.1,0.1l0-0.1c0,0,0-0.1,0-0.1
	c0.1-0.1,0.2-0.2,0.1-0.3v0l-0.4-0.1c0,0,0,0,0,0c0,0,0,0,0,0c0,0,0,0-0.1,0c0,0-0.1-0.1-0.1-0.1c-0.2-0.1-0.3-0.5-0.5-0.6
	c0.1,0,0.1-0.1,0.1-0.2l-0.2,0c0,0,0,0.1,0,0.1c-0.1,0-0.2-0.2-0.2,0c0,0,0-0.1,0-0.1l0,0c0,0-0.1,0-0.1,0L41.8,26.7
	C41.8,26.8,41.8,26.8,41.8,26.7z M34.7,19L34.7,19c0.1,0.3-0.1,0.7,0.2,1c0,0.3-0.1,0.9-0.2,1.7c0.4,0,0.8,0,1.1,0
	c0.3,0,0.3-0.1,0.4-0.1v0.2h0.3c0-0.1,0-0.3-0.2-0.4c0-0.1,0.1,0,0.2,0c0,0-0.1,0.2,0,0.2c0.2,0,0.1-0.1,0.3-0.2
	c0,0-0.2,0.2,0.1,0.3c0.1,0,0.4,0,0.8,0c0.3,0,0.7,0,1.1-0.1c0.4-0.1,0.7-0.2,1-0.3l0.5-0.3c0,0,0,0.1,0.1,0.2c0,0.1,0,0.2,0,0.3
	l0,0l0-0.1l0.1-0.1L40.4,21c0,0,0-0.1,0.1-0.1c0-0.1,0.3-0.1,0.3-0.2c0,0,0.1-0.1,0.1-0.1l0.1-0.1l0.2-0.2c0.1-0.1,0.2-0.6,0.2-0.8
	c0,0,0-0.1,0-0.2c0,0,0-0.1,0-0.1l0,0v-0.2c0,0,0,0,0-0.1c0,0,0,0,0-0.1v0.1c0.1,0,0.2,0,0.2,0V19c0,0,0,0,0,0h-0.1c0,0,0-0.1,0-0.1
	v-0.1l0.1-0.1c0,0,0,0,0-0.1l-0.1,0c0,0,0-0.1,0-0.1c0,0,0,0,0.1,0c0,0,0,0,0.1,0c0,0-0.1,0-0.1,0s-0.3-0.1-0.3-0.1v-0.1
	c0.1,0,0,0,0-0.1c0,0,0-0.1,0-0.1c0,0-0.2,0-0.2,0v-0.1c0,0,0-0.1,0-0.1c0,0-0.1-0.1-0.1-0.1c0,0,0-0.1,0-0.1v0l0,0
	c0-0.1,0-0.2,0-0.2c0,0,0,0,0-0.1l0,0c0,0,0-0.1,0-0.1c0,0,0,0,0,0c0,0,0,0,0,0l0.1-0.1h-0.2c0.2,0,0.2-0.1,0.2-0.2l0.2-0.1h0v0
	c0,0,0,0-0.1,0c-0.1,0-0.1,0.1-0.2,0.1L41,17v0c0,0,0,0,0-0.1c0,0,0,0,0-0.1v-0.1h0v0h0c0,0,0,0,0,0v0c0,0,0,0,0,0l-0.3-0.2
	c0.1,0,0.1-0.1,0.1-0.2h-0.2c0,0.1,0,0.1,0,0.1c-0.1,0-0.1-0.1-0.2,0.1c0-0.1,0-0.2,0-0.2c0,0,0,0,0,0c0,0,0,0-0.1,0
	c0,0-0.1,0-0.1,0c-0.1,0-0.2-0.1-0.3,0.1c-0.2,0,0-0.2-0.3-0.3l0,0.2h-0.8c-0.4,0-0.8,0.1-0.8,0.1l-0.2-0.2l-0.9,0.2v-0.1
	c-0.6,0.1-1.1,0.2-1.7,0.2c-0.1,0-0.2,0-0.3,0C34.8,17.3,34.6,18.7,34.7,19z M30,10.5C30,10.5,30,10.4,30,10.5
	C30.1,10.3,30.1,10.4,30,10.5z M38.4,4.7L38.4,4.7L38.4,4.7L38.4,4.7z M112.2,23.4c-0.2-0.1,0-0.2-0.1-0.3c-0.2,0.1-0.1,0.2-0.3,0.3
	c-0.1-0.5,0.1-2.7,0.2-3.4l0,0c0,0.1,0.2,0.1,0.2,0.1c0.1,0,0.2,0,0.2-0.1c-0.1-0.1-0.2-0.2-0.2-0.2h-0.1l0-0.2
	c-0.1,0-0.1,0.1-0.1,0c-0.1-0.1,0.1-0.2-0.1-0.2c0.1,0,0.1-0.1,0.2-0.1c-0.2-0.1,0.2-0.5-0.2-0.6c0-0.3,0.2,0,0.2-0.3l-0.2,0
	c0,0,0-1.1-0.1-1.5v-0.1c0.1,0,0.1,0,0.2-0.1l0-0.4l0.2-0.5v-0.2h-0.1c0,0,0,0,0,0c0,0,0,0,0,0.1c0,0,0,0.1,0,0.1
	c0-0.9,0.1-1.6,0.2-2.5c0-0.1,0.1-0.1,0.2-0.1c0,0,0-0.1,0.1-0.1c0-0.1,0-0.2-0.1-0.2c0-0.1,0-0.2,0-0.2c0,0.1,0.1,0.2,0.2,0.1v0.2
	c0.2,0,0-0.1,0-0.2v-0.1h0.1c0,0,0.1,0,0.1-0.1c-0.1-0.1-0.2-0.2-0.3-0.2l0.1,0c0,0,0,0,0,0l0,0c0,0,0,0,0,0l0.1-0.1l0.1,0l-0.2,0.1
	c0,0,0-0.1,0-0.1c0,0,0,0.1,0,0.1l-0.1,0l0.1-0.1c0-0.1,0-0.2,0.1-0.4c0,0.2,0.1,0.2,0.2,0.1c-0.1,0-0.1-0.2,0-0.3
	c0.2,0.6,0.5-0.4,0.7,0c-0.1-0.1,0.3-0.9,0-0.8l-0.1,0.2c-0.1-0.1,0.1-0.2,0.1-0.3c0,0.1-0.1,0.2,0,0.2c0.4-0.8,1.1-1.3,1.7-2.1
	c0,0.1-0.2,0.4,0,0.3c0.7-0.6,0.3-0.5,1-1.1c0.2,0.2-0.1,0,0.1,0.2c0.7-0.7,1.5-1.3,2.4-2c0.3,0.1,0.5,0,0.8-0.2
	c0.4-0.3,1-0.5,1.5-0.5c0-0.2,0.5-0.4,1.1-0.6c-0.3,0.2,0.3,0,0,0.2c0.3-0.2,0.9-0.4,1.3-0.5c0.2-0.1,0.4-0.1,0.4-0.1
	c0.1,0,0,0.1-0.2,0.2c0.2-0.2,0.4-0.2,0.5-0.2c-0.2,0.3-0.7,0.9-0.6,1c-0.3,0.4-0.5,0.7-0.7,1.1c-0.2,0.4-0.5,0.8-0.7,1.2
	c0.2-0.1,0.1,0.1,0,0.4c-0.1,0.2-0.1,0.3-0.1,0.4c0,0,0-0.1,0-0.1c-0.2,0.2,0.1,0.2,0,0.2c-0.1,0-0.2,0.1-0.2,0.1c0.1,0,0.2,0,0.2,0
	c0,0,0,0,0,0.1c0,0-0.1,0.1-0.2,0.1c0.4-0.1,0.2,0,0.9-0.3c0.6-0.2,1.2-0.5,1.7-0.9l-0.1,0.3c0.8-0.1,0.3-0.6,0.7-0.8
	c0.4-0.3,1-0.7,1.4-1.2l0.1-0.1c0,0,0.1-0.1,0.1-0.2c0.1-0.1,0.2-0.3,0.3-0.4c0.2-0.3,0.3-0.6,0.4-1c0.3-0.7,0.5-1.4,0.7-2l0.2,0.2
	c0.1,0.1,0.1,0.1,0.2,0.2l0.5,0.8c0.1,0.1,0.1,0.1,0.1-0.1c0.1,0.3,0,0.3,0.2,0.4l0-0.2c0.1,0.4,0.3,0.7,0.5,1.1
	c0.2,0.4,0.3,0.8,0.4,1.3c0.1,0.2,0.1,0.5,0.1,0.7c0,0.2,0,0.3,0,0.5c0,0.1,0,0.3-0.1,0.4c0,0.1-0.1,0.1-0.2,0.1
	c0.1,0.1,0,0.1,0,0.2l-0.1,0.1c0,0,0.1,0,0.1,0c0.1,0,0.2,0,0.3-0.1c0.1,0.1-0.2,0.2,0,0.2c0.2-0.1,0.6-0.1,1.1-0.1l-0.1,0
	c0.5,0,1,0.1,1.5,0.3c0.2,0.1,0.5,0.2,0.7,0.3l0.3,0.1c0.1,0,0.2,0.1,0.2,0.1c-0.8,0.6-1.4,1.1-1.8,1.6l0-0.1
	c-0.1-0.1-0.4,0.1-0.5,0.3c0,0.1,0.1,0,0.3-0.1c-0.1,0.1-0.1,0.1-0.2,0.2c0,0-0.1,0.1-0.1,0.1c0,0.1-0.1,0.1-0.1,0.2
	c-0.1,0.1-0.1,0.2-0.2,0.3c-0.1,0.2-0.2,0.4-0.4,0.7c0-0.3-0.2,0.2-0.4,0.1c0,0.2,0.2,0,0.1,0.4c0,0,0,0.1,0,0.1
	c-0.3,0.1-0.7,0.2-1,0.4c0.4,0.1,0.7,0.2,1.1,0.3c-0.1,0.4-0.1,0.8-0.1,1.2c0,0.1,0,0.2,0,0.3c0,0,0,0.1,0,0.1
	c0.1,0.2,0.1,0.3,0.1,0.5c0,0,0,0.1,0.1,0.2c0,0,0,0.1,0,0.2c0,0.1,0,0.2,0,0.3c0,0,0,0,0,0.1v0.1c0,0.1,0,0.1,0,0.2
	c0,0.1,0,0.1,0,0.2l0.1,0.1c0,0,0.1,0,0.1,0.5c0,0.1,0.1,0.2,0.2,0v0.3c0,0.1,0,0.1,0,0.2V18c0,0.1,0,0.2,0,0.3l-0.1,0.3
	c0,0.1-0.1,0.2-0.1,0.3c0,0.2,0,0.3,0,0.5v0c-0.1,0-0.1,0-0.2,0h-0.3c-0.2,0-0.2,0-0.3-0.2c0,0,0,0,0,0h0l-0.1,0.2h0
	c0.2,0.2,0.5,0.3,0.7,0.3v0.1c0,0.1,0,0.1,0.1,0.2V20c0,0.1,0,0.2-0.1,0.3c0,0,0,0.1,0,0.1c-0.6,1.4-1.6,2.1-1.9,2.2h0.1
	c0.1,0,0.4,0.1,0.8,0.3v0c0,0-0.1,0.1-0.1,0.2c0,0,0.1,0.1,0.2,0.1c0.1,0,0.2,0,0.3,0c0,0,0,0,0,0c0.4,0.2,0.8,0.5,1.1,0.8
	c0.3,0.2,0.5,0.5,0.7,0.7l-0.1,0.5c0,0.1,0,0.2,0,0.2v0h0c0.2,0,0.2-0.1,0.2-0.2v0c0,0,0-0.1,0-0.2c0,0,0-0.1,0-0.1
	c0.2,0.3,0.4,0.5,0.5,0.8l0.1,0.2c0,0,0,0,0,0.1l0.2,0.6l0.2,0.5l0.1,0.5l0.2,0.7c0,0.2,0,0.3,0,0.4c0,0.1,0,0.2,0,0.2l0.1,0.1
	c0,0,0,0,0,0.1v0.5c0,0.2,0.1,0.2,0.2,0v0.2c0,0,0,0.1,0,0.2c0,0.1,0,0.2,0,0.3c0,0.1,0,0.3-0.1,0.3l-0.1,0.2c0,0,0,0,0,0.1
	c0,0,0,0,0,0.1c0,0.1,0,0.2,0,0.2V31c0,0,0,0,0,0.1v0.1l-0.1,0.3c0,0.1,0,0.1,0,0.2c0,0.1,0,0.1,0,0.2l-0.1,0.3v0.1c0,0,0,0,0,0.1
	l-0.1,0.2l-0.1,0.2l-0.1,0.2l-0.2,0.3c0,0,0,0-0.1,0.1c0,0,0,0,0,0.1l-0.1,0.2l-0.2,0.3c-0.1,0.1-0.2,0.2-0.3,0.3l-0.3,0.3
	c-0.3,0.4-0.8,0.8-1.2,1.1l-0.9,0.6l0,0h-0.1c-0.1,0-0.2,0.1-0.3,0.2c0,0,0,0,0,0l-0.3,0.2c0,0-0.1,0.1-0.2,0.1l-0.2,0.1l-0.3,0.1
	c-0.1,0-0.2,0.1-0.3,0.1l-0.3,0.1l-0.3,0.1l-0.3,0.1L127,37c-0.3,0.1-0.6,0.1-0.9,0.2c-0.3,0-1,0.2-1.6,0.2
	c-0.7,0.1-1.5,0.1-2.2,0.1c-0.8,0-1.6,0-2.2-0.1c-0.6,0-1.2-0.1-1.4-0.2l-0.3,0.1c-0.2-0.1-0.4-0.2-0.6-0.2c0,0,0,0,0-0.1l-0.1-0.4
	l0-0.1c-0.1,0-0.2,0-0.3,0.2l0,0l0.3-0.1l0,0.3c-0.2,0-0.1,0.1,0,0.2c-0.3-0.2-0.6-0.1-0.8-0.2l0,0c-0.2-0.1-0.4-0.1-0.6-0.1
	c-0.2,0-0.4,0-0.6-0.1v0c-0.2-0.2-0.5,0-0.6,0c-0.2-0.1,0-0.2-0.1-0.3h-0.1c-0.1,0-0.2,0-0.2,0c-0.7-0.1-1.2-0.2-1.3-0.2
	c0,0,0-0.1,0-0.1h0.1l0.2-0.3c0,0,0,0,0.1-0.1h0l0,0c-0.2-0.1-0.2-0.2-0.3-0.2c0,0-0.1,0-0.2,0.1c0-0.2,0-0.3-0.2-0.4
	c0,0.1,0-0.2-0.1-0.1c0-0.1,0-0.2,0-0.2c0.1,0.1,0.1,0.2,0.2,0.2c0-0.3,0-0.6,0-0.8l0.1-0.2h-0.1c0-0.1,0-0.2,0-0.2
	c0.1-0.3-0.3-0.3-0.3-0.4h0.2v-0.2c-0.1,0-0.3,0-0.4,0.1c-0.1,0,0-0.1-0.1-0.2c0,0,0.2,0.1,0.2,0c0-0.2-0.1-0.1-0.2-0.3
	c0,0,0.2,0.2,0.3,0c0.1-0.5,0-3,0-3.5c0.1,0,0.5,0,0.5,0.1l-0.1-0.2l-0.2,0.1c-0.2-0.2-0.4-1.1-0.5-1.7c0.1,0,0.1,0,0.1-0.1
	c0,0,0-0.1,0-0.2v0c0,0,0-0.1,0-0.1c0,0,0.1,0,0.1,0s0.1,0,0.1,0h0c0-0.3-0.1-0.4-0.2-0.6h0v0.1c0,0-0.1,0-0.1-0.1
	c0.1-0.1,0.1-0.2,0-0.3l-0.1,0.1c-0.2-0.2,0-0.3-0.1-0.6l0,0.1c-0.1-0.1,0-0.2,0-0.2c0.1,0.2,0.2,0,0.2-0.1c-0.2,0-0.2-0.2-0.2-0.3
	c0.2,0-0.1-0.3,0-0.3c0-0.1-0.1,0-0.2,0c0.1-0.2-0.2-0.3-0.2-0.6c0-0.6,0.2-0.1,0-0.7l0.1-0.1l-0.2,0
	C112.1,23.7,111.9,23.4,112.2,23.4z M125.3,26.7c-0.1,0-0.1,0-0.2,0c0,0-0.1,0-0.2,0.1h-0.1c0,0,0,0,0,0c0,0,0,0,0-0.1
	c0-0.1,0-0.2-0.2-0.2l0,0.2h-0.1c0,0,0,0-0.1,0h-0.1c-0.1,0-0.2,0-0.3,0h-0.2c0,0-0.1,0-0.2,0c-0.1,0-0.1,0-0.2,0c0,0,0,0-0.1,0
	c-0.1,0.1-0.1,0.1-0.2,0.1c-0.1,0.1-0.1,0.1-0.1,0.1c0-0.1-0.1-0.1-0.1-0.2c-0.1,0-0.2,0-0.2,0.1c0-0.1,0-0.2-0.1-0.2
	c-0.4,0-0.7,0-1.1,0.1c0,0,0.1,0,0-0.1l-1.9,0.1c-0.4,0-0.7,0-1.1,0.1c0,0.3,0,0.6,0,0.9c0,0,0.1,0.1,0.1,0.1v0.1h-0.1c0,0,0,0,0,0
	c0,0.6,0.1,1.3,0.1,1.9l0,0l0.1,1.7l1,0.2c0.3,0.1,0.5-0.2,0.5-0.2l0,0.2l0.3,0.1c0-0.2,0-0.4-0.1-0.5c0-0.1,0.1,0,0.2,0
	c0,0-0.1,0.1,0,0.2c0.2,0,0.1-0.1,0.4-0.1c0,0-0.2,0.2,0,0.3c0.1,0,0.5,0.1,0.9,0.1c0.4,0,0.9,0.1,1.4,0c0,0.1,0,0.2,0,0.2
	c0,0.2,0,0.3,0.2,0.5h0l0,0c0-0.3-0.1-0.5-0.1-0.6c0.4,0,0.8-0.1,1.2-0.1h0.1c0,0,0.1,0,0.2,0c0.1,0,0.2,0,0.2,0c0.2,0,0.2,0,0.3,0
	v0.2c0,0.1,0,0.3,0,0.3c0.1,0,0.2-0.1,0.2-0.2c0,0-0.1-0.1-0.2-0.2c0-0.1,0.2-0.2,0.4-0.3c0,0,0.1,0,0.1-0.1l0.2-0.1c0,0,0,0,0.1,0
	c0,0,0,0,0.1,0l0.1-0.1c0.2-0.1,0.3-0.2,0.4-0.3l0.1-0.1c0,0,0,0,0-0.1c0,0,0-0.1,0-0.1l0,0v-0.1c0,0,0-0.1,0-0.1c0,0,0,0,0-0.1h0v0
	c0.2,0.2,0.2,0.1,0.3,0c0,0-0.1,0-0.1,0c0,0,0-0.1,0-0.1c0,0,0,0,0,0l0,0h0v0h-0.1c0,0,0-0.1,0-0.1c0,0,0.1,0,0.1,0h0c0,0,0,0,0-0.1
	c0,0,0-0.1,0-0.1c0,0,0,0,0,0v0c0,0,0-0.1,0,0c0-0.1-0.2-0.1-0.2-0.1c0,0,0,0,0,0c0,0,0-0.1,0-0.1c0,0,0,0,0-0.1c0,0,0,0,0,0v-0.1
	c0,0,0,0,0-0.1c0,0,0-0.1,0-0.1c0,0,0,0,0-0.1v-0.1c0,0,0,0,0-0.1l0,0v0l0,0c0,0,0.1,0,0.1-0.1h-0.1c0,0,0.1,0,0.1-0.1
	c0,0,0,0,0-0.1c0,0,0,0,0-0.1l0.2-0.1c-0.1,0-0.1,0-0.1,0c0,0,0,0,0-0.1l-0.1,0.1l0,0c0,0,0,0.1-0.1,0.1l0-0.1c0,0,0-0.1,0-0.1
	c0.1-0.1,0.2-0.2,0.1-0.3v0l-0.4-0.1c0,0,0,0,0,0c0,0,0,0,0,0c0,0,0,0-0.1,0c0,0-0.1-0.1-0.1-0.1c-0.2-0.1-0.3-0.5-0.5-0.6
	c0.1,0,0.1-0.1,0.1-0.2l-0.2,0c0,0,0,0.1,0,0.1c-0.1,0-0.2-0.2-0.2,0c0,0,0-0.1,0-0.1l0,0c0,0-0.1,0-0.1,0L125.3,26.7
	C125.3,26.8,125.3,26.8,125.3,26.7z M118.2,19L118.2,19c0.1,0.3-0.1,0.7,0.2,1c0,0.3-0.1,0.9-0.2,1.7c0.4,0,0.8,0,1.1,0
	c0.3,0,0.3-0.1,0.4-0.1v0.2h0.3c0-0.1,0-0.3-0.2-0.4c0-0.1,0.1,0,0.2,0c0,0-0.1,0.2,0,0.2c0.2,0,0.1-0.1,0.3-0.2
	c0,0-0.2,0.2,0.1,0.3c0.1,0,0.4,0,0.8,0c0.3,0,0.7,0,1.1-0.1c0.4-0.1,0.7-0.2,1-0.3l0.5-0.3c0,0,0,0.1,0.1,0.2c0,0.1,0,0.2,0,0.3
	l0,0l0-0.1l0.1-0.1l-0.2-0.1c0,0,0-0.1,0.1-0.1c0-0.1,0.3-0.1,0.3-0.2c0,0,0.1-0.1,0.1-0.1l0.1-0.1l0.2-0.2c0.1-0.1,0.2-0.6,0.2-0.8
	c0,0,0-0.1,0-0.2c0,0,0-0.1,0-0.1l0,0v-0.2c0,0,0,0,0-0.1c0,0,0,0,0-0.1v0.1c0.1,0,0.2,0,0.2,0V19c0,0,0,0,0,0H125c0,0,0-0.1,0-0.1
	v-0.1l0.1-0.1c0,0,0,0,0-0.1l-0.1,0c0,0,0-0.1,0-0.1c0,0,0,0,0.1,0c0,0,0,0,0.1,0c0,0-0.1,0-0.1,0s-0.3-0.1-0.3-0.1v-0.1
	c0.1,0,0,0,0-0.1c0,0,0-0.1,0-0.1c0,0-0.2,0-0.2,0v-0.1c0,0,0-0.1,0-0.1c0,0-0.1-0.1-0.1-0.1c0,0,0-0.1,0-0.1v0l0,0
	c0-0.1,0-0.2,0-0.2c0,0,0,0,0-0.1l0,0c0,0,0-0.1,0-0.1c0,0,0,0,0,0c0,0,0,0,0,0l0.1-0.1h-0.2c0.2,0,0.2-0.1,0.2-0.2l0.2-0.1h0v0
	c0,0,0,0-0.1,0c-0.1,0-0.1,0.1-0.2,0.1l-0.1,0.1v0c0,0,0,0,0-0.1c0,0,0,0,0-0.1v-0.1h0v0h0c0,0,0,0,0,0v0c0,0,0,0,0,0l-0.3-0.2
	c0.1,0,0.1-0.1,0.1-0.2h-0.2c0,0.1,0,0.1,0,0.1c-0.1,0-0.1-0.1-0.2,0.1c0-0.1,0-0.2,0-0.2c0,0,0,0,0,0c0,0,0,0-0.1,0
	c0,0-0.1,0-0.1,0c-0.1,0-0.2-0.1-0.3,0.1c-0.2,0,0-0.2-0.3-0.3l0,0.2h-0.8c-0.4,0-0.8,0.1-0.8,0.1l-0.2-0.2l-0.9,0.2v-0.1
	c-0.6,0.1-1.1,0.2-1.7,0.2c-0.1,0-0.2,0-0.3,0C118.3,17.3,118.2,18.7,118.2,19z M113.5,10.5C113.5,10.5,113.6,10.4,113.5,10.5
	C113.6,10.3,113.6,10.4,113.5,10.5z M121.9,4.7L121.9,4.7L121.9,4.7L121.9,4.7z M51.7,34.1c-0.2,0-0.6,0.3-0.9,0.4
	c-0.6,1.3-1.8,1.8-2.9,2.5c-0.2,0.2-0.4,0.4-0.6,0.5c-0.8,0.6-1.8,0.9-2.7,1.3c-0.7,0.3-1.4,0.4-2.2,0.4c-2.4,0.3-4.8,0.2-7,0.1
	c-0.4,0-0.8-0.2-1.1-0.2c-0.2,0-0.3,0.1-0.4,0.1c-0.5,0-1-0.2-1.5-0.3c-0.6-0.1-1.3,0-1.8-0.2c-0.3-0.1-0.4-0.4-0.7-0.1
	c-0.1,0.1-0.1,0.2,0,0.3c0.2,0.1,0.5,0.1,0.8,0.2c1.3,0.5,2.9,0.9,4.4,1.1c0.6,0.1,1.2,0.3,1.7,0.4c2,0.2,4.2,0.3,6.4,0.2
	c2.2-0.2,4.4-0.8,6.1-1.9c0.6-0.3,1.2-0.8,1.7-1.4c0.5-0.6,0.9-1.4,1-2.2C52,34.6,52.1,34.2,51.7,34.1z M189.5,33.8
	c-0.2-0.1-0.6,0.2-1,0.3c-0.4,0.7-1.9,2.2-2.5,2.5c-0.6,0.3-1.7,1.2-2.3,1.3c0.2,0-0.2,0,0,0c-0.5,0-1.2-0.7-1.7-0.9
	c-0.2-0.1-0.4-0.3-0.6-0.4c-0.2-0.1-1.3-0.9-1.6-1.1c-0.4-0.1-0.7-0.1-1.1,0c-0.4,0.2-0.6,0.3-0.8,0.4c-0.2,0.1-0.4,0.2-0.6,0.3
	c-2.4,1.4-5.2,2-7.7,2.1c-0.4,0-0.9-0.1-1.2-0.1c-0.2,0-0.3,0.1-0.5,0.1c-0.6,0-1.2-0.2-1.7-0.3c-0.6-0.2-1.4-0.3-1.9-0.8
	c-0.2-0.2-0.2-0.6-0.7-0.5c-0.1,0-0.2,0.1-0.1,0.2c0.2,0.2,0.4,0.4,0.7,0.7c1.3,1.1,3.4,1.6,5.1,1.7c0.7,0,1.5,0.2,2.1,0.1
	c2.4-0.2,5-0.9,7.2-2l0.4-0.2c0.1,0,0.1,0,0.1,0l0,0c0.1,0,0.1,0,0.1,0.1c0,0,1.4,0.8,1.7,1c1.2,0.9,2.2,1.5,3.5,1.3
	c0.9-0.1,1.3-0.7,2.5-1.4c1-0.9,2.2-2.1,2.5-3C189.7,34.4,189.9,33.9,189.5,33.8z M179.7,35.4C180,35.5,179.5,35.3,179.7,35.4
	L179.7,35.4z M49.8,51.9c0.2,0.3,0.3,0.6,0.3,1.1c0,0.7-0.3,1.2-0.8,1.5c-0.5,0.3-1.4,0.5-2.6,0.5c-0.4,0-0.8,0-1.2,0
	c-0.4,0-0.8-0.1-1.1-0.1V48c0.3,0,0.7-0.1,1.2-0.1s0.9,0,1.5,0c1,0,1.7,0.1,2.2,0.4c0.4,0.3,0.6,0.7,0.6,1.3c0,0.3-0.1,0.6-0.3,0.9
	c-0.2,0.3-0.5,0.5-0.9,0.7v0.1C49.2,51.4,49.5,51.6,49.8,51.9z M46.1,50.8h1c0.3,0,0.5-0.1,0.7-0.2c0.2-0.1,0.3-0.3,0.3-0.5
	c0-0.2-0.1-0.4-0.2-0.5c-0.2-0.1-0.5-0.2-0.9-0.2c-0.2,0-0.4,0-0.5,0s-0.2,0-0.3,0V50.8z M48.3,52.7c0-0.2-0.1-0.4-0.3-0.6
	c-0.2-0.2-0.5-0.2-1-0.2h-0.9v1.6c0.1,0,0.2,0,0.4,0c0.1,0,0.2,0,0.4,0c0.5,0,0.9-0.1,1.1-0.2S48.3,53,48.3,52.7z M55.3,53.4
	c-0.2,0.1-0.5,0.1-0.8,0.1c-0.3,0-0.5-0.1-0.7-0.2c-0.2-0.1-0.4-0.3-0.5-0.4c-0.1-0.2-0.2-0.4-0.3-0.7c-0.1-0.2-0.1-0.5-0.1-0.8
	c0-0.7,0.1-1.2,0.4-1.6c0.3-0.3,0.6-0.5,1.1-0.5c0.3,0,0.5,0,0.7,0.1c0.2,0.1,0.4,0.1,0.6,0.2l0.4-1.5c-0.2-0.1-0.5-0.2-0.8-0.3
	c-0.3-0.1-0.7-0.1-1.2-0.1c-1,0-1.8,0.3-2.3,0.9c-0.5,0.6-0.8,1.5-0.8,2.7c0,0.5,0.1,1,0.2,1.5c0.1,0.5,0.3,0.8,0.5,1.2
	c0.2,0.3,0.6,0.6,0.9,0.7c0.4,0.2,0.9,0.3,1.4,0.3c0.4,0,0.8-0.1,1.2-0.2c0.4-0.1,0.7-0.3,1-0.5l-0.4-1.4
	C55.7,53.2,55.5,53.3,55.3,53.4z M62.6,49.3c0.2,0.4,0.2,0.8,0.2,1.3c0,0.2,0,0.4,0,0.6c0,0.2-0.1,0.5-0.1,0.7h-4.2
	c0,0.6,0.2,1,0.5,1.3s0.7,0.4,1.3,0.4c0.4,0,0.7-0.1,1-0.2c0.3-0.1,0.5-0.2,0.7-0.4l0.6,1.2c-0.3,0.2-0.7,0.4-1.1,0.6
	s-1,0.2-1.5,0.2c-1.1,0-1.9-0.3-2.4-1c-0.5-0.7-0.8-1.5-0.8-2.7c0-1.2,0.3-2.1,0.9-2.7c0.6-0.6,1.4-0.9,2.4-0.9c0.4,0,0.7,0,1,0.1
	c0.3,0.1,0.6,0.2,0.9,0.5C62.3,48.6,62.5,48.9,62.6,49.3z M61.2,50.8c0-0.5,0-0.9-0.2-1.1c-0.2-0.3-0.5-0.4-0.9-0.4
	c-0.5,0-0.8,0.1-1,0.4c-0.2,0.3-0.4,0.7-0.4,1.1H61.2z M73.1,53.3h1v3.2h-1.3l-0.2-1.6H68l-0.2,1.6h-1.3v-3.2h0.8
	c0.1-0.1,0.2-0.3,0.3-0.5c0.1-0.2,0.2-0.6,0.3-1c0.1-0.4,0.2-1,0.3-1.6c0.1-0.6,0.1-1.4,0.1-2.2h4.8V53.3z M71.3,49.5h-1.5
	c0,0.3-0.1,0.7-0.1,1.1c0,0.4-0.1,0.7-0.2,1.1s-0.2,0.7-0.2,1c-0.1,0.3-0.2,0.6-0.3,0.8h2.3V49.5z M80.7,49.3
	c0.2,0.4,0.2,0.8,0.2,1.3c0,0.2,0,0.4,0,0.6s-0.1,0.5-0.1,0.7h-4.2c0,0.6,0.2,1,0.5,1.3s0.7,0.4,1.3,0.4c0.4,0,0.7-0.1,1-0.2
	s0.5-0.2,0.7-0.4l0.6,1.2c-0.3,0.2-0.7,0.4-1.1,0.6s-1,0.2-1.5,0.2c-1.1,0-1.9-0.3-2.4-1c-0.5-0.7-0.8-1.5-0.8-2.7
	c0-1.2,0.3-2.1,0.9-2.7c0.6-0.6,1.4-0.9,2.4-0.9c0.4,0,0.7,0,1,0.1c0.3,0.1,0.6,0.2,0.9,0.5C80.3,48.6,80.5,48.9,80.7,49.3z
	 M79.2,50.8c0-0.5,0-0.9-0.2-1.1c-0.2-0.3-0.5-0.4-0.9-0.4c-0.5,0-0.8,0.1-1,0.4c-0.2,0.3-0.4,0.7-0.4,1.1H79.2z M82.7,50.7
	c-0.1,0.7-0.1,1.3-0.2,1.7c-0.1,0.4-0.2,0.7-0.4,0.8c-0.1,0.2-0.3,0.2-0.5,0.2c-0.1,0-0.3,0-0.4-0.1L81,54.8
	c0.2,0.1,0.6,0.2,1.1,0.2c0.4,0,0.8-0.2,1.1-0.5c0.3-0.3,0.5-0.7,0.7-1.2s0.3-1.1,0.4-1.7s0.1-1.3,0.2-2h1.4v5.3h1.8V48h-4.7
	C82.8,49.1,82.8,50,82.7,50.7z M95.1,50c0.1,0.5,0.2,0.9,0.2,1.5c0,1.2-0.3,2.1-0.9,2.7c-0.6,0.6-1.4,0.9-2.4,0.9
	c-0.6,0-1-0.1-1.4-0.3c-0.4-0.2-0.7-0.4-1-0.7c-0.3-0.3-0.5-0.7-0.6-1.2c-0.1-0.5-0.2-0.9-0.2-1.5c0-1.2,0.3-2.1,0.9-2.7
	c0.6-0.6,1.4-0.9,2.4-0.9c0.6,0,1,0.1,1.4,0.3c0.4,0.2,0.7,0.4,1,0.7C94.8,49.1,95,49.5,95.1,50z M93.5,51.5c0-0.6-0.1-1.2-0.3-1.5
	c-0.2-0.4-0.6-0.6-1.1-0.6c-0.4,0-0.8,0.2-1,0.5c-0.2,0.3-0.4,0.9-0.4,1.6c0,0.3,0,0.6,0.1,0.8c0.1,0.3,0.1,0.5,0.2,0.7
	c0.1,0.2,0.3,0.3,0.4,0.4c0.2,0.1,0.4,0.2,0.6,0.2c0.5,0,0.8-0.2,1.1-0.5S93.5,52.2,93.5,51.5z M105.5,51.9c0.2,0.3,0.3,0.6,0.3,1.1
	c0,0.7-0.3,1.2-0.8,1.5c-0.5,0.3-1.4,0.5-2.6,0.5c-0.4,0-0.8,0-1.2,0c-0.4,0-0.8-0.1-1.1-0.1V48c0.3,0,0.7-0.1,1.2-0.1s0.9,0,1.5,0
	c1,0,1.7,0.1,2.2,0.4c0.4,0.3,0.6,0.7,0.6,1.3c0,0.3-0.1,0.6-0.3,0.9c-0.2,0.3-0.5,0.5-0.9,0.7v0.1
	C104.9,51.4,105.2,51.6,105.5,51.9z M101.8,50.8h1c0.3,0,0.5-0.1,0.7-0.2s0.3-0.3,0.3-0.5c0-0.2-0.1-0.4-0.2-0.5
	c-0.2-0.1-0.5-0.2-0.9-0.2c-0.2,0-0.4,0-0.5,0s-0.2,0-0.3,0V50.8z M104,52.7c0-0.2-0.1-0.4-0.3-0.6s-0.5-0.2-1-0.2h-0.9v1.6
	c0.1,0,0.2,0,0.4,0c0.1,0,0.2,0,0.4,0c0.5,0,0.9-0.1,1.1-0.2S104,53,104,52.7z M114.9,50.6l-0.4,0.9h-0.1l-0.4-0.9l-1.6-2.6h-1.9
	v6.9h1.6v-3.2l-0.2-1.4h0.1l0.5,1.2l1.4,2.1h0.7l1.3-2.1l0.6-1.2h0.1l-0.1,1.4v3.2h1.7V48h-1.9L114.9,50.6z M125.1,53.9
	c0,0.4,0.1,0.7,0.2,1.1h-1.5l-0.3-1h-0.1c-0.2,0.3-0.4,0.5-0.8,0.7c-0.3,0.2-0.8,0.3-1.3,0.3c-0.3,0-0.6,0-0.9-0.1
	c-0.3-0.1-0.5-0.2-0.7-0.4c-0.2-0.2-0.3-0.4-0.4-0.6s-0.2-0.5-0.2-0.8c0-0.4,0.1-0.8,0.3-1.1c0.2-0.3,0.5-0.5,0.8-0.7
	c0.4-0.2,0.8-0.3,1.3-0.4s1-0.1,1.7-0.1c0.1-0.5,0-0.9-0.1-1.1s-0.4-0.3-0.9-0.3c-0.4,0-0.7,0-1.1,0.1s-0.7,0.2-1,0.3l-0.4-1.3
	c0.4-0.2,0.8-0.3,1.3-0.4c0.5-0.1,1-0.1,1.6-0.1c0.5,0,0.9,0.1,1.2,0.2s0.6,0.3,0.8,0.5c0.2,0.2,0.3,0.5,0.4,0.8
	c0.1,0.3,0.1,0.6,0.1,1c0,0.4,0,0.8,0,1.2c0,0.4,0,0.8,0,1.2C125,53.1,125.1,53.5,125.1,53.9z M123.4,51.9c-0.3,0-0.6,0-0.8,0
	s-0.5,0.1-0.7,0.1c-0.2,0.1-0.4,0.2-0.5,0.3c-0.1,0.1-0.2,0.3-0.2,0.5c0,0.3,0.1,0.5,0.2,0.6c0.2,0.1,0.4,0.2,0.6,0.2
	c0.4,0,0.6-0.1,0.9-0.2c0.2-0.2,0.4-0.3,0.5-0.5V51.9z M132.2,48.6c0.4,0.5,0.7,1.4,0.7,2.7c0,0.6-0.1,1.1-0.2,1.6s-0.3,0.9-0.6,1.2
	c-0.3,0.3-0.6,0.6-1,0.8c-0.4,0.2-0.8,0.3-1.3,0.3c-0.3,0-0.5,0-0.7-0.1c-0.2,0-0.4-0.1-0.6-0.2v2.8h-1.8V48h1.3l0.2,0.8h0.1
	c0.2-0.4,0.5-0.6,0.9-0.8c0.3-0.2,0.7-0.2,1.2-0.2C131.1,47.8,131.8,48.1,132.2,48.6z M131,51.2c0-0.6-0.1-1.1-0.3-1.4
	c-0.2-0.3-0.5-0.5-1-0.5c-0.4,0-0.6,0.1-0.8,0.3c-0.2,0.2-0.4,0.4-0.5,0.8v2.9c0.1,0.1,0.3,0.2,0.4,0.2s0.4,0.1,0.6,0.1
	c0.5,0,0.9-0.2,1.2-0.5C130.9,52.7,131,52.1,131,51.2z M136.5,51.3l-0.6,1h-0.1l0.1-0.9V48h-1.8v6.9h1.1l2.5-3.1l0.6-1h0l-0.1,1v3.2
	h1.8V48h-1.1L136.5,51.3z M145.7,50.6h-2.3V48h-1.8v6.9h1.8v-2.7h2.3v2.7h1.8V48h-1.8V50.6z M154.4,53.9c0,0.4,0.1,0.7,0.2,1.1h-1.5
	l-0.3-1h-0.1c-0.2,0.3-0.4,0.5-0.8,0.7c-0.3,0.2-0.8,0.3-1.3,0.3c-0.3,0-0.6,0-0.9-0.1c-0.3-0.1-0.5-0.2-0.7-0.4
	c-0.2-0.2-0.3-0.4-0.4-0.6s-0.2-0.5-0.2-0.8c0-0.4,0.1-0.8,0.3-1.1c0.2-0.3,0.5-0.5,0.8-0.7s0.8-0.3,1.3-0.4s1-0.1,1.7-0.1
	c0.1-0.5,0-0.9-0.1-1.1s-0.4-0.3-0.9-0.3c-0.4,0-0.7,0-1.1,0.1s-0.7,0.2-1,0.3l-0.4-1.3c0.4-0.2,0.8-0.3,1.3-0.4
	c0.5-0.1,1-0.1,1.6-0.1c0.5,0,0.9,0.1,1.2,0.2s0.6,0.3,0.8,0.5c0.2,0.2,0.3,0.5,0.4,0.8c0.1,0.3,0.1,0.6,0.1,1c0,0.4,0,0.8,0,1.2
	c0,0.4,0,0.8,0,1.2C154.4,53.1,154.4,53.5,154.4,53.9z M152.7,51.9c-0.3,0-0.6,0-0.8,0s-0.5,0.1-0.7,0.1c-0.2,0.1-0.4,0.2-0.5,0.3
	c-0.1,0.1-0.2,0.3-0.2,0.5c0,0.3,0.1,0.5,0.2,0.6c0.2,0.1,0.4,0.2,0.6,0.2c0.4,0,0.6-0.1,0.9-0.2c0.2-0.2,0.4-0.3,0.5-0.5V51.9z
	 M161.8,53.3h1v3.2h-1.3l-0.2-1.6h-4.6l-0.2,1.6h-1.3v-3.2h0.8c0.1-0.1,0.2-0.3,0.3-0.5c0.1-0.2,0.2-0.6,0.3-1
	c0.1-0.4,0.2-1,0.3-1.6c0.1-0.6,0.1-1.4,0.1-2.2h4.8V53.3z M160,49.5h-1.5c0,0.3-0.1,0.7-0.1,1.1c0,0.4-0.1,0.7-0.2,1.1
	c-0.1,0.4-0.2,0.7-0.2,1c-0.1,0.3-0.2,0.6-0.3,0.8h2.3V49.5z M169.3,49.3c0.2,0.4,0.2,0.8,0.2,1.3c0,0.2,0,0.4,0,0.6
	s-0.1,0.5-0.1,0.7h-4.2c0,0.6,0.2,1,0.5,1.3s0.7,0.4,1.3,0.4c0.4,0,0.7-0.1,1-0.2s0.5-0.2,0.7-0.4l0.6,1.2c-0.3,0.2-0.7,0.4-1.1,0.6
	s-1,0.2-1.5,0.2c-1.1,0-1.9-0.3-2.4-1c-0.5-0.7-0.8-1.5-0.8-2.7c0-1.2,0.3-2.1,0.9-2.7c0.6-0.6,1.4-0.9,2.4-0.9c0.4,0,0.7,0,1,0.1
	c0.3,0.1,0.6,0.2,0.9,0.5C169,48.6,169.2,48.9,169.3,49.3z M167.9,50.8c0-0.5,0-0.9-0.2-1.1c-0.2-0.3-0.5-0.4-0.9-0.4
	c-0.5,0-0.8,0.1-1,0.4c-0.2,0.3-0.4,0.7-0.4,1.1H167.9z"/>
</svg>
