<?xml version="1.0" encoding="utf-8"?>
<!-- Generator: Adobe Illustrator 19.2.1, SVG Export Plug-In . SVG Version: 6.00 Build 0)  -->
<svg version="1.1" id="Слой_1" xmlns="http://www.w3.org/2000/svg" xmlns:xlink="http://www.w3.org/1999/xlink" x="0px" y="0px"
	 width="197px" height="162px" viewBox="0 0 197 162" enable-background="new 0 0 197 162" xml:space="preserve">
<path fill-rule="evenodd" clip-rule="evenodd" fill="#FFB000" d="M70.86,61.49c-0.04,1.01,0.06,2.07,0.3,3.18
	c1.8-1.73,3.21-3.11,3.51-3.67c0.37-0.68,0.4-1.1,0.24-1.3c-0.22-0.28-0.63-0.49-1.12-0.61c-0.56-0.14-1.16-0.14-1.67,0.04
	C71.47,59.37,70.92,60.09,70.86,61.49 M76.11,86.64c-1.48-1.54-2.9-3.16-4.22-4.83c-1.05-1.32-2.03-2.69-2.93-4.07
	c-1.73,2.02-3.2,4.07-3.99,5.98c-0.49,1.18-0.64,2.2-0.52,3.04c0.1,0.71,0.43,1.3,0.9,1.73c0.56,0.51,1.37,0.85,2.34,1
	c1.31,0.2,2.83,0.01,4.4-0.63C73.37,88.33,74.73,87.57,76.11,86.64z M83.59,73.96h16.65c0.63,0,1.14,0.51,1.14,1.14v1.52
	c0,0.63-0.51,1.14-1.14,1.14h-3.65c-0.38,0-0.7,0.17-0.93,0.47c-1.78,2.48-4.83,5.7-8.01,8.74c2.24,1.76,5.33,3.76,7.59,4.89
	c0.3,0.15,0.5,0.4,0.59,0.72c0.09,0.33,0.04,0.64-0.15,0.92l-2.85,4.31c-0.31,0.47-0.91,0.64-1.42,0.41
	c-2.95-1.35-6.31-3.55-9.64-6.31c-2.25,1.64-4.58,3.03-6.85,3.95c-2.91,1.19-5.81,1.52-8.37,1.13c-2.42-0.36-4.6-1.37-6.28-2.9
	c-1.77-1.61-2.97-3.74-3.33-6.27c-0.3-2.11-0.02-4.47,1.02-6.98c1.48-3.57,4.26-7.07,7.21-10.22c-1.3-3.22-2.01-6.43-1.87-9.46
	c0.22-5.07,2.96-7.98,6.32-9.18c1.95-0.69,4.09-0.74,6.03-0.25c2.01,0.51,3.87,1.61,5.15,3.19c2.01,2.48,2.65,5.87,0.53,9.72
	c-0.89,1.61-2.96,3.6-5.49,6.04c-0.48,0.46-0.98,0.94-1.49,1.44c1.01,1.68,2.18,3.36,3.48,5c1.31,1.66,2.72,3.26,4.19,4.75
	c1.47-1.38,2.7-2.48,3.73-3.47c0.11-0.11,0.15-0.27,0.09-0.42c-0.06-0.15-0.19-0.24-0.35-0.24h-1.88c-0.63,0-1.14-0.51-1.14-1.14
	V75.1C82.45,74.47,82.96,73.96,83.59,73.96z"/>
<path fill-rule="evenodd" clip-rule="evenodd" fill="#1C99AD" d="M164.75,55.79l10.33-28.25c0.2-0.55,0.13-1.12-0.21-1.6
	c-0.34-0.48-0.84-0.74-1.43-0.74h-7.32c-0.78,0-1.44,0.49-1.67,1.24l-4.48,14.89c-0.13,0.45-0.53,0.74-1,0.75
	c-0.47,0-0.87-0.29-1-0.74l-4.51-14.9c-0.23-0.75-0.89-1.24-1.67-1.24h-7.32c-0.59,0-1.09,0.26-1.43,0.75
	c-0.34,0.48-0.41,1.05-0.21,1.6l10.37,28.25c0.26,0.7,0.89,1.14,1.64,1.14h8.27C163.85,56.93,164.49,56.49,164.75,55.79"/>
<path fill-rule="evenodd" clip-rule="evenodd" fill="#1C99AD" d="M132.3,41.06c0,4.35-2.36,7.12-6.44,7.12
	c-4.08,0-6.44-2.77-6.44-7.12c0-4.35,2.36-7.12,6.44-7.12C129.94,33.94,132.3,36.71,132.3,41.06 M108.67,41.06
	c0,9.11,5.76,16.6,17.19,16.6c11.43,0,17.19-7.48,17.19-16.6s-5.76-16.6-17.19-16.6C114.43,24.46,108.67,31.95,108.67,41.06z"/>
<path fill-rule="evenodd" clip-rule="evenodd" fill="#1C99AD" d="M83.9,26.93v28.25c0,0.96,0.78,1.74,1.74,1.74h20.55
	c0.96,0,1.74-0.78,1.74-1.74v-5.67c0-0.96-0.78-1.74-1.74-1.74H95.42c-0.58,0-1.05-0.47-1.05-1.05V26.93c0-0.96-0.78-1.74-1.74-1.74
	h-6.99C84.68,25.19,83.9,25.97,83.9,26.93"/>
<path fill-rule="evenodd" clip-rule="evenodd" fill="#1C99AD" d="M70.28,36.93c0,2.18-1.54,3.08-3.94,3.08h-2.26
	c-0.58,0-1.05-0.47-1.05-1.05v-4.12c0-0.58,0.47-1.05,1.05-1.05h2.26C68.74,33.8,70.28,34.71,70.28,36.93 M52.55,26.93v28.25
	c0,0.96,0.78,1.74,1.74,1.74h6.99c0.96,0,1.74-0.78,1.74-1.74v-5.51c0-0.58,0.47-1.05,1.05-1.05h2.35c8.07,0,14.24-2.81,14.24-11.7
	c0-8.93-6.17-11.74-14.24-11.74H54.29C53.33,25.19,52.55,25.97,52.55,26.93z"/>
<path fill-rule="evenodd" clip-rule="evenodd" fill="#1C99AD" d="M160.05,78.21c0,4.35-2.36,7.12-6.44,7.12
	c-4.08,0-6.44-2.77-6.44-7.12c0-4.35,2.36-7.12,6.44-7.12C157.69,71.09,160.05,73.86,160.05,78.21 M136.42,78.21
	c0,9.11,5.76,16.6,17.19,16.6c11.43,0,17.19-7.48,17.19-16.6s-5.76-16.6-17.19-16.6C142.18,61.62,136.42,69.1,136.42,78.21z
	 M104.85,78.21c0,11.29,8.62,16.6,17.78,16.6c3.22,0,6.51-0.61,9.62-1.7c0.71-0.25,1.17-0.89,1.17-1.65V78.1
	c0-0.96-0.78-1.74-1.74-1.74h-6.31c-0.96,0-1.74,0.78-1.74,1.74v6.32c0,0.56-0.45,1.03-1.01,1.05c-0.08,0-0.17,0-0.26,0
	c-2.31,0-6.76-1.27-6.76-7.26c0-5.4,4.08-7.48,8.71-7.48c2.27,0,4.83,0.49,6.88,1.37c0.33,0.14,0.69,0.11,0.99-0.09
	c0.3-0.2,0.47-0.51,0.47-0.87v-6.41c0-0.76-0.46-1.4-1.18-1.65c-2.68-0.92-5.84-1.46-9.07-1.46
	C113.51,61.62,104.85,66.56,104.85,78.21z"/>
<path fill-rule="evenodd" clip-rule="evenodd" fill="#1C99AD" d="M100.44,65.96c-0.63,4.14-4.21,7.32-8.53,7.32
	c-4.32,0-7.9-3.17-8.53-7.32c-0.05-0.34,0.04-0.65,0.26-0.91c0.22-0.26,0.52-0.4,0.86-0.4h14.81c0.34,0,0.64,0.14,0.86,0.4
	C100.4,65.31,100.49,65.62,100.44,65.96"/>
<path fill-rule="evenodd" clip-rule="evenodd" fill="#1C99AD" d="M30.43,106.54c6.04,3.76,11.32,5.46,16.34,4.62
	c3.43-0.57,6.92-2.34,10.64-5.44c9.24-7.7,8.38-8.64,18.35-5.73c12.37,3.61,17.63,11.32,26.05,23.68l0.01,0.02
	c0.4,0.58,1.19,0.73,1.77,0.34l0.78-0.52l0,0l1.22-0.82c0.58-0.39,1.38-0.24,1.77,0.35l0.95,1.4c0.2,0.29,0.26,0.61,0.2,0.96
	c-0.07,0.35-0.25,0.62-0.54,0.82l-9.11,6.12c-0.3,0.2-0.63,0.26-0.98,0.19c-0.35-0.08-0.63-0.27-0.82-0.58
	c-0.73-1.19-1.47-2.33-2.26-3.48c-7.86-11.51-12.86-18.83-24.11-20.87c-1.56-0.28-3.02,0.17-4.14,1.29
	c-6.24,6.21-12.21,9.63-18.37,10.66c-6.84,1.14-13.57-0.68-20.82-4.94c-0.61-0.36-1.39-0.15-1.75,0.45l-0.46,0.78l0,0l-0.75,1.26
	c-0.36,0.6-1.14,0.81-1.75,0.45l-1.46-0.86c-0.3-0.18-0.5-0.44-0.59-0.78c-0.09-0.34-0.04-0.67,0.14-0.97l5.59-9.44
	c0.18-0.31,0.46-0.51,0.81-0.59c0.35-0.08,0.68-0.02,0.99,0.17C28.84,105.55,29.61,106.04,30.43,106.54"/>
</svg>
