<?xml version="1.0" encoding="UTF-8"?>
<svg width="193px" height="191px" viewBox="0 0 193 191" version="1.1" xmlns="http://www.w3.org/2000/svg" xmlns:xlink="http://www.w3.org/1999/xlink">
    <!-- Generator: Sketch 46.2 (44496) - http://www.bohemiancoding.com/sketch -->
    <title>Artboard</title>
    <desc>Created with Sketch.</desc>
    <defs></defs>
    <g id="Page-1" stroke="none" stroke-width="1" fill="none" fill-rule="evenodd">
        <g id="Artboard">
            <g id="DC_191x43_glav-01" transform="translate(0.000000, 57.000000)">
                <g id="Group" transform="translate(0.000000, 13.000000)" fill-rule="nonzero">
                    <g id="Shape" fill="#000000">
                        <g transform="translate(0.000000, 5.000000)">
                            <path d="M0.1,19.5 L0.1,0.6 L6.5,0.6 C9.1,0.6 11.1,1 12.6,1.8 C14.1,2.6 15.3,3.7 16.2,5.2 C17.1,6.7 17.5,8.3 17.5,10.1 C17.5,11.4 17.3,12.6 16.8,13.7 C16.3,14.9 15.6,15.9 14.7,16.7 C13.8,17.6 12.7,18.3 11.5,18.7 C10.8,19 10.1,19.2 9.5,19.3 C8.9,19.4 7.8,19.4 6.1,19.4 L0.1,19.4 L0.1,19.5 Z M6.2,3 L2.8,3 L2.8,17.1 L6.3,17.1 C7.7,17.1 8.7,17 9.5,16.8 C10.2,16.6 10.9,16.4 11.4,16.1 C11.9,15.8 12.4,15.5 12.8,15.1 C14.1,13.7 14.8,12 14.8,10 C14.8,8 14.1,6.3 12.7,5 C12.2,4.5 11.6,4.1 11,3.8 C10.3,3.5 9.7,3.3 9.1,3.2 C8.5,3.1 7.5,3 6.2,3 Z"></path>
                            <path d="M30.5,13.5 L21.7,13.5 C21.8,14.7 22.2,15.6 22.9,16.3 C23.6,17 24.6,17.4 25.7,17.4 C27.3,17.4 28.8,16.9 30.2,15.9 L30.2,18.3 C29.4,18.8 28.7,19.2 27.9,19.4 C27.2,19.6 26.3,19.7 25.3,19.7 C23.9,19.7 22.8,19.4 22,18.8 C21.2,18.2 20.5,17.5 20,16.5 C19.5,15.5 19.2,14.4 19.2,13.2 C19.2,11.3 19.7,9.8 20.8,8.6 C21.9,7.4 23.3,6.8 25,6.8 C26.7,6.8 28,7.4 29,8.5 C30,9.7 30.5,11.2 30.5,13.1 L30.5,13.5 L30.5,13.5 Z M21.8,12.1 L28,12.1 C27.9,11.1 27.6,10.4 27.1,9.8 C26.6,9.3 25.9,9 25,9 C24.1,9 23.4,9.3 22.8,9.8 C22.3,10.3 21.9,11.1 21.8,12.1 Z"></path>
                            <polygon points="32.7 0.6 35.2 0.6 35.2 19.5 32.7 19.5"></polygon>
                            <path d="M39.3,1.8 C39.7,1.8 40.1,1.9 40.3,2.2 C40.6,2.5 40.7,2.8 40.7,3.2 C40.7,3.6 40.6,3.9 40.3,4.2 C40,4.5 39.7,4.6 39.3,4.6 C38.9,4.6 38.6,4.5 38.3,4.2 C38,3.9 37.9,3.6 37.9,3.2 C37.9,2.8 38,2.5 38.3,2.2 C38.6,2 38.9,1.8 39.3,1.8 Z M38.1,7.1 L40.6,7.1 L40.6,19.5 L38.1,19.5 L38.1,7.1 Z"></path>
                            <polygon points="51.1 7.1 53.8 7.1 48.3 19.8 47.5 19.8 41.9 7.1 44.6 7.1 48 14.8"></polygon>
                            <path d="M65.1,13.5 L56.3,13.5 C56.4,14.7 56.8,15.6 57.5,16.3 C58.2,17 59.2,17.4 60.3,17.4 C61.9,17.4 63.4,16.9 64.8,15.9 L64.8,18.3 C64,18.8 63.3,19.2 62.5,19.4 C61.8,19.6 60.9,19.7 59.9,19.7 C58.5,19.7 57.4,19.4 56.6,18.8 C55.7,18.2 55.1,17.5 54.6,16.5 C54.1,15.5 53.8,14.4 53.8,13.2 C53.8,11.3 54.3,9.8 55.4,8.6 C56.5,7.4 57.9,6.8 59.6,6.8 C61.3,6.8 62.6,7.4 63.6,8.5 C64.6,9.7 65.1,11.2 65.1,13.1 L65.1,13.5 L65.1,13.5 Z M56.4,12.1 L62.7,12.1 C62.6,11.1 62.3,10.4 61.8,9.8 C61.3,9.3 60.6,9 59.7,9 C58.8,9 58.1,9.3 57.5,9.8 C57,10.3 56.6,11.1 56.4,12.1 Z"></path>
                            <path d="M69.9,7.1 L69.9,10 L70,9.8 C71.2,7.9 72.4,6.9 73.6,6.9 C74.5,6.9 75.5,7.4 76.5,8.3 L75.2,10.5 C74.3,9.7 73.5,9.3 72.8,9.3 C72,9.3 71.3,9.7 70.7,10.4 C70.1,11.2 69.8,12.1 69.8,13.1 L69.8,19.6 L67.3,19.6 L67.3,7.1 L69.9,7.1 Z"></path>
                            <polygon points="86 7.1 88.8 7.1 80 25.9 77.2 25.9 81.4 16.9 76.6 7.1 79.4 7.1 82.8 14.1"></polygon>
                            <path d="M113,2 L113,3.6 C110.7,2.4 108.5,1.8 106.3,1.8 C104,1.8 102,2.6 100.4,4.2 C98.8,5.8 98,7.8 98,10.2 C98,12.6 98.8,14.6 100.4,16.2 C102,17.8 104,18.5 106.5,18.5 C108.6,18.5 110.8,17.9 113.2,16.6 L113.2,18 C111,19.2 108.7,19.8 106.5,19.8 C103.6,19.8 101.2,18.9 99.3,17 C97.4,15.2 96.4,12.9 96.4,10.1 C96.4,7.3 97.4,5 99.3,3.2 C101.3,1.3 103.6,0.4 106.3,0.4 C108.5,0.4 110.7,0.9 113,2 Z"></path>
                            <polygon points="116.5 0.6 116.5 19.5 115.2 19.5 115.2 0.6"></polygon>
                            <path d="M128.3,19.5 L128.3,17.4 L128.2,17.4 C127.6,18.2 127,18.8 126.4,19.2 C125.8,19.6 125,19.7 124.1,19.7 C122.8,19.7 121.7,19.3 120.8,18.4 C119.9,17.5 119.5,16.3 119.5,14.7 L119.5,7 L120.8,7 L120.8,14.7 C120.8,15.9 121.1,16.8 121.7,17.4 C122.3,18.1 123.2,18.4 124.2,18.4 C125.1,18.4 125.8,18.2 126.4,17.8 C127,17.4 127.6,16.7 128.2,15.7 L128.2,7 L129.5,7 L129.5,19.4 L128.3,19.4 L128.3,19.5 Z"></path>
                            <path d="M132.6,18.8 L132.6,0.6 L133.9,0.6 L133.9,8.8 C135.2,7.4 136.7,6.8 138.4,6.8 C140,6.8 141.4,7.4 142.4,8.5 C143.4,9.6 144,11.1 144,12.9 C144,15 143.4,16.6 142.1,17.9 C140.8,19.1 139.2,19.8 137,19.8 C135.6,19.8 134.1,19.5 132.6,18.8 Z M133.9,10.4 L133.9,17.9 C134.9,18.3 135.9,18.5 137,18.5 C138.6,18.5 139.9,18 141,17 C142.1,16 142.6,14.7 142.6,13.1 C142.6,11.6 142.2,10.4 141.4,9.5 C140.6,8.6 139.6,8.1 138.3,8.1 C136.7,8 135.3,8.8 133.9,10.4 Z"></path>
                        </g>
                        <path d="M184.7,26.5 C183.8,27.1 182.6,26.2 181.8,26 C180.8,25.7 179.8,25.9 178.9,25.5 C179.5,26.4 181.1,26.7 182,27.1 C182.4,27.3 182.6,27.3 182.6,27.5 C182.6,27.6 182.6,27.8 182.7,28 C182.7,28.7 182.6,29.3 182.6,30 C182.6,31.3 182.7,32.6 183.1,34 C183.4,34.9 183.6,36.4 184.2,37.1 C184.7,37.7 186.4,37.5 186,38.9 C186.9,39.3 186.6,40.5 187.3,41.2 C186.9,41 186.5,40.9 186,40.8 C185.1,40.4 184.3,39.7 183.5,39.2 C183.1,39 182.5,38.8 182.3,38.4 C182.1,38 182.2,37.3 182.1,36.8 C181.9,35.7 181.7,34.6 181.5,33.5 C181.4,32.9 181.4,32.3 181.2,31.8 C181.1,31.3 180.7,30.8 180.5,30.4 C180.1,29.5 179.5,28.5 178.5,28.1 C177.5,27.6 176.5,27.7 175.4,27.4 C174.2,27.1 173,26.7 171.7,26.7 C170.5,26.7 169.4,26.9 168.2,27 C166,27.2 163.9,27.8 161.9,26.4 C161,25.7 160,24.9 159.6,23.8 C159.4,23.2 159.3,22.8 159.3,22.2 C159.3,21.5 159.5,20.9 159.2,20.2 C158.8,19.3 158.1,18.5 157.5,17.8 C155.7,15.2 155.1,12.3 157,9.5 C157.9,8.3 159,6.8 159,5.3 C159.1,4.1 158.2,3.2 157.2,3.3 C156.8,3.3 155.1,2.8 155.1,2.6 C155.1,2.4 156.9,2 157.5,1.8 C158.3,1.6 158.6,0.6 159.5,0.8 C160.2,0.9 160.8,1.6 161.1,2.2 C161.8,3.5 161.7,5.2 161.2,6.5 C160.4,8.6 158.7,10.1 158.4,12.5 C158.3,13.8 158.5,15.4 159.7,16 C160.8,16.6 161.4,15.9 162.3,15.4 C163.4,14.7 164.7,14 165.9,13.6 C166.9,13.3 168,13.3 169.1,13.3 C171.6,13.3 173,12.9 175.4,13.7 C177.7,14.4 178.8,15.3 181.4,16.6 C183.1,16.7 187.9,17.1 189.4,19.4 C190.1,20.5 191.3,21.5 191.2,22.9 C191.1,24.2 190.2,25.9 189,26.5 C189.3,25.6 189.6,24.2 188.7,23.5 C188.2,23.8 188.1,24.5 188.1,25.1 C187.3,25 186.5,24.4 185.8,24.2 C185.1,23.9 184,23.7 183.6,23 C182.7,24.3 184,26.2 185.2,26.9 L184.7,26.5 Z M168.6,27.8 C167.9,28.1 166.6,28.2 165.9,28.2 C166,29.4 166.3,31 165.9,31.8 C165.1,33.5 163,34.1 161.3,35.4 C160,36.4 158.5,37.1 157.4,38.3 C156.9,38.8 156.4,39.5 155.8,40 C155.3,40.4 153.7,40.4 153.3,40.8 C153.2,41 153,41.4 153,41.7 C153.8,41.4 155.9,42.1 156.4,41.2 C156.7,41.6 157.1,41.5 157.5,41.3 C158.3,40.9 158,40.3 158.5,39.7 C158.8,39.4 159.6,38.9 160,38.5 C162,36.3 164.5,35.3 167,33.6 C169,32.3 168.7,31.9 168.5,31.5 C168.4,31.3 167.6,29.6 168.7,28.2 L168.6,27.8 Z"></path>
                    </g>
                    <g transform="translate(0.000000, 32.000000)" id="Shape" fill="#231F20">
                        <path d="M0,1.8 L2.6,1.8 C4.6,1.8 5.4,2.8 5.4,3.9 C5.4,4.7 4.9,5.2 4.4,5.6 C5.3,5.9 5.8,6.6 5.8,7.5 C5.8,8.9 4.9,9.8 2.6,9.8 L0,9.8 L0,1.8 Z M3,5.3 C3.5,5.3 4.2,5 4.2,4.1 C4.2,3.3 3.6,2.9 2.6,2.9 L1.3,2.9 L1.3,5.3 L3,5.3 L3,5.3 Z M1.3,6.2 L1.3,8.8 L2.7,8.8 C4.1,8.8 4.6,8.3 4.6,7.4 C4.6,6.6 4,6.2 3.1,6.2 L1.3,6.2 Z"></path>
                        <path d="M11,9 C10.9,9.3 10.4,10 9.1,10 C7.7,10 6.9,9.3 6.9,8.2 C6.9,6.4 9.5,6 11,5.9 L11,5.8 C11,4.9 10.6,4.5 9.6,4.5 C8.5,4.5 8.1,5.1 8.1,5.1 L7.3,4.5 C7.3,4.5 7.9,3.5 9.7,3.5 C11.4,3.5 12.3,4.2 12.3,5.8 L12.3,9.8 L11.2,9.8 L11,9 Z M11,8.1 L11,6.8 C9.6,6.9 8.3,7.2 8.3,8.1 C8.3,8.7 8.7,9.1 9.6,9.1 C10.6,9.1 10.9,8.2 11,8.1 Z"></path>
                        <polygon points="22.4 9.8 14.1 9.8 14.1 3.7 15.4 3.7 15.4 8.8 17.6 8.8 17.6 3.7 18.9 3.7 18.9 8.8 21.1 8.8 21.1 3.7 22.4 3.7"></polygon>
                        <path d="M27.9,9 C27.8,9.3 27.3,10 26,10 C24.6,10 23.8,9.3 23.8,8.2 C23.8,6.4 26.4,6 27.9,5.9 L27.9,5.8 C27.9,4.9 27.5,4.5 26.5,4.5 C25.4,4.5 25,5.1 25,5.1 L24.2,4.5 C24.2,4.5 24.8,3.5 26.6,3.5 C28.3,3.5 29.2,4.2 29.2,5.8 L29.2,9.8 L28.1,9.8 L27.9,9 Z M27.8,8.1 L27.8,6.8 C26.4,6.9 25.1,7.2 25.1,8.1 C25.1,8.7 25.5,9.1 26.4,9.1 C27.5,9.1 27.8,8.2 27.8,8.1 Z"></path>
                        <path d="M39.7,9.8 L38.4,9.8 L38.4,4.7 L36.4,4.7 C36.4,8.1 35.9,9.9 34.3,9.9 C34.2,9.9 34.1,9.9 33.9,9.9 L33.9,8.9 C33.9,8.9 34,8.9 34,8.9 C34.9,8.9 35.2,7.5 35.2,3.7 L39.8,3.7 L39.8,9.8 L39.7,9.8 Z"></path>
                        <path d="M50,6.8 C50,8.8 49,10.1 46.9,10.1 C45.1,10.1 44.1,9.1 44,7.3 L42.9,7.3 L42.9,9.9 L41.6,9.9 L41.6,3.8 L42.9,3.8 L42.9,6.2 L44,6.2 C44.2,4.5 45.2,3.6 46.9,3.6 C49,3.5 50,4.7 50,6.8 Z M45.2,6.7 C45.2,8.1 45.6,9 46.9,9 C48.2,9 48.7,8.1 48.7,6.7 C48.7,5.4 48.3,4.4 46.9,4.4 C45.6,4.5 45.2,5.4 45.2,6.7 Z"></path>
                        <path d="M52.1,4.7 C52.5,4 53.3,3.5 54.4,3.5 C56.3,3.5 57.4,4.8 57.4,6.8 C57.4,8.8 56.2,10.1 54.2,10.1 C52,10 51,8.7 51,6.4 C51,3.4 51.5,1.1 54.7,0.7 L56.7,0.5 L56.8,1.8 L55.1,2 C53.1,2.1 52.3,3 52.1,4.7 Z M52.4,6.5 L52.4,6.7 C52.4,8.1 52.9,9 54.2,9 C55.5,9 56,8.2 56,6.7 C56,5.3 55.5,4.5 54.2,4.5 C53,4.5 52.4,5.3 52.4,6.5 Z"></path>
                        <polygon points="58.8 3.7 60.1 3.7 60.1 7.9 63.2 4.1 63.3 3.7 64.5 3.7 64.5 9.8 63.2 9.8 63.2 5.7 60.1 9.5 60 9.8 58.8 9.8"></polygon>
                        <polygon points="74 9.8 72.8 9.8 72.8 6 72.9 5 72.9 5 70.9 9.7 69.6 9.7 67.6 5 67.6 5 67.6 6 67.6 9.7 66.4 9.7 66.4 3.6 68.1 3.6 70.2 8.8 70.2 8.8 72.3 3.6 74 3.6"></polygon>
                        <path d="M79.4,9 C79.3,9.3 78.8,10 77.5,10 C76.1,10 75.3,9.3 75.3,8.2 C75.3,6.4 77.9,6 79.4,5.9 L79.4,5.8 C79.4,4.9 79,4.5 78,4.5 C76.9,4.5 76.5,5.1 76.5,5.1 L75.7,4.5 C75.7,4.5 76.3,3.5 78.1,3.5 C79.8,3.5 80.7,4.2 80.7,5.8 L80.7,9.8 L79.6,9.8 L79.4,9 Z M79.4,8.1 L79.4,6.8 C78,6.9 76.7,7.2 76.7,8.1 C76.7,8.7 77.1,9.1 78,9.1 C79.1,9.1 79.4,8.2 79.4,8.1 Z"></path>
                        <path d="M87.4,9.8 L86,9.8 L86,7.5 L84.7,7.5 L83.5,9.8 L82.1,9.8 L83.5,7.4 C82.6,7.1 82.2,6.5 82.2,5.6 C82.2,4.3 83,3.7 84.8,3.7 L87.4,3.7 L87.4,9.8 L87.4,9.8 Z M84.9,6.7 L86,6.7 L86,4.6 L84.9,4.6 C83.9,4.6 83.4,4.9 83.4,5.6 C83.4,6.4 84,6.7 84.9,6.7 Z"></path>
                        <path d="M99.1,11.5 L98,11.5 L98,9.8 L93.1,9.8 L93,11.5 L92.1,11.5 L92,8.8 L92.8,8.8 C93.4,7.4 93.6,6 93.6,3.7 L98.2,3.7 L98.2,8.8 L99.2,8.8 L99.1,11.5 Z M94.1,8.8 L97,8.8 L97,4.8 L94.7,4.8 C94.7,6.3 94.5,7.6 94.1,8.8 Z"></path>
                        <path d="M103.2,10 C101.1,10 100,8.8 100,6.7 C100,4.7 101.1,3.4 103.2,3.4 C105.3,3.4 106.4,4.7 106.4,6.7 C106.4,8.8 105.2,10 103.2,10 Z M101.4,6.7 C101.4,8.1 101.9,9 103.2,9 C104.5,9 105,8.1 105,6.7 C105,5.3 104.5,4.5 103.2,4.5 C101.9,4.5 101.4,5.4 101.4,6.7 Z"></path>
                        <path d="M112.9,8.8 C112.9,8.8 112.4,10 110.4,10 C108.4,10 107.3,8.9 107.3,6.8 C107.3,4.8 108.4,3.5 110.5,3.5 C112.1,3.5 112.7,4.3 112.7,4.3 L112.3,5.1 C112.3,5.1 111.5,4.5 110.7,4.5 C109.4,4.5 108.7,5.2 108.7,6.8 C108.7,8.4 109.4,9 110.6,9 C111.6,9 112.2,8.3 112.2,8.3 L112.9,8.8 Z"></path>
                        <polygon points="116.4 4.8 116.4 9.9 115 9.9 115 4.8 113.1 4.8 113.1 3.7 118.1 3.7 118.1 4.8"></polygon>
                        <path d="M122.7,9 C122.6,9.3 122.1,10 120.8,10 C119.4,10 118.6,9.3 118.6,8.2 C118.6,6.4 121.2,6 122.7,5.9 L122.7,5.8 C122.7,4.9 122.3,4.5 121.3,4.5 C120.2,4.5 119.8,5.1 119.8,5.1 L119,4.5 C119,4.5 119.6,3.5 121.4,3.5 C123.1,3.5 124,4.2 124,5.8 L124,9.8 L122.9,9.8 L122.7,9 Z M122.6,8.1 L122.6,6.8 C121.2,6.9 119.9,7.2 119.9,8.1 C119.9,8.7 120.3,9.1 121.2,9.1 C122.3,9.1 122.6,8.2 122.6,8.1 Z"></path>
                        <path d="M130.8,5.3 C130.8,6.1 130.3,6.5 129.8,6.7 C130.4,6.9 131.1,7.3 131.1,8.1 C131.1,9.2 130.4,9.9 128.3,9.9 L125.8,9.9 L125.8,3.8 L128.3,3.8 C130.2,3.7 130.8,4.3 130.8,5.3 Z M128.5,6.3 C128.5,6.3 129.5,6.2 129.5,5.4 C129.5,4.9 129.2,4.5 128.3,4.5 L127,4.5 L127,6.2 L128.5,6.2 L128.5,6.3 Z M127,7 L127,8.8 L128.2,8.8 C129.4,8.8 129.7,8.4 129.7,7.8 C129.7,7.3 129.3,6.9 128.3,6.9 L127,6.9 L127,7 Z"></path>
                        <polygon points="132.5 3.7 133.8 3.7 133.8 6.3 134.5 5.9 136.3 3.8 137.8 3.8 135.5 6.5 138 9.9 136.4 9.9 134.4 7.1 133.8 7.4 133.8 10 132.5 10"></polygon>
                        <path d="M142.6,9 C142.5,9.3 142,10 140.7,10 C139.3,10 138.5,9.3 138.5,8.2 C138.5,6.4 141.1,6 142.6,5.9 L142.6,5.8 C142.6,4.9 142.2,4.5 141.2,4.5 C140.1,4.5 139.7,5.1 139.7,5.1 L138.9,4.5 C138.9,4.5 139.5,3.5 141.3,3.5 C143,3.5 143.9,4.2 143.9,5.8 L143.9,9.8 L142.8,9.8 L142.6,9 Z M142.6,8.1 L142.6,6.8 C141.2,6.9 139.9,7.2 139.9,8.1 C139.9,8.7 140.3,9.1 141.2,9.1 C142.3,9.1 142.6,8.2 142.6,8.1 Z"></path>
                    </g>
                </g>
                <path d="M82.1,0 L135,0 C139,0 142.2,3.2 142.2,7.2 L142.2,8.2 C142.2,12.2 139,15.4 135,15.4 L82.1,15.4 C78.1,15.4 74.9,12.2 74.9,8.2 L74.9,7.2 C75,3.2 78.2,0 82.1,0 Z" id="Shape" fill="#000000" fill-rule="nonzero"></path>
                <text id="На-главную!" fill="#FFFFFF" font-family="Helvetica" font-size="9.3417" font-weight="normal">
                    <tspan x="80.0469" y="11.2637">На главную!</tspan>
                </text>
                <path d="M151,15.4 C148.8,16.2 146.3,16.5 143.7,16.2 C142.4,16.1 141.1,15.8 139.8,15.3 C138.5,14.9 137.3,14.2 136.1,13.5 L140.4,9 C140.9,9.8 141.5,10.6 142.2,11.3 C142.9,12 143.7,12.7 144.6,13.2 C146.5,14.4 148.7,15.2 151,15.4 Z" id="Shape" fill="#000000" fill-rule="nonzero"></path>
            </g>
            <g id="DC_191x43_white-01" fill-rule="nonzero" fill="#FFFFFF">
                <g id="Group">
                    <g transform="translate(0.000000, 5.000000)" id="Shape">
                        <path d="M0.1,20 L0.1,1.1 L6.5,1.1 C9.1,1.1 11.1,1.5 12.6,2.3 C14.1,3.1 15.3,4.2 16.2,5.7 C17.1,7.2 17.5,8.8 17.5,10.6 C17.5,11.9 17.3,13.1 16.8,14.2 C16.3,15.4 15.6,16.4 14.7,17.2 C13.8,18.1 12.7,18.8 11.5,19.2 C10.8,19.5 10.1,19.7 9.5,19.8 C8.9,20 7.8,20 6.1,20 L0.1,20 Z M6.2,3.5 L2.8,3.5 L2.8,17.6 L6.3,17.6 C7.7,17.6 8.7,17.5 9.5,17.3 C10.2,17.1 10.9,16.9 11.4,16.6 C11.9,16.3 12.4,16 12.8,15.6 C14.1,14.2 14.8,12.5 14.8,10.5 C14.8,8.5 14.1,6.8 12.7,5.5 C12.2,5 11.6,4.6 11,4.3 C10.3,4 9.6,3.8 9.1,3.7 C8.5,3.6 7.5,3.5 6.2,3.5 Z"></path>
                        <path d="M30.5,14 L21.7,14 C21.8,15.2 22.2,16.1 22.9,16.8 C23.6,17.5 24.6,17.9 25.7,17.9 C27.3,17.9 28.8,17.4 30.2,16.4 L30.2,18.8 C29.4,19.3 28.7,19.7 27.9,19.9 C27.2,20.1 26.3,20.2 25.3,20.2 C23.9,20.2 22.8,19.9 22,19.3 C21.2,18.7 20.5,18 20,17 C19.5,16 19.2,14.9 19.2,13.7 C19.2,11.8 19.7,10.3 20.8,9.1 C21.9,7.9 23.3,7.3 25,7.3 C26.7,7.3 28,7.9 29,9 C30,10.2 30.5,11.7 30.5,13.6 L30.5,14 L30.5,14 Z M21.8,12.6 L28,12.6 C27.9,11.6 27.6,10.9 27.1,10.3 C26.6,9.8 25.9,9.5 25,9.5 C24.1,9.5 23.4,9.8 22.8,10.3 C22.3,10.8 21.9,11.6 21.8,12.6 Z"></path>
                        <polygon points="32.7 1.1 35.2 1.1 35.2 20 32.7 20"></polygon>
                        <path d="M39.3,2.3 C39.7,2.3 40.1,2.4 40.3,2.7 C40.6,3 40.7,3.3 40.7,3.7 C40.7,4.1 40.6,4.4 40.3,4.7 C40,5 39.7,5.1 39.3,5.1 C38.9,5.1 38.6,5 38.3,4.7 C38,4.4 37.9,4.1 37.9,3.7 C37.9,3.3 38,3 38.3,2.7 C38.6,2.5 38.9,2.3 39.3,2.3 Z M38.1,7.6 L40.6,7.6 L40.6,20 L38.1,20 L38.1,7.6 Z"></path>
                        <polygon points="51.1 7.6 53.8 7.6 48.3 20.3 47.5 20.3 41.9 7.6 44.6 7.6 48 15.3"></polygon>
                        <path d="M65.1,14 L56.3,14 C56.4,15.2 56.8,16.1 57.5,16.8 C58.2,17.5 59.2,17.9 60.3,17.9 C61.9,17.9 63.4,17.4 64.8,16.4 L64.8,18.8 C64,19.3 63.3,19.7 62.5,19.9 C61.8,20.1 60.9,20.2 59.9,20.2 C58.5,20.2 57.4,19.9 56.6,19.3 C55.7,18.7 55.1,18 54.6,17 C54.1,16 53.8,14.9 53.8,13.7 C53.8,11.8 54.3,10.3 55.4,9.1 C56.5,7.9 57.9,7.3 59.6,7.3 C61.3,7.3 62.6,7.9 63.6,9 C64.6,10.2 65.1,11.7 65.1,13.6 L65.1,14 L65.1,14 Z M56.4,12.6 L62.7,12.6 C62.6,11.6 62.3,10.9 61.8,10.3 C61.3,9.8 60.6,9.5 59.7,9.5 C58.8,9.5 58.1,9.8 57.5,10.3 C57,10.8 56.6,11.6 56.4,12.6 Z"></path>
                        <path d="M69.9,7.6 L69.9,10.5 L70,10.3 C71.2,8.4 72.4,7.4 73.6,7.4 C74.5,7.4 75.5,7.9 76.5,8.8 L75.2,11 C74.3,10.2 73.5,9.8 72.8,9.8 C72,9.8 71.3,10.2 70.7,10.9 C70.1,11.7 69.8,12.6 69.8,13.6 L69.8,20 L67.3,20 L67.3,7.6 L69.9,7.6 Z"></path>
                        <polygon points="86 7.6 88.8 7.6 80 26.4 77.2 26.4 81.4 17.4 76.6 7.6 79.4 7.6 82.8 14.6"></polygon>
                        <path d="M113,2.5 L113,4.1 C110.7,2.9 108.5,2.3 106.3,2.3 C104,2.3 102,3.1 100.4,4.7 C98.8,6.3 98,8.3 98,10.7 C98,13.1 98.8,15.1 100.4,16.7 C102,18.3 104,19 106.5,19 C108.6,19 110.8,18.4 113.2,17.1 L113.2,18.6 C111,19.8 108.7,20.4 106.5,20.4 C103.6,20.4 101.2,19.5 99.3,17.6 C97.4,15.8 96.4,13.5 96.4,10.7 C96.4,7.9 97.4,5.6 99.3,3.8 C101.3,1.9 103.6,1 106.3,1 C108.5,0.9 110.7,1.4 113,2.5 Z"></path>
                        <polygon points="116.5 1.1 116.5 20 115.2 20 115.2 1.1"></polygon>
                        <path d="M128.3,20 L128.3,18 L128.2,18 C127.6,18.8 127,19.4 126.4,19.8 C125.8,20.2 125,20.3 124.1,20.3 C122.8,20.3 121.7,19.9 120.8,19 C119.9,18.1 119.5,16.9 119.5,15.3 L119.5,7.6 L120.8,7.6 L120.8,15.3 C120.8,16.5 121.1,17.4 121.7,18 C122.3,18.7 123.2,19 124.2,19 C125.1,19 125.8,18.8 126.4,18.4 C127,18 127.6,17.3 128.2,16.3 L128.2,7.6 L129.5,7.6 L129.5,20 L128.3,20 Z"></path>
                        <path d="M132.6,19.3 L132.6,1.1 L133.9,1.1 L133.9,9.3 C135.2,7.9 136.7,7.3 138.4,7.3 C140,7.3 141.4,7.9 142.4,9 C143.4,10.1 144,11.6 144,13.4 C144,15.5 143.4,17.1 142.1,18.4 C140.8,19.6 139.2,20.3 137,20.3 C135.6,20.3 134.1,20 132.6,19.3 Z M133.9,10.9 L133.9,18.4 C134.9,18.8 135.9,19 137,19 C138.6,19 139.9,18.5 141,17.5 C142.1,16.5 142.6,15.2 142.6,13.6 C142.6,12.1 142.2,10.9 141.4,10 C140.6,9.1 139.6,8.6 138.3,8.6 C136.7,8.5 135.3,9.3 133.9,10.9 Z"></path>
                    </g>
                    <path d="M159.1,27 C160.2,26.3 161.6,24.4 160.7,23.1 C160.3,23.8 159.2,24 158.5,24.3 C157.8,24.6 157,25.1 156.2,25.2 C156.2,24.6 156.1,23.9 155.6,23.6 C154.7,24.3 155,25.7 155.3,26.6 C154,26 153.2,24.3 153.1,23 C153,21.6 154.1,20.6 154.9,19.5 C156.5,17.2 161.3,16.8 162.9,16.7 C165.5,15.4 166.6,14.5 168.9,13.8 C171.3,13 172.7,13.4 175.2,13.4 C176.3,13.4 177.4,13.4 178.4,13.7 C179.6,14.1 180.9,14.8 182,15.5 C182.9,16.1 183.5,16.8 184.6,16.1 C185.8,15.4 186,13.8 185.9,12.6 C185.7,10.2 184,8.7 183.1,6.6 C182.6,5.3 182.5,3.6 183.2,2.3 C183.5,1.7 184.1,1 184.8,0.9 C185.7,0.8 186.1,1.7 186.8,1.9 C187.4,2.1 189.2,2.5 189.2,2.7 C189.2,2.9 187.5,3.4 187.1,3.4 C186.1,3.3 185.2,4.2 185.3,5.4 C185.4,7 186.5,8.4 187.3,9.6 C189.1,12.4 188.6,15.3 186.8,17.9 C186.2,18.7 185.5,19.5 185.1,20.3 C184.8,21 185,21.6 185,22.3 C185,22.9 184.9,23.4 184.7,23.9 C184.3,25 183.4,25.8 182.4,26.5 C180.4,27.9 178.3,27.4 176.1,27.1 C175,27 173.8,26.8 172.6,26.8 C171.3,26.8 170.1,27.2 168.9,27.5 C167.8,27.8 166.8,27.8 165.8,28.2 C164.9,28.6 164.2,29.6 163.8,30.5 C163.6,31 163.3,31.4 163.1,31.9 C162.9,32.4 162.9,33 162.8,33.6 C162.6,34.7 162.4,35.8 162.2,36.9 C162.1,37.3 162.2,38.1 162,38.5 C161.8,38.9 161.2,39.1 160.8,39.3 C159.9,39.8 159.2,40.6 158.3,40.9 C157.9,41.1 157.4,41.1 157,41.3 C157.7,40.7 157.3,39.5 158.3,39 C157.8,37.6 159.5,37.8 160.1,37.2 C160.7,36.5 160.9,34.9 161.2,34.1 C161.6,32.8 161.7,31.5 161.7,30.1 C161.7,29.4 161.6,28.8 161.6,28.1 C161.6,27.9 161.6,27.7 161.7,27.6 C161.8,27.4 161.9,27.3 162.3,27.2 C163.2,26.9 164.9,26.5 165.4,25.6 C164.5,25.9 163.4,25.8 162.5,26.1 C161.7,26.3 160.5,27.2 159.6,26.6 L159.1,27 Z M175.3,28.9 C176.3,30.3 175.6,32 175.5,32.2 C175.3,32.6 175,33 177,34.3 C179.5,35.9 182,37 184,39.2 C184.4,39.6 185.2,40.1 185.5,40.4 C186,41.1 185.7,41.6 186.5,42 C186.9,42.2 187.3,42.3 187.6,41.9 C188.1,42.8 190.2,42.1 191,42.4 C191,42.1 190.8,41.7 190.7,41.5 C190.3,41.1 188.7,41.1 188.2,40.7 C187.5,40.2 187.1,39.5 186.6,39 C185.5,37.8 184,37.1 182.7,36.1 C181,34.8 178.9,34.2 178.1,32.5 C177.7,31.6 178.1,30 178.1,28.9 C177.4,28.9 176.1,28.7 175.4,28.5 L175.3,28.9 Z" id="Shape"></path>
                </g>
                <g id="Group" transform="translate(0.000000, 33.000000)">
                    <path d="M0,1.3 L2.6,1.3 C4.6,1.3 5.4,2.3 5.4,3.4 C5.4,4.2 4.9,4.7 4.4,5.1 C5.3,5.4 5.8,6.1 5.8,7 C5.8,8.4 4.9,9.3 2.6,9.3 L0,9.3 L0,1.3 Z M3,4.8 C3.5,4.8 4.2,4.5 4.2,3.6 C4.2,2.8 3.6,2.4 2.6,2.4 L1.3,2.4 L1.3,4.8 L3,4.8 L3,4.8 Z M1.3,5.7 L1.3,8.3 L2.7,8.3 C4.1,8.3 4.6,7.8 4.6,6.9 C4.6,6.1 4,5.7 3.1,5.7 L1.3,5.7 Z" id="Shape"></path>
                    <path d="M11,8.5 C10.9,8.8 10.4,9.5 9.1,9.5 C7.7,9.5 6.9,8.8 6.9,7.7 C6.9,5.9 9.5,5.5 11,5.4 L11,5.3 C11,4.4 10.6,4 9.6,4 C8.5,4 8.1,4.6 8.1,4.6 L7.3,4 C7.3,4 7.9,3 9.7,3 C11.4,3 12.3,3.7 12.3,5.3 L12.3,9.3 L11.2,9.3 L11,8.5 Z M11,7.6 L11,6.3 C9.6,6.4 8.3,6.7 8.3,7.6 C8.3,8.2 8.7,8.6 9.6,8.6 C10.6,8.6 10.9,7.7 11,7.6 Z" id="Shape"></path>
                    <polygon id="Shape" points="22.4 9.3 14.1 9.3 14.1 3.2 15.4 3.2 15.4 8.3 17.6 8.3 17.6 3.2 18.9 3.2 18.9 8.3 21.1 8.3 21.1 3.2 22.4 3.2"></polygon>
                    <path d="M27.9,8.5 C27.8,8.8 27.3,9.5 26,9.5 C24.6,9.5 23.8,8.8 23.8,7.7 C23.8,5.9 26.4,5.5 27.9,5.4 L27.9,5.3 C27.9,4.4 27.5,4 26.5,4 C25.4,4 25,4.6 25,4.6 L24.2,4 C24.2,4 24.8,3 26.6,3 C28.3,3 29.2,3.7 29.2,5.3 L29.2,9.3 L28.1,9.3 L27.9,8.5 Z M27.8,7.6 L27.8,6.3 C26.4,6.4 25.1,6.7 25.1,7.6 C25.1,8.2 25.5,8.6 26.4,8.6 C27.5,8.6 27.8,7.7 27.8,7.6 Z" id="Shape"></path>
                    <path d="M39.7,9.3 L38.4,9.3 L38.4,4.2 L36.4,4.2 C36.4,7.6 35.9,9.4 34.3,9.4 C34.2,9.4 34.1,9.4 33.9,9.4 L33.9,8.4 C33.9,8.4 34,8.4 34,8.4 C34.9,8.4 35.2,7 35.2,3.2 L39.8,3.2 L39.8,9.3 L39.7,9.3 Z" id="Shape"></path>
                    <path d="M50,6.3 C50,8.3 49,9.6 46.9,9.6 C45.1,9.6 44.1,8.6 44,6.8 L42.9,6.8 L42.9,9.4 L41.6,9.4 L41.6,3.3 L42.9,3.3 L42.9,5.7 L44,5.7 C44.2,4 45.2,3.1 46.9,3.1 C49,3 50,4.2 50,6.3 Z M45.2,6.2 C45.2,7.6 45.6,8.5 46.9,8.5 C48.2,8.5 48.7,7.6 48.7,6.2 C48.7,4.9 48.3,3.9 46.9,3.9 C45.6,4 45.2,4.9 45.2,6.2 Z" id="Shape"></path>
                    <path d="M52.1,4.2 C52.5,3.5 53.3,3 54.4,3 C56.3,3 57.4,4.3 57.4,6.3 C57.4,8.3 56.2,9.6 54.2,9.6 C52,9.6 51,8.3 51,6 C51,3 51.5,0.7 54.7,0.3 L56.7,0.1 L56.8,1.4 L55.1,1.6 C53.1,1.6 52.3,2.5 52.1,4.2 Z M52.4,6 L52.4,6.2 C52.4,7.6 52.9,8.5 54.2,8.5 C55.5,8.5 56,7.7 56,6.2 C56,4.8 55.5,4 54.2,4 C53,4 52.4,4.8 52.4,6 Z" id="Shape"></path>
                    <polygon id="Shape" points="58.8 3.2 60.1 3.2 60.1 7.4 63.2 3.6 63.3 3.2 64.5 3.2 64.5 9.3 63.2 9.3 63.2 5.2 60.1 9 60 9.3 58.8 9.3"></polygon>
                    <polygon id="Shape" points="74 9.3 72.8 9.3 72.8 5.5 72.9 4.5 72.9 4.5 70.9 9.2 69.6 9.2 67.6 4.5 67.6 4.5 67.6 5.5 67.6 9.2 66.4 9.2 66.4 3.1 68.1 3.1 70.2 8.3 70.2 8.3 72.3 3.1 74 3.1"></polygon>
                    <path d="M79.4,8.5 C79.3,8.8 78.8,9.5 77.5,9.5 C76.1,9.5 75.3,8.8 75.3,7.7 C75.3,5.9 77.9,5.5 79.4,5.4 L79.4,5.3 C79.4,4.4 79,4 78,4 C76.9,4 76.5,4.6 76.5,4.6 L75.8,4 C75.8,4 76.4,3 78.2,3 C79.9,3 80.8,3.7 80.8,5.3 L80.8,9.3 L79.7,9.3 L79.4,8.5 Z M79.4,7.6 L79.4,6.3 C78,6.4 76.7,6.7 76.7,7.6 C76.7,8.2 77.1,8.6 78,8.6 C79.1,8.6 79.4,7.7 79.4,7.6 Z" id="Shape"></path>
                    <path d="M87.4,9.3 L86,9.3 L86,7 L84.7,7 L83.5,9.3 L82.1,9.3 L83.5,6.9 C82.6,6.6 82.2,6 82.2,5.1 C82.2,3.8 83,3.2 84.8,3.2 L87.4,3.2 L87.4,9.3 L87.4,9.3 Z M84.9,6.2 L86,6.2 L86,4.1 L84.9,4.1 C83.9,4.1 83.4,4.4 83.4,5.1 C83.4,5.9 84,6.2 84.9,6.2 Z" id="Shape"></path>
                    <path d="M99.1,11 L98,11 L98,9.3 L93.1,9.3 L93,11 L92.1,11 L92,8.3 L92.8,8.3 C93.4,6.9 93.6,5.5 93.6,3.2 L98.2,3.2 L98.2,8.3 L99.2,8.3 L99.1,11 Z M94.1,8.3 L97,8.3 L97,4.3 L94.7,4.3 C94.7,5.8 94.5,7.1 94.1,8.3 Z" id="Shape"></path>
                    <path d="M103.2,9.5 C101.1,9.5 100,8.3 100,6.2 C100,4.2 101.1,2.9 103.2,2.9 C105.3,2.9 106.4,4.2 106.4,6.2 C106.4,8.3 105.2,9.5 103.2,9.5 Z M101.4,6.2 C101.4,7.6 101.9,8.5 103.2,8.5 C104.5,8.5 105,7.6 105,6.2 C105,4.8 104.5,4 103.2,4 C101.9,4 101.4,4.9 101.4,6.2 Z" id="Shape"></path>
                    <path d="M112.9,8.3 C112.9,8.3 112.4,9.5 110.4,9.5 C108.4,9.5 107.3,8.4 107.3,6.3 C107.3,4.3 108.4,3 110.5,3 C112.1,3 112.7,3.8 112.7,3.8 L112.3,4.6 C112.3,4.6 111.5,4 110.7,4 C109.4,4 108.7,4.7 108.7,6.3 C108.7,7.9 109.4,8.5 110.6,8.5 C111.6,8.5 112.2,7.8 112.2,7.8 L112.9,8.3 Z" id="Shape"></path>
                    <polygon id="Shape" points="116.4 4.3 116.4 9.4 115 9.4 115 4.3 113.1 4.3 113.1 3.2 118.1 3.2 118.1 4.3"></polygon>
                    <path d="M122.7,8.5 C122.6,8.8 122.1,9.5 120.8,9.5 C119.4,9.5 118.6,8.8 118.6,7.7 C118.6,5.9 121.2,5.5 122.7,5.4 L122.7,5.3 C122.7,4.4 122.3,4 121.3,4 C120.2,4 119.8,4.6 119.8,4.6 L119,4 C119,4 119.6,3 121.4,3 C123.1,3 124,3.7 124,5.3 L124,9.3 L122.9,9.3 L122.7,8.5 Z M122.6,7.6 L122.6,6.3 C121.2,6.4 119.9,6.7 119.9,7.6 C119.9,8.2 120.3,8.6 121.2,8.6 C122.3,8.6 122.6,7.7 122.6,7.6 Z" id="Shape"></path>
                    <path d="M130.8,4.8 C130.8,5.6 130.3,6 129.8,6.2 C130.4,6.4 131.1,6.8 131.1,7.6 C131.1,8.7 130.4,9.4 128.3,9.4 L125.8,9.4 L125.8,3.3 L128.3,3.3 C130.2,3.2 130.8,3.8 130.8,4.8 Z M128.5,5.8 C128.5,5.8 129.5,5.7 129.5,4.9 C129.5,4.4 129.2,4 128.3,4 L127,4 L127,5.7 L128.5,5.7 L128.5,5.8 Z M127,6.5 L127,8.3 L128.2,8.3 C129.4,8.3 129.7,7.9 129.7,7.3 C129.7,6.8 129.3,6.4 128.3,6.4 L127,6.4 L127,6.5 Z" id="Shape"></path>
                    <polygon id="Shape" points="132.5 3.2 133.8 3.2 133.8 5.8 134.5 5.4 136.3 3.3 137.8 3.3 135.5 6 138 9.4 136.4 9.4 134.4 6.6 133.8 6.9 133.8 9.5 132.5 9.5"></polygon>
                    <path d="M142.6,8.5 C142.5,8.8 142,9.5 140.7,9.5 C139.3,9.5 138.5,8.8 138.5,7.7 C138.5,5.9 141.1,5.5 142.6,5.4 L142.6,5.3 C142.6,4.4 142.2,4 141.2,4 C140.1,4 139.7,4.6 139.7,4.6 L138.9,4 C138.9,4 139.5,3 141.3,3 C143,3 143.9,3.7 143.9,5.3 L143.9,9.3 L142.8,9.3 L142.6,8.5 Z M142.6,7.6 L142.6,6.3 C141.2,6.4 139.9,6.7 139.9,7.6 C139.9,8.2 140.3,8.6 141.2,8.6 C142.3,8.6 142.6,7.7 142.6,7.6 Z" id="Shape"></path>
                </g>
            </g>
            <g id="DC_191x43_glav-01" transform="translate(0.000000, 127.000000)" fill-rule="nonzero">
                <g id="Group">
                    <g id="Shape" fill="#000000">
                        <g transform="translate(0.000000, 5.000000)">
                            <path d="M0.1,19.5 L0.1,0.6 L6.5,0.6 C9.1,0.6 11.1,1 12.6,1.8 C14.1,2.6 15.3,3.7 16.2,5.2 C17.1,6.7 17.5,8.3 17.5,10.1 C17.5,11.4 17.3,12.6 16.8,13.7 C16.3,14.9 15.6,15.9 14.7,16.7 C13.8,17.6 12.7,18.3 11.5,18.7 C10.8,19 10.1,19.2 9.5,19.3 C8.9,19.4 7.8,19.4 6.1,19.4 L0.1,19.4 L0.1,19.5 Z M6.2,3 L2.8,3 L2.8,17.1 L6.3,17.1 C7.7,17.1 8.7,17 9.5,16.8 C10.2,16.6 10.9,16.4 11.4,16.1 C11.9,15.8 12.4,15.5 12.8,15.1 C14.1,13.7 14.8,12 14.8,10 C14.8,8 14.1,6.3 12.7,5 C12.2,4.5 11.6,4.1 11,3.8 C10.3,3.5 9.7,3.3 9.1,3.2 C8.5,3.1 7.5,3 6.2,3 Z"></path>
                            <path d="M30.5,13.5 L21.7,13.5 C21.8,14.7 22.2,15.6 22.9,16.3 C23.6,17 24.6,17.4 25.7,17.4 C27.3,17.4 28.8,16.9 30.2,15.9 L30.2,18.3 C29.4,18.8 28.7,19.2 27.9,19.4 C27.2,19.6 26.3,19.7 25.3,19.7 C23.9,19.7 22.8,19.4 22,18.8 C21.2,18.2 20.5,17.5 20,16.5 C19.5,15.5 19.2,14.4 19.2,13.2 C19.2,11.3 19.7,9.8 20.8,8.6 C21.9,7.4 23.3,6.8 25,6.8 C26.7,6.8 28,7.4 29,8.5 C30,9.7 30.5,11.2 30.5,13.1 L30.5,13.5 L30.5,13.5 Z M21.8,12.1 L28,12.1 C27.9,11.1 27.6,10.4 27.1,9.8 C26.6,9.3 25.9,9 25,9 C24.1,9 23.4,9.3 22.8,9.8 C22.3,10.3 21.9,11.1 21.8,12.1 Z"></path>
                            <polygon points="32.7 0.6 35.2 0.6 35.2 19.5 32.7 19.5"></polygon>
                            <path d="M39.3,1.8 C39.7,1.8 40.1,1.9 40.3,2.2 C40.6,2.5 40.7,2.8 40.7,3.2 C40.7,3.6 40.6,3.9 40.3,4.2 C40,4.5 39.7,4.6 39.3,4.6 C38.9,4.6 38.6,4.5 38.3,4.2 C38,3.9 37.9,3.6 37.9,3.2 C37.9,2.8 38,2.5 38.3,2.2 C38.6,2 38.9,1.8 39.3,1.8 Z M38.1,7.1 L40.6,7.1 L40.6,19.5 L38.1,19.5 L38.1,7.1 Z"></path>
                            <polygon points="51.1 7.1 53.8 7.1 48.3 19.8 47.5 19.8 41.9 7.1 44.6 7.1 48 14.8"></polygon>
                            <path d="M65.1,13.5 L56.3,13.5 C56.4,14.7 56.8,15.6 57.5,16.3 C58.2,17 59.2,17.4 60.3,17.4 C61.9,17.4 63.4,16.9 64.8,15.9 L64.8,18.3 C64,18.8 63.3,19.2 62.5,19.4 C61.8,19.6 60.9,19.7 59.9,19.7 C58.5,19.7 57.4,19.4 56.6,18.8 C55.7,18.2 55.1,17.5 54.6,16.5 C54.1,15.5 53.8,14.4 53.8,13.2 C53.8,11.3 54.3,9.8 55.4,8.6 C56.5,7.4 57.9,6.8 59.6,6.8 C61.3,6.8 62.6,7.4 63.6,8.5 C64.6,9.7 65.1,11.2 65.1,13.1 L65.1,13.5 L65.1,13.5 Z M56.4,12.1 L62.7,12.1 C62.6,11.1 62.3,10.4 61.8,9.8 C61.3,9.3 60.6,9 59.7,9 C58.8,9 58.1,9.3 57.5,9.8 C57,10.3 56.6,11.1 56.4,12.1 Z"></path>
                            <path d="M69.9,7.1 L69.9,10 L70,9.8 C71.2,7.9 72.4,6.9 73.6,6.9 C74.5,6.9 75.5,7.4 76.5,8.3 L75.2,10.5 C74.3,9.7 73.5,9.3 72.8,9.3 C72,9.3 71.3,9.7 70.7,10.4 C70.1,11.2 69.8,12.1 69.8,13.1 L69.8,19.6 L67.3,19.6 L67.3,7.1 L69.9,7.1 Z"></path>
                            <polygon points="86 7.1 88.8 7.1 80 25.9 77.2 25.9 81.4 16.9 76.6 7.1 79.4 7.1 82.8 14.1"></polygon>
                            <path d="M113,2 L113,3.6 C110.7,2.4 108.5,1.8 106.3,1.8 C104,1.8 102,2.6 100.4,4.2 C98.8,5.8 98,7.8 98,10.2 C98,12.6 98.8,14.6 100.4,16.2 C102,17.8 104,18.5 106.5,18.5 C108.6,18.5 110.8,17.9 113.2,16.6 L113.2,18 C111,19.2 108.7,19.8 106.5,19.8 C103.6,19.8 101.2,18.9 99.3,17 C97.4,15.2 96.4,12.9 96.4,10.1 C96.4,7.3 97.4,5 99.3,3.2 C101.3,1.3 103.6,0.4 106.3,0.4 C108.5,0.4 110.7,0.9 113,2 Z"></path>
                            <polygon points="116.5 0.6 116.5 19.5 115.2 19.5 115.2 0.6"></polygon>
                            <path d="M128.3,19.5 L128.3,17.4 L128.2,17.4 C127.6,18.2 127,18.8 126.4,19.2 C125.8,19.6 125,19.7 124.1,19.7 C122.8,19.7 121.7,19.3 120.8,18.4 C119.9,17.5 119.5,16.3 119.5,14.7 L119.5,7 L120.8,7 L120.8,14.7 C120.8,15.9 121.1,16.8 121.7,17.4 C122.3,18.1 123.2,18.4 124.2,18.4 C125.1,18.4 125.8,18.2 126.4,17.8 C127,17.4 127.6,16.7 128.2,15.7 L128.2,7 L129.5,7 L129.5,19.4 L128.3,19.4 L128.3,19.5 Z"></path>
                            <path d="M132.6,18.8 L132.6,0.6 L133.9,0.6 L133.9,8.8 C135.2,7.4 136.7,6.8 138.4,6.8 C140,6.8 141.4,7.4 142.4,8.5 C143.4,9.6 144,11.1 144,12.9 C144,15 143.4,16.6 142.1,17.9 C140.8,19.1 139.2,19.8 137,19.8 C135.6,19.8 134.1,19.5 132.6,18.8 Z M133.9,10.4 L133.9,17.9 C134.9,18.3 135.9,18.5 137,18.5 C138.6,18.5 139.9,18 141,17 C142.1,16 142.6,14.7 142.6,13.1 C142.6,11.6 142.2,10.4 141.4,9.5 C140.6,8.6 139.6,8.1 138.3,8.1 C136.7,8 135.3,8.8 133.9,10.4 Z"></path>
                        </g>
                        <path d="M184.7,26.5 C183.8,27.1 182.6,26.2 181.8,26 C180.8,25.7 179.8,25.9 178.9,25.5 C179.5,26.4 181.1,26.7 182,27.1 C182.4,27.3 182.6,27.3 182.6,27.5 C182.6,27.6 182.6,27.8 182.7,28 C182.7,28.7 182.6,29.3 182.6,30 C182.6,31.3 182.7,32.6 183.1,34 C183.4,34.9 183.6,36.4 184.2,37.1 C184.7,37.7 186.4,37.5 186,38.9 C186.9,39.3 186.6,40.5 187.3,41.2 C186.9,41 186.5,40.9 186,40.8 C185.1,40.4 184.3,39.7 183.5,39.2 C183.1,39 182.5,38.8 182.3,38.4 C182.1,38 182.2,37.3 182.1,36.8 C181.9,35.7 181.7,34.6 181.5,33.5 C181.4,32.9 181.4,32.3 181.2,31.8 C181.1,31.3 180.7,30.8 180.5,30.4 C180.1,29.5 179.5,28.5 178.5,28.1 C177.5,27.6 176.5,27.7 175.4,27.4 C174.2,27.1 173,26.7 171.7,26.7 C170.5,26.7 169.4,26.9 168.2,27 C166,27.2 163.9,27.8 161.9,26.4 C161,25.7 160,24.9 159.6,23.8 C159.4,23.2 159.3,22.8 159.3,22.2 C159.3,21.5 159.5,20.9 159.2,20.2 C158.8,19.3 158.1,18.5 157.5,17.8 C155.7,15.2 155.1,12.3 157,9.5 C157.9,8.3 159,6.8 159,5.3 C159.1,4.1 158.2,3.2 157.2,3.3 C156.8,3.3 155.1,2.8 155.1,2.6 C155.1,2.4 156.9,2 157.5,1.8 C158.3,1.6 158.6,0.6 159.5,0.8 C160.2,0.9 160.8,1.6 161.1,2.2 C161.8,3.5 161.7,5.2 161.2,6.5 C160.4,8.6 158.7,10.1 158.4,12.5 C158.3,13.8 158.5,15.4 159.7,16 C160.8,16.6 161.4,15.9 162.3,15.4 C163.4,14.7 164.7,14 165.9,13.6 C166.9,13.3 168,13.3 169.1,13.3 C171.6,13.3 173,12.9 175.4,13.7 C177.7,14.4 178.8,15.3 181.4,16.6 C183.1,16.7 187.9,17.1 189.4,19.4 C190.1,20.5 191.3,21.5 191.2,22.9 C191.1,24.2 190.2,25.9 189,26.5 C189.3,25.6 189.6,24.2 188.7,23.5 C188.2,23.8 188.1,24.5 188.1,25.1 C187.3,25 186.5,24.4 185.8,24.2 C185.1,23.9 184,23.7 183.6,23 C182.7,24.3 184,26.2 185.2,26.9 L184.7,26.5 Z M168.6,27.8 C167.9,28.1 166.6,28.2 165.9,28.2 C166,29.4 166.3,31 165.9,31.8 C165.1,33.5 163,34.1 161.3,35.4 C160,36.4 158.5,37.1 157.4,38.3 C156.9,38.8 156.4,39.5 155.8,40 C155.3,40.4 153.7,40.4 153.3,40.8 C153.2,41 153,41.4 153,41.7 C153.8,41.4 155.9,42.1 156.4,41.2 C156.7,41.6 157.1,41.5 157.5,41.3 C158.3,40.9 158,40.3 158.5,39.7 C158.8,39.4 159.6,38.9 160,38.5 C162,36.3 164.5,35.3 167,33.6 C169,32.3 168.7,31.9 168.5,31.5 C168.4,31.3 167.6,29.6 168.7,28.2 L168.6,27.8 Z" transform="translate(172.102938, 21.236851) scale(-1, 1) translate(-172.102938, -21.236851) "></path>
                    </g>
                    <g transform="translate(0.000000, 32.000000)" id="Shape" fill="#231F20">
                        <path d="M0,1.8 L2.6,1.8 C4.6,1.8 5.4,2.8 5.4,3.9 C5.4,4.7 4.9,5.2 4.4,5.6 C5.3,5.9 5.8,6.6 5.8,7.5 C5.8,8.9 4.9,9.8 2.6,9.8 L0,9.8 L0,1.8 Z M3,5.3 C3.5,5.3 4.2,5 4.2,4.1 C4.2,3.3 3.6,2.9 2.6,2.9 L1.3,2.9 L1.3,5.3 L3,5.3 L3,5.3 Z M1.3,6.2 L1.3,8.8 L2.7,8.8 C4.1,8.8 4.6,8.3 4.6,7.4 C4.6,6.6 4,6.2 3.1,6.2 L1.3,6.2 Z"></path>
                        <path d="M11,9 C10.9,9.3 10.4,10 9.1,10 C7.7,10 6.9,9.3 6.9,8.2 C6.9,6.4 9.5,6 11,5.9 L11,5.8 C11,4.9 10.6,4.5 9.6,4.5 C8.5,4.5 8.1,5.1 8.1,5.1 L7.3,4.5 C7.3,4.5 7.9,3.5 9.7,3.5 C11.4,3.5 12.3,4.2 12.3,5.8 L12.3,9.8 L11.2,9.8 L11,9 Z M11,8.1 L11,6.8 C9.6,6.9 8.3,7.2 8.3,8.1 C8.3,8.7 8.7,9.1 9.6,9.1 C10.6,9.1 10.9,8.2 11,8.1 Z"></path>
                        <polygon points="22.4 9.8 14.1 9.8 14.1 3.7 15.4 3.7 15.4 8.8 17.6 8.8 17.6 3.7 18.9 3.7 18.9 8.8 21.1 8.8 21.1 3.7 22.4 3.7"></polygon>
                        <path d="M27.9,9 C27.8,9.3 27.3,10 26,10 C24.6,10 23.8,9.3 23.8,8.2 C23.8,6.4 26.4,6 27.9,5.9 L27.9,5.8 C27.9,4.9 27.5,4.5 26.5,4.5 C25.4,4.5 25,5.1 25,5.1 L24.2,4.5 C24.2,4.5 24.8,3.5 26.6,3.5 C28.3,3.5 29.2,4.2 29.2,5.8 L29.2,9.8 L28.1,9.8 L27.9,9 Z M27.8,8.1 L27.8,6.8 C26.4,6.9 25.1,7.2 25.1,8.1 C25.1,8.7 25.5,9.1 26.4,9.1 C27.5,9.1 27.8,8.2 27.8,8.1 Z"></path>
                        <path d="M39.7,9.8 L38.4,9.8 L38.4,4.7 L36.4,4.7 C36.4,8.1 35.9,9.9 34.3,9.9 C34.2,9.9 34.1,9.9 33.9,9.9 L33.9,8.9 C33.9,8.9 34,8.9 34,8.9 C34.9,8.9 35.2,7.5 35.2,3.7 L39.8,3.7 L39.8,9.8 L39.7,9.8 Z"></path>
                        <path d="M50,6.8 C50,8.8 49,10.1 46.9,10.1 C45.1,10.1 44.1,9.1 44,7.3 L42.9,7.3 L42.9,9.9 L41.6,9.9 L41.6,3.8 L42.9,3.8 L42.9,6.2 L44,6.2 C44.2,4.5 45.2,3.6 46.9,3.6 C49,3.5 50,4.7 50,6.8 Z M45.2,6.7 C45.2,8.1 45.6,9 46.9,9 C48.2,9 48.7,8.1 48.7,6.7 C48.7,5.4 48.3,4.4 46.9,4.4 C45.6,4.5 45.2,5.4 45.2,6.7 Z"></path>
                        <path d="M52.1,4.7 C52.5,4 53.3,3.5 54.4,3.5 C56.3,3.5 57.4,4.8 57.4,6.8 C57.4,8.8 56.2,10.1 54.2,10.1 C52,10 51,8.7 51,6.4 C51,3.4 51.5,1.1 54.7,0.7 L56.7,0.5 L56.8,1.8 L55.1,2 C53.1,2.1 52.3,3 52.1,4.7 Z M52.4,6.5 L52.4,6.7 C52.4,8.1 52.9,9 54.2,9 C55.5,9 56,8.2 56,6.7 C56,5.3 55.5,4.5 54.2,4.5 C53,4.5 52.4,5.3 52.4,6.5 Z"></path>
                        <polygon points="58.8 3.7 60.1 3.7 60.1 7.9 63.2 4.1 63.3 3.7 64.5 3.7 64.5 9.8 63.2 9.8 63.2 5.7 60.1 9.5 60 9.8 58.8 9.8"></polygon>
                        <polygon points="74 9.8 72.8 9.8 72.8 6 72.9 5 72.9 5 70.9 9.7 69.6 9.7 67.6 5 67.6 5 67.6 6 67.6 9.7 66.4 9.7 66.4 3.6 68.1 3.6 70.2 8.8 70.2 8.8 72.3 3.6 74 3.6"></polygon>
                        <path d="M79.4,9 C79.3,9.3 78.8,10 77.5,10 C76.1,10 75.3,9.3 75.3,8.2 C75.3,6.4 77.9,6 79.4,5.9 L79.4,5.8 C79.4,4.9 79,4.5 78,4.5 C76.9,4.5 76.5,5.1 76.5,5.1 L75.7,4.5 C75.7,4.5 76.3,3.5 78.1,3.5 C79.8,3.5 80.7,4.2 80.7,5.8 L80.7,9.8 L79.6,9.8 L79.4,9 Z M79.4,8.1 L79.4,6.8 C78,6.9 76.7,7.2 76.7,8.1 C76.7,8.7 77.1,9.1 78,9.1 C79.1,9.1 79.4,8.2 79.4,8.1 Z"></path>
                        <path d="M87.4,9.8 L86,9.8 L86,7.5 L84.7,7.5 L83.5,9.8 L82.1,9.8 L83.5,7.4 C82.6,7.1 82.2,6.5 82.2,5.6 C82.2,4.3 83,3.7 84.8,3.7 L87.4,3.7 L87.4,9.8 L87.4,9.8 Z M84.9,6.7 L86,6.7 L86,4.6 L84.9,4.6 C83.9,4.6 83.4,4.9 83.4,5.6 C83.4,6.4 84,6.7 84.9,6.7 Z"></path>
                        <path d="M99.1,11.5 L98,11.5 L98,9.8 L93.1,9.8 L93,11.5 L92.1,11.5 L92,8.8 L92.8,8.8 C93.4,7.4 93.6,6 93.6,3.7 L98.2,3.7 L98.2,8.8 L99.2,8.8 L99.1,11.5 Z M94.1,8.8 L97,8.8 L97,4.8 L94.7,4.8 C94.7,6.3 94.5,7.6 94.1,8.8 Z"></path>
                        <path d="M103.2,10 C101.1,10 100,8.8 100,6.7 C100,4.7 101.1,3.4 103.2,3.4 C105.3,3.4 106.4,4.7 106.4,6.7 C106.4,8.8 105.2,10 103.2,10 Z M101.4,6.7 C101.4,8.1 101.9,9 103.2,9 C104.5,9 105,8.1 105,6.7 C105,5.3 104.5,4.5 103.2,4.5 C101.9,4.5 101.4,5.4 101.4,6.7 Z"></path>
                        <path d="M112.9,8.8 C112.9,8.8 112.4,10 110.4,10 C108.4,10 107.3,8.9 107.3,6.8 C107.3,4.8 108.4,3.5 110.5,3.5 C112.1,3.5 112.7,4.3 112.7,4.3 L112.3,5.1 C112.3,5.1 111.5,4.5 110.7,4.5 C109.4,4.5 108.7,5.2 108.7,6.8 C108.7,8.4 109.4,9 110.6,9 C111.6,9 112.2,8.3 112.2,8.3 L112.9,8.8 Z"></path>
                        <polygon points="116.4 4.8 116.4 9.9 115 9.9 115 4.8 113.1 4.8 113.1 3.7 118.1 3.7 118.1 4.8"></polygon>
                        <path d="M122.7,9 C122.6,9.3 122.1,10 120.8,10 C119.4,10 118.6,9.3 118.6,8.2 C118.6,6.4 121.2,6 122.7,5.9 L122.7,5.8 C122.7,4.9 122.3,4.5 121.3,4.5 C120.2,4.5 119.8,5.1 119.8,5.1 L119,4.5 C119,4.5 119.6,3.5 121.4,3.5 C123.1,3.5 124,4.2 124,5.8 L124,9.8 L122.9,9.8 L122.7,9 Z M122.6,8.1 L122.6,6.8 C121.2,6.9 119.9,7.2 119.9,8.1 C119.9,8.7 120.3,9.1 121.2,9.1 C122.3,9.1 122.6,8.2 122.6,8.1 Z"></path>
                        <path d="M130.8,5.3 C130.8,6.1 130.3,6.5 129.8,6.7 C130.4,6.9 131.1,7.3 131.1,8.1 C131.1,9.2 130.4,9.9 128.3,9.9 L125.8,9.9 L125.8,3.8 L128.3,3.8 C130.2,3.7 130.8,4.3 130.8,5.3 Z M128.5,6.3 C128.5,6.3 129.5,6.2 129.5,5.4 C129.5,4.9 129.2,4.5 128.3,4.5 L127,4.5 L127,6.2 L128.5,6.2 L128.5,6.3 Z M127,7 L127,8.8 L128.2,8.8 C129.4,8.8 129.7,8.4 129.7,7.8 C129.7,7.3 129.3,6.9 128.3,6.9 L127,6.9 L127,7 Z"></path>
                        <polygon points="132.5 3.7 133.8 3.7 133.8 6.3 134.5 5.9 136.3 3.8 137.8 3.8 135.5 6.5 138 9.9 136.4 9.9 134.4 7.1 133.8 7.4 133.8 10 132.5 10"></polygon>
                        <path d="M142.6,9 C142.5,9.3 142,10 140.7,10 C139.3,10 138.5,9.3 138.5,8.2 C138.5,6.4 141.1,6 142.6,5.9 L142.6,5.8 C142.6,4.9 142.2,4.5 141.2,4.5 C140.1,4.5 139.7,5.1 139.7,5.1 L138.9,4.5 C138.9,4.5 139.5,3.5 141.3,3.5 C143,3.5 143.9,4.2 143.9,5.8 L143.9,9.8 L142.8,9.8 L142.6,9 Z M142.6,8.1 L142.6,6.8 C141.2,6.9 139.9,7.2 139.9,8.1 C139.9,8.7 140.3,9.1 141.2,9.1 C142.3,9.1 142.6,8.2 142.6,8.1 Z"></path>
                    </g>
                </g>
            </g>
        </g>
    </g>
</svg>